SplineFontDB: 3.0
FontName: GentiumAlt-Italic
FullName: GentiumAlt Italic
FamilyName: GentiumAlt
Weight: Book
Copyright: Copyright (c) 2003-2011, SIL International (http://scripts.sil.org/).\n
Version: 1.03; 2011; OFL 1.1 release
ItalicAngle: -7
UnderlinePosition: -41
UnderlineWidth: 14
Ascent: 1638
Descent: 410
sfntRevision: 0x000107ae
LayerCount: 2
Layer: 0 1 "Back"  1
Layer: 1 1 "Fore"  0
XUID: [1021 288 713564382 15942976]
FSType: 0
OS2Version: 1
OS2_WeightWidthSlopeOnly: 0
OS2_UseTypoMetrics: 1
CreationTime: 1032220800
ModificationTime: 1309534833
PfmFamily: 17
TTFWeight: 400
TTFWidth: 5
LineGap: 0
VLineGap: 0
Panose: 2 0 6 6 8 0 0 2 0 4
OS2TypoAscent: 2169
OS2TypoAOffset: 0
OS2TypoDescent: -610
OS2TypoDOffset: 0
OS2TypoLinegap: 0
OS2WinAscent: 2169
OS2WinAOffset: 0
OS2WinDescent: 610
OS2WinDOffset: 0
HheadAscent: 2169
HheadAOffset: 0
HheadDescent: -610
HheadDOffset: 0
OS2SubXSize: 856
OS2SubYSize: 856
OS2SubXOff: 0
OS2SubYOff: 1200
OS2SupXSize: 856
OS2SupYSize: 856
OS2SupXOff: 0
OS2SupYOff: 1200
OS2StrikeYSize: 102
OS2StrikeYPos: 512
OS2Vendor: 'SIL '
OS2CodePages: 2000001b.00000000
OS2UnicodeRanges: e00000ff.00000003.00000000.00000000
Lookup: 258 0 0 "'kern' Horizontal Kerning lookup 0"  {"'kern' Horizontal Kerning lookup 0 subtable"  } ['kern' ('DFLT' <'dflt' > 'grek' <'dflt' > 'latn' <'dflt' > ) ]
MarkAttachClasses: 1
DEI: 91125
TtTable: prep
PUSHW_1
 0
CALL
SVTCA[y-axis]
PUSHW_3
 1
 2
 2
CALL
SVTCA[x-axis]
PUSHW_3
 3
 2
 2
CALL
PUSHW_7
 3
 85
 67
 52
 40
 24
 8
CALL
PUSHW_7
 4
 79
 67
 52
 40
 24
 8
CALL
PUSHW_7
 1
 98
 81
 63
 40
 24
 8
CALL
PUSHW_7
 2
 124
 102
 79
 57
 34
 8
CALL
SVTCA[y-axis]
PUSHW_3
 5
 4
 7
CALL
PUSHW_1
 0
DUP
RCVT
RDTG
ROUND[Black]
RTG
WCVTP
EndTTInstrs
TtTable: fpgm
PUSHW_1
 0
FDEF
MPPEM
PUSHW_1
 9
LT
IF
PUSHB_2
 1
 1
INSTCTRL
EIF
PUSHW_1
 511
SCANCTRL
PUSHW_1
 68
SCVTCI
PUSHW_2
 9
 3
SDS
SDB
ENDF
PUSHW_1
 1
FDEF
DUP
DUP
RCVT
ROUND[Black]
WCVTP
PUSHB_1
 1
ADD
ENDF
PUSHW_1
 2
FDEF
PUSHW_1
 1
LOOPCALL
POP
ENDF
PUSHW_1
 3
FDEF
DUP

StartChar: dollar
Encoding: 36 36 4
Width: 823
Flags: W
LayerCount: 2
Fore
SplineSet
249 950 m 0,0,1
 249 931 249 931 255.5 910.5 c 128,-1,2
 262 890 262 890 279 868 c 128,-1,3
 296 846 296 846 326 822 c 128,-1,4
 356 798 356 798 404 771 c 1,5,-1
 455 1132 l 1,6,7
 408 1129 408 1129 370 1111.5 c 128,-1,8
 332 1094 332 1094 305 1068 c 128,-1,9
 278 1042 278 1042 263.5 1011 c 128,-1,10
 249 980 249 980 249 950 c 0,0,1
614 343 m 0,11,12
 614 374 614 374 605.5 402 c 128,-1,13
 597 430 597 430 577.5 456 c 128,-1,14
 558 482 558 482 527.5 507.5 c 128,-1,15
 497 533 497 533 453 559 c 1,16,-1
 388 95 l 1,17,18
 436 104 436 104 477 127 c 128,-1,19
 518 150 518 150 548.5 182.5 c 128,-1,20
 579 215 579 215 596.5 256 c 128,-1,21
 614 297 614 297 614 343 c 0,11,12
793 1144 m 0,22,23
 799 1140 799 1140 788 1120.5 c 128,-1,24
 777 1101 777 1101 760 1078.5 c 128,-1,25
 743 1056 743 1056 724 1036.5 c 128,-1,26
 705 1017 705 1017 696 1011 c 1,27,-1
 668 1016 l 1,28,29
 644 1049 644 1049 609 1078 c 128,-1,30
 574 1107 574 1107 533 1122 c 1,31,-1
 478 732 l 1,32,33
 547 696 547 696 596.5 661.5 c 128,-1,34
 646 627 646 627 677.5 590 c 128,-1,35
 709 553 709 553 724 511 c 128,-1,36
 739 469 739 469 739 418 c 0,37,38
 739 342 739 342 710.5 271.5 c 128,-1,39
 682 201 682 201 632 143 c 128,-1,40
 582 85 582 85 515 43 c 128,-1,41
 448 1 448 1 372 -17 c 1,42,-1
 355 -138 l 1,43,44
 346 -146 346 -146 340 -150.5 c 128,-1,45
 334 -155 334 -155 327.5 -158 c 128,-1,46
 321 -161 321 -161 313.5 -163 c 128,-1,47
 306 -165 306 -165 294 -168 c 1,48,-1
 274 -147 l 1,49,-1
 290 -30 l 1,50,51
 283 -30 283 -30 276 -30.5 c 128,-1,52
 269 -31 269 -31 262 -31 c 0,53,54
 226 -31 226 -31 178 -18.5 c 128,-1,55
 130 -6 130 -6 87 13.5 c 128,-1,56
 44 33 44 33 14 58 c 128,-1,57
 -16 83 -16 83 -16 108 c 0,58,59
 -16 120 -16 120 -4.5 142 c 128,-1,60
 7 164 7 164 23 186 c 128,-1,61
 39 208 39 208 57 224.5 c 128,-1,62
 75 241 75 241 89 241 c 0,63,64
 99 241 99 241 115.5 219.5 c 128,-1,65
 132 198 132 198 157.5 171 c 128,-1,66
 183 144 183 144 219.5 120 c 128,-1,67
 256 96 256 96 307 91 c 1,68,-1
 379 599 l 1,69,-1
 355 611 l 1,70,71
 292 641 292 641 249.5 675 c 128,-1,72
 207 709 207 709 181 744 c 128,-1,73
 155 779 155 779 144 815 c 128,-1,74
 133 851 133 851 133 885 c 0,75,76
 133 941 133 941 157 996 c 128,-1,77
 181 1051 181 1051 225 1097.5 c 128,-1,78
 269 1144 269 1144 331 1177.5 c 128,-1,79
 393 1211 393 1211 468 1224 c 1,80,-1
 484 1338 l 1,81,82
 497 1346 497 1346 503 1349.5 c 128,-1,83
 509 1353 509 1353 513 1355.5 c 128,-1,84
 517 1358 517 1358 523 1360 c 128,-1,85
 529 1362 529 1362 542 1366 c 1,86,-1
 564 1344 l 1,87,-1
 548 1231 l 1,88,-1
 549 1231 l 2,89,90
 621 1231 621 1231 684 1205 c 128,-1,91
 747 1179 747 1179 793 1144 c 0,22,23
EndSplineSet
EndChar

StartChar: percent
Encoding: 37 37 5
Width: 1315
Flags: W
LayerCount: 2
Fore
SplineSet
1075 387 m 0,0,1
 1075 478 1075 478 1044.5 521.5 c 128,-1,2
 1014 565 1014 565 971 565 c 0,3,4
 940 565 940 565 917 546 c 128,-1,5
 894 527 894 527 876.5 496.5 c 128,-1,6
 859 466 859 466 847.5 427.5 c 128,-1,7
 836 389 836 389 829.5 350 c 128,-1,8
 823 311 823 311 820 275.5 c 128,-1,9
 817 240 817 240 817 215 c 0,10,11
 817 131 817 131 846 91 c 128,-1,12
 875 51 875 51 922 51 c 0,13,14
 952 51 952 51 974.5 69 c 128,-1,15
 997 87 997 87 1014 116 c 128,-1,16
 1031 145 1031 145 1042.5 182 c 128,-1,17
 1054 219 1054 219 1061.5 256.5 c 128,-1,18
 1069 294 1069 294 1072 328 c 128,-1,19
 1075 362 1075 362 1075 387 c 0,0,1
506 975 m 0,20,21
 506 1066 506 1066 475 1109.5 c 128,-1,22
 444 1153 444 1153 399 1153 c 0,23,24
 368 1153 368 1153 345 1134 c 128,-1,25
 322 1115 322 1115 305 1084.5 c 128,-1,26
 288 1054 288 1054 276.5 1015.5 c 128,-1,27
 265 977 265 977 258.5 938 c 128,-1,28
 252 899 252 899 249 863.5 c 128,-1,29
 246 828 246 828 246 803 c 0,30,31
 246 719 246 719 276 679 c 128,-1,32
 306 639 306 639 352 639 c 0,33,34
 381 639 381 639 404 657 c 128,-1,35
 427 675 427 675 444 704.5 c 128,-1,36
 461 734 461 734 473 770.5 c 128,-1,37
 485 807 485 807 492 844.5 c 128,-1,38
 499 882 499 882 502.5 916 c 128,-1,39
 506 950 506 950 506 975 c 0,20,21
256 16 m 1,40,41
 246 9 246 9 228.5 1.5 c 128,-1,42
 211 -6 211 -6 191.5 -12.5 c 128,-1,43
 172 -19 172 -19 153.5 -25 c 128,-1,44
 135 -31 135 -31 123 -35 c 1,45,-1
 104 0 l 1,46,-1
 1067 1188 l 1,47,48
 1095 1205 1095 1205 1131.5 1217 c 128,-1,49
 1168 1229 1168 1229 1196 1237 c 1,50,-1
 1221 1204 l 1,51,-1
 256 16 l 1,40,41
641 965 m 0,52,53
 641 922 641 922 630.5 874.5 c 128,-1,54
 620 827 620 827 600 782 c 128,-1,55
 580 737 580 737 551.5 696 c 128,-1,56
 523 655 523 655 487 624 c 128,-1,57
 451 593 451 593 407.5 575 c 128,-1,58
 364 557 364 557 315 557 c 0,59,60
 267 557 267 557 229.5 578 c 128,-1,61
 192 599 192 599 165.5 635.5 c 128,-1,62
 139 672 139 672 125 722 c 128,-1,63
 111 772 111 772 111 829 c 0,64,65
 111 873 111 873 121.5 920 c 128,-1,66
 132 967 132 967 152 1012 c 128,-1,67
 172 1057 172 1057 200.5 1097.5 c 128,-1,68
 229 1138 229 1138 265.5 1168.5 c 128,-1,69
 302 1199 302 1199 344.5 1217 c 128,-1,70
 387 1235 387 1235 436 1235 c 0,71,72
 484 1235 484 1235 522.5 1214.5 c 128,-1,73
 561 1194 561 1194 587 1157.5 c 128,-1,74
 613 1121 613 1121 627 1071.5 c 128,-1,75
 641 1022 641 1022 641 965 c 0,52,53
1212 377 m 0,76,77
 1212 311 1212 311 1188.5 239 c 128,-1,78
 1165 167 1165 167 1122 107 c 128,-1,79
 1079 47 1079 47 1019.5 8 c 128,-1,80
 960 -31 960 -31 887 -31 c 0,81,82
 839 -31 839 -31 801 -10 c 128,-1,83
 763 11 763 11 736.5 47.5 c 128,-1,84
 710 84 710 84 696 134 c 128,-1,85
 682 184 682 184 682 242 c 0,86,87
 682 285 682 285 692.5 332 c 128,-1,88
 703 379 703 379 723 424 c 128,-1,89
 743 469 743 469 771.5 509.5 c 128,-1,90
 800 550 800 550 836 580.5 c 128,-1,91
 872 611 872 611 915 629 c 128,-1,92
 958 647 958 647 1006 647 c 0,93,94
 1055 647 1055 647 1093.5 626.5 c 128,-1,95
 1132 606 1132 606 1158 569.5 c 128,-1,96
 1184 533 1184 533 1198 483.5 c 128,-1,97
 1212 434 1212 434 1212 377 c 0,76,77
EndSplineSet
EndChar

StartChar: ampersand
Encoding: 38 38 6
Width: 1190
Flags: W
LayerCount: 2
Fore
SplineSet
516 1130 m 0,0,1
 508 1072 508 1072 514.5 1009 c 128,-1,2
 521 946 521 946 538 880 c 1,3,4
 541 881 541 881 547 885 c 0,5,6
 609 920 609 920 652.5 955.5 c 128,-1,7
 696 991 696 991 723.5 1026 c 128,-1,8
 751 1061 751 1061 766 1095 c 128,-1,9
 781 1129 781 1129 786 1161 c 1,10,11
 793 1198 793 1198 791 1231 c 128,-1,12
 789 1264 789 1264 776.5 1289 c 128,-1,13
 764 1314 764 1314 739.5 1328.5 c 128,-1,14
 715 1343 715 1343 678 1343 c 0,15,16
 642 1343 642 1343 614 1324.5 c 128,-1,17
 586 1306 586 1306 566 1276 c 128,-1,18
 546 1246 546 1246 533.5 1207.5 c 128,-1,19
 521 1169 521 1169 516 1130 c 0,0,1
446 84 m 0,20,21
 526 84 526 84 594.5 109.5 c 128,-1,22
 663 135 663 135 720 177 c 1,23,24
 681 229 681 229 641.5 290.5 c 128,-1,25
 602 352 602 352 565.5 419.5 c 128,-1,26
 529 487 529 487 496.5 559 c 128,-1,27
 464 631 464 631 440 705 c 1,28,29
 385 662 385 662 345.5 622.5 c 128,-1,30
 306 583 306 583 279 544 c 128,-1,31
 252 505 252 505 236.5 465.5 c 128,-1,32
 221 426 221 426 215 383 c 0,33,34
 206 313 206 313 222 257.5 c 128,-1,35
 238 202 238 202 271 163.5 c 128,-1,36
 304 125 304 125 350 104.5 c 128,-1,37
 396 84 396 84 446 84 c 0,20,21
1274 748 m 1,38,39
 1248 717 1248 717 1223 696.5 c 128,-1,40
 1198 676 1198 676 1174 659 c 1,41,42
 1159 668 1159 668 1139 675 c 128,-1,43
 1119 682 1119 682 1099 687.5 c 128,-1,44
 1079 693 1079 693 1059 696 c 128,-1,45
 1039 699 1039 699 1024 700 c 1,46,47
 1031 682 1031 682 1034.5 665 c 128,-1,48
 1038 648 1038 648 1039 627.5 c 128,-1,49
 1040 607 1040 607 1038 581.5 c 128,-1,50
 1036 556 1036 556 1032 522 c 0,51,52
 1022 453 1022 453 985.5 376.5 c 128,-1,53
 949 300 949 300 891 228 c 1,54,55
 915 199 915 199 937.5 173.5 c 128,-1,56
 960 148 960 148 981 127 c 0,57,58
 1012 95 1012 95 1050.5 84.5 c 128,-1,59
 1089 74 1089 74 1143 88 c 1,60,-1
 1145 45 l 1,61,62
 1060 7 1060 7 1005 -12 c 128,-1,63
 950 -31 950 -31 930 -31 c 256,64,65
 910 -31 910 -31 868.5 6.5 c 128,-1,66
 827 44 827 44 773 110 c 1,67,68
 695 47 695 47 601.5 8 c 128,-1,69
 508 -31 508 -31 403 -31 c 0,70,71
 319 -31 319 -31 251.5 -4.5 c 128,-1,72
 184 22 184 22 139 72 c 128,-1,73
 94 122 94 122 74.5 195.5 c 128,-1,74
 55 269 55 269 68 362 c 0,75,76
 83 474 83 474 173 585.5 c 128,-1,77
 263 697 263 697 413 801 c 1,78,79
 396 872 396 872 390 940 c 128,-1,80
 384 1008 384 1008 393 1073 c 0,81,82
 404 1154 404 1154 437 1223 c 128,-1,83
 470 1292 470 1292 517.5 1342.5 c 128,-1,84
 565 1393 565 1393 623 1421.5 c 128,-1,85
 681 1450 681 1450 741 1450 c 0,86,87
 798 1450 798 1450 835.5 1428.5 c 128,-1,88
 873 1407 873 1407 893.5 1371.5 c 128,-1,89
 914 1336 914 1336 919.5 1290 c 128,-1,90
 925 1244 925 1244 918 1194 c 0,91,92
 902 1092 902 1092 825 1002 c 128,-1,93
 748 912 748 912 633 838 c 0,94,95
 615 827 615 827 598 816 c 128,-1,96
 581 805 581 805 564 794 c 1,97,98
 587 728 587 728 618 662 c 128,-1,99
 649 596 649 596 685 532 c 128,-1,100
 721 468 721 468 760 408.5 c 128,-1,101
 799 349 799 349 838 297 c 1,102,103
 870 342 870 342 890 389.5 c 128,-1,104
 910 437 910 437 918 481 c 1,105,106
 925 529 925 529 917.5 570 c 128,-1,107
 910 611 910 611 893 641 c 128,-1,108
 876 671 876 671 852 688 c 128,-1,109
 828 705 828 705 801 705 c 1,110,-1
 784 733 l 1,111,112
 797 746 797 746 817.5 761 c 128,-1,113
 838 776 838 776 858 784 c 1,114,-1
 1257 784 l 1,115,-1
 1274 748 l 1,116,-1
 1274 748 l 1,38,39
EndSplineSet
EndChar

StartChar: quotesingle
Encoding: 39 39 7
Width: 410
Flags: W
LayerCount: 2
Fore
SplineSet
305 874 m 1,0,1
 288 865 288 865 270.5 861.5 c 128,-1,2
 253 858 253 858 231 858 c 1,3,-1
 264 1382 l 1,4,5
 276 1388 276 1388 292 1395.5 c 128,-1,6
 308 1403 308 1403 324.5 1409.5 c 128,-1,7
 341 1416 341 1416 356.5 1421.5 c 128,-1,8
 372 1427 372 1427 383 1430 c 1,9,-1
 420 1409 l 1,10,-1
 305 874 l 1,0,1
EndSplineSet
EndChar

StartChar: parenleft
Encoding: 40 40 8
Width: 604
Flags: W
LayerCount: 2
Fore
SplineSet
705 1559 m 1,0,1
 636 1511 636 1511 570.5 1426.5 c 128,-1,2
 505 1342 505 1342 449 1228 c 128,-1,3
 393 1114 393 1114 350.5 973 c 128,-1,4
 308 832 308 832 285 672 c 0,5,6
 265 526 265 526 266.5 385 c 128,-1,7
 268 244 268 244 289 120 c 128,-1,8
 310 -4 310 -4 350.5 -105 c 128,-1,9
 391 -206 391 -206 449 -270 c 1,10,-1
 412 -315 l 1,11,12
 318 -265 318 -265 253 -169 c 128,-1,13
 188 -73 188 -73 151.5 54 c 128,-1,14
 115 181 115 181 108.5 331.5 c 128,-1,15
 102 482 102 482 125 641 c 0,16,17
 148 805 148 805 198.5 957.5 c 128,-1,18
 249 1110 249 1110 321.5 1237.5 c 128,-1,19
 394 1365 394 1365 485.5 1460 c 128,-1,20
 577 1555 577 1555 682 1604 c 1,21,-1
 705 1559 l 1,22,-1
 705 1559 l 1,0,1
EndSplineSet
EndChar

StartChar: parenright
Encoding: 41 41 9
Width: 604
Flags: W
LayerCount: 2
Fore
SplineSet
500 627 m 0,0,1
 477 462 477 462 426 313 c 128,-1,2
 375 164 375 164 302.5 40.5 c 128,-1,3
 230 -83 230 -83 138.5 -174.5 c 128,-1,4
 47 -266 47 -266 -57 -315 c 1,5,-1
 -82 -270 l 1,6,7
 -14 -222 -14 -222 52 -140.5 c 128,-1,8
 118 -59 118 -59 174.5 51.5 c 128,-1,9
 231 162 231 162 274 299.5 c 128,-1,10
 317 437 317 437 340 598 c 0,11,12
 360 743 360 743 358.5 887 c 128,-1,13
 357 1031 357 1031 335.5 1158.5 c 128,-1,14
 314 1286 314 1286 274 1390 c 128,-1,15
 234 1494 234 1494 176 1559 c 1,16,-1
 213 1604 l 1,17,18
 307 1554 307 1554 371.5 1454.5 c 128,-1,19
 436 1355 436 1355 472 1224 c 128,-1,20
 508 1093 508 1093 515 939.5 c 128,-1,21
 522 786 522 786 500 627 c 0,0,1
EndSplineSet
EndChar

StartChar: asterisk
Encoding: 42 42 10
Width: 725
Flags: W
LayerCount: 2
Fore
SplineSet
415 1188 m 1,0,-1
 686 1384 l 1,1,2
 695 1377 695 1377 706 1369 c 128,-1,3
 717 1361 717 1361 728.5 1352 c 128,-1,4
 740 1343 740 1343 749.5 1334 c 128,-1,5
 759 1325 759 1325 764 1317 c 1,6,-1
 760 1276 l 1,7,-1
 436 1134 l 1,8,-1
 698 1006 l 1,9,10
 693 981 693 981 687 947 c 128,-1,11
 681 913 681 913 672 891 c 1,12,-1
 635 868 l 1,13,-1
 401 1081 l 1,14,-1
 391 756 l 1,15,16
 380 750 380 750 366 742.5 c 128,-1,17
 352 735 352 735 338 728.5 c 128,-1,18
 324 722 324 722 310.5 716.5 c 128,-1,19
 297 711 297 711 287 709 c 1,20,-1
 256 727 l 1,21,-1
 343 1079 l 1,22,-1
 72 883 l 1,23,24
 53 897 53 897 29 916 c 128,-1,25
 5 935 5 935 -6 950 c 1,26,-1
 0 993 l 1,27,-1
 321 1133 l 1,28,-1
 59 1262 l 1,29,30
 62 1274 62 1274 64.5 1289.5 c 128,-1,31
 67 1305 67 1305 70.5 1321 c 128,-1,32
 74 1337 74 1337 77.5 1351.5 c 128,-1,33
 81 1366 81 1366 86 1376 c 1,34,-1
 123 1399 l 1,35,-1
 356 1188 l 1,36,-1
 367 1513 l 1,37,38
 377 1519 377 1519 390.5 1526 c 128,-1,39
 404 1533 404 1533 418.5 1540 c 128,-1,40
 433 1547 433 1547 446.5 1552.5 c 128,-1,41
 460 1558 460 1558 471 1561 c 1,42,-1
 504 1540 l 1,43,-1
 415 1188 l 1,0,-1
EndSplineSet
EndChar

StartChar: plus
Encoding: 43 43 11
Width: 780
Flags: W
LayerCount: 2
Fore
SplineSet
725 594 m 1,0,1
 719 574 719 574 707 548.5 c 128,-1,2
 695 523 695 523 686 506 c 1,3,-1
 440 506 l 1,4,-1
 401 236 l 1,5,6
 392 231 392 231 379.5 226.5 c 128,-1,7
 367 222 367 222 354 218 c 128,-1,8
 341 214 341 214 328 210.5 c 128,-1,9
 315 207 315 207 305 205 c 1,10,-1
 285 227 l 1,11,-1
 324 506 l 1,12,-1
 70 506 l 1,13,-1
 51 530 l 1,14,15
 59 550 59 550 70 574 c 128,-1,16
 81 598 81 598 92 618 c 1,17,-1
 340 618 l 1,18,-1
 379 891 l 1,19,20
 396 897 396 897 425.5 906 c 128,-1,21
 455 915 455 915 475 920 c 1,22,-1
 496 897 l 1,23,-1
 456 618 l 1,24,-1
 707 618 l 1,25,-1
 725 594 l 1,26,-1
 725 594 l 1,0,1
EndSplineSet
EndChar

StartChar: comma
Encoding: 44 44 12
Width: 410
Flags: W
LayerCount: 2
Fore
SplineSet
303 102 m 0,0,1
 303 77 303 77 291.5 42.5 c 128,-1,2
 280 8 280 8 259.5 -30 c 128,-1,3
 239 -68 239 -68 212 -108 c 128,-1,4
 185 -148 185 -148 153 -185 c 128,-1,5
 121 -222 121 -222 86 -253 c 128,-1,6
 51 -284 51 -284 16 -305 c 1,7,-1
 -18 -270 l 1,8,9
 135 -108 135 -108 135 0 c 0,10,11
 135 18 135 18 129.5 35.5 c 128,-1,12
 124 53 124 53 111.5 65 c 128,-1,13
 99 77 99 77 78.5 82.5 c 128,-1,14
 58 88 58 88 27 84 c 1,15,-1
 18 129 l 1,16,17
 29 141 29 141 58.5 158 c 128,-1,18
 88 175 88 175 122.5 191 c 128,-1,19
 157 207 157 207 189.5 218.5 c 128,-1,20
 222 230 222 230 238 229 c 1,21,22
 256 219 256 219 268 209.5 c 128,-1,23
 280 200 280 200 288 186.5 c 128,-1,24
 296 173 296 173 299.5 153 c 128,-1,25
 303 133 303 133 303 102 c 0,0,1
EndSplineSet
EndChar

StartChar: hyphen
Encoding: 45 45 13
Width: 641
Flags: W
LayerCount: 2
Fore
SplineSet
580 541 m 1,0,1
 572 519 572 519 560 495.5 c 128,-1,2
 548 472 548 472 539 455 c 1,3,-1
 61 455 l 1,4,-1
 43 479 l 1,5,6
 51 501 51 501 62.5 523 c 128,-1,7
 74 545 74 545 86 565 c 1,8,-1
 561 565 l 1,9,-1
 580 541 l 1,10,-1
 580 541 l 1,0,1
EndSplineSet
EndChar

StartChar: period
Encoding: 46 46 14
Width: 410
Flags: W
LayerCount: 2
Fore
SplineSet
283 152 m 0,0,1
 283 121 283 121 272.5 88.5 c 128,-1,2
 262 56 262 56 242.5 29.5 c 128,-1,3
 223 3 223 3 196 -14 c 128,-1,4
 169 -31 169 -31 135 -31 c 0,5,6
 95 -31 95 -31 73 -4 c 128,-1,7
 51 23 51 23 51 68 c 0,8,9
 51 97 51 97 62.5 128.5 c 128,-1,10
 74 160 74 160 94.5 186 c 128,-1,11
 115 212 115 212 142 229 c 128,-1,12
 169 246 169 246 201 246 c 0,13,14
 238 246 238 246 260.5 220 c 128,-1,15
 283 194 283 194 283 152 c 0,0,1
EndSplineSet
EndChar

StartChar: slash
Encoding: 47 47 15
Width: 819
Flags: W
LayerCount: 2
Fore
SplineSet
43 -285 m 1,0,1
 33 -292 33 -292 17 -299.5 c 128,-1,2
 1 -307 1 -307 -17 -313.5 c 128,-1,3
 -35 -320 -35 -320 -52.5 -326 c 128,-1,4
 -70 -332 -70 -332 -82 -336 c 1,5,-1
 -111 -311 l 1,6,-1
 793 1550 l 1,7,8
 820 1567 820 1567 852 1579 c 128,-1,9
 884 1591 884 1591 913 1599 c 1,10,-1
 944 1577 l 1,11,-1
 43 -285 l 1,0,1
EndSplineSet
EndChar

StartChar: zero
Encoding: 48 48 16
Width: 823
Flags: W
LayerCount: 2
Fore
SplineSet
649 786 m 0,0,1
 649 868 649 868 635.5 930.5 c 128,-1,2
 622 993 622 993 598.5 1035 c 128,-1,3
 575 1077 575 1077 543.5 1098.5 c 128,-1,4
 512 1120 512 1120 477 1120 c 0,5,6
 421 1120 421 1120 378.5 1082.5 c 128,-1,7
 336 1045 336 1045 305 985 c 128,-1,8
 274 925 274 925 253.5 850 c 128,-1,9
 233 775 233 775 221 699.5 c 128,-1,10
 209 624 209 624 204 555.5 c 128,-1,11
 199 487 199 487 199 440 c 0,12,13
 199 264 199 264 245.5 175 c 128,-1,14
 292 86 292 86 373 86 c 0,15,16
 431 86 431 86 474 124.5 c 128,-1,17
 517 163 517 163 547.5 225 c 128,-1,18
 578 287 578 287 597.5 364.5 c 128,-1,19
 617 442 617 442 628.5 520 c 128,-1,20
 640 598 640 598 644.5 668 c 128,-1,21
 649 738 649 738 649 786 c 0,0,1
803 784 m 0,22,23
 803 724 803 724 797 655.5 c 128,-1,24
 791 587 791 587 776 515 c 128,-1,25
 761 443 761 443 735.5 371.5 c 128,-1,26
 710 300 710 300 672 236 c 0,27,28
 639 180 639 180 601.5 131.5 c 128,-1,29
 564 83 564 83 521 47 c 128,-1,30
 478 11 478 11 427.5 -10 c 128,-1,31
 377 -31 377 -31 319 -31 c 0,32,33
 249 -31 249 -31 198 3.5 c 128,-1,34
 147 38 147 38 113.5 98.5 c 128,-1,35
 80 159 80 159 63.5 242 c 128,-1,36
 47 325 47 325 47 422 c 0,37,38
 47 480 47 480 53.5 547 c 128,-1,39
 60 614 60 614 74.5 683.5 c 128,-1,40
 89 753 89 753 113 824 c 128,-1,41
 137 895 137 895 172 961 c 0,42,43
 203 1018 203 1018 240.5 1068 c 128,-1,44
 278 1118 278 1118 322 1155 c 128,-1,45
 366 1192 366 1192 417 1213.5 c 128,-1,46
 468 1235 468 1235 528 1235 c 0,47,48
 598 1235 598 1235 650 1201 c 128,-1,49
 702 1167 702 1167 736 1107 c 128,-1,50
 770 1047 770 1047 786.5 964 c 128,-1,51
 803 881 803 881 803 784 c 0,22,23
EndSplineSet
EndChar

StartChar: one
Encoding: 49 49 17
Width: 823
Flags: W
LayerCount: 2
Fore
SplineSet
666 0 m 1,0,-1
 63 0 l 1,1,-1
 70 53 l 1,2,3
 142 62 142 62 190.5 73.5 c 128,-1,4
 239 85 239 85 268.5 97 c 128,-1,5
 298 109 298 109 311 120.5 c 128,-1,6
 324 132 324 132 326 143 c 2,7,-1
 434 940 l 2,8,9
 440 980 440 980 440.5 1002 c 128,-1,10
 441 1024 441 1024 432 1038 c 0,11,12
 427 1044 427 1044 412.5 1048 c 128,-1,13
 398 1052 398 1052 369.5 1051 c 128,-1,14
 341 1050 341 1050 298 1044 c 128,-1,15
 255 1038 255 1038 195 1024 c 1,16,-1
 182 1075 l 1,17,18
 221 1087 221 1087 275.5 1108 c 128,-1,19
 330 1129 330 1129 386.5 1153.5 c 128,-1,20
 443 1178 443 1178 494.5 1202.5 c 128,-1,21
 546 1227 546 1227 578 1245 c 1,22,-1
 606 1210 l 1,23,-1
 461 143 l 2,24,25
 459 133 459 133 467.5 121.5 c 128,-1,26
 476 110 476 110 499.5 98 c 128,-1,27
 523 86 523 86 565 74 c 128,-1,28
 607 62 607 62 674 53 c 1,29,-1
 666 0 l 1,0,-1
EndSplineSet
EndChar

StartChar: two
Encoding: 50 50 18
Width: 823
Flags: W
LayerCount: 2
Fore
SplineSet
784 1006 m 0,0,1
 784 944 784 944 756 868 c 128,-1,2
 728 792 728 792 658 688 c 128,-1,3
 588 584 588 584 468 444.5 c 128,-1,4
 348 305 348 305 164 115 c 1,5,-1
 539 115 l 2,6,7
 562 115 562 115 581.5 134 c 128,-1,8
 601 153 601 153 614.5 179.5 c 128,-1,9
 628 206 628 206 638 234 c 128,-1,10
 648 262 648 262 652.5 280 c 128,-1,11
 657 298 657 298 657 299 c 2,12,-1
 700 287 l 1,13,-1
 649 0 l 1,14,-1
 14 0 l 1,15,-1
 0 74 l 1,16,17
 182 255 182 255 305 395 c 128,-1,18
 428 535 428 535 502.5 643.5 c 128,-1,19
 577 752 577 752 609 833 c 128,-1,20
 641 914 641 914 641 977 c 0,21,22
 641 1049 641 1049 596 1095 c 128,-1,23
 551 1141 551 1141 467 1141 c 0,24,25
 430 1141 430 1141 399.5 1122 c 128,-1,26
 369 1103 369 1103 346.5 1073 c 128,-1,27
 324 1043 324 1043 309.5 1006 c 128,-1,28
 295 969 295 969 291 934 c 1,29,30
 275 925 275 925 261.5 917 c 128,-1,31
 248 909 248 909 234 902.5 c 128,-1,32
 220 896 220 896 204.5 891.5 c 128,-1,33
 189 887 189 887 168 885 c 1,34,-1
 147 915 l 1,35,36
 154 967 154 967 190.5 1023.5 c 128,-1,37
 227 1080 227 1080 281.5 1127 c 128,-1,38
 336 1174 336 1174 404 1204.5 c 128,-1,39
 472 1235 472 1235 541 1235 c 0,40,41
 591 1235 591 1235 635 1221.5 c 128,-1,42
 679 1208 679 1208 712 1180 c 128,-1,43
 745 1152 745 1152 764.5 1109 c 128,-1,44
 784 1066 784 1066 784 1006 c 0,0,1
EndSplineSet
EndChar

StartChar: three
Encoding: 51 51 19
Width: 823
Flags: W
LayerCount: 2
Fore
SplineSet
733 1001 m 0,0,1
 733 947 733 947 715.5 900.5 c 128,-1,2
 698 854 698 854 667 815.5 c 128,-1,3
 636 777 636 777 594 747.5 c 128,-1,4
 552 718 552 718 504 698 c 1,5,6
 549 692 549 692 587 668 c 128,-1,7
 625 644 625 644 652 607 c 128,-1,8
 679 570 679 570 694 524 c 128,-1,9
 709 478 709 478 709 428 c 0,10,11
 709 334 709 334 678 250.5 c 128,-1,12
 647 167 647 167 590 104.5 c 128,-1,13
 533 42 533 42 452 5.5 c 128,-1,14
 371 -31 371 -31 270 -31 c 0,15,16
 199 -31 199 -31 131 4.5 c 128,-1,17
 63 40 63 40 -12 119 c 1,18,-1
 27 186 l 1,19,20
 65 152 65 152 95.5 130 c 128,-1,21
 126 108 126 108 154 95 c 128,-1,22
 182 82 182 82 210.5 77 c 128,-1,23
 239 72 239 72 274 72 c 0,24,25
 345 72 345 72 398.5 99 c 128,-1,26
 452 126 452 126 488 172 c 128,-1,27
 524 218 524 218 542.5 277 c 128,-1,28
 561 336 561 336 561 401 c 0,29,30
 561 459 561 459 543.5 501 c 128,-1,31
 526 543 526 543 498 570 c 128,-1,32
 470 597 470 597 434 610 c 128,-1,33
 398 623 398 623 362 623 c 0,34,35
 350 623 350 623 344 623 c 0,36,37
 339 623 339 623 334.5 622 c 128,-1,38
 330 621 330 621 323.5 620 c 128,-1,39
 317 619 317 619 303 616 c 1,40,-1
 297 676 l 1,41,42
 355 693 355 693 408 716.5 c 128,-1,43
 461 740 461 740 501.5 775 c 128,-1,44
 542 810 542 810 566 858.5 c 128,-1,45
 590 907 590 907 590 973 c 0,46,47
 590 1004 590 1004 581.5 1034.5 c 128,-1,48
 573 1065 573 1065 555 1088.5 c 128,-1,49
 537 1112 537 1112 508.5 1126.5 c 128,-1,50
 480 1141 480 1141 440 1141 c 0,51,52
 405 1141 405 1141 376.5 1127.5 c 128,-1,53
 348 1114 348 1114 327.5 1091 c 128,-1,54
 307 1068 307 1068 296.5 1037.5 c 128,-1,55
 286 1007 286 1007 287 973 c 1,56,57
 253 956 253 956 223.5 946.5 c 128,-1,58
 194 937 194 937 156 934 c 1,59,-1
 135 965 l 1,60,61
 141 1007 141 1007 174.5 1054.5 c 128,-1,62
 208 1102 208 1102 258 1142 c 128,-1,63
 308 1182 308 1182 370 1208.5 c 128,-1,64
 432 1235 432 1235 496 1235 c 0,65,66
 556 1235 556 1235 601 1215.5 c 128,-1,67
 646 1196 646 1196 675 1163.5 c 128,-1,68
 704 1131 704 1131 718.5 1088.5 c 128,-1,69
 733 1046 733 1046 733 1001 c 0,0,1
EndSplineSet
EndChar

StartChar: four
Encoding: 52 52 20
Width: 823
Flags: W
LayerCount: 2
Fore
SplineSet
162 455 m 1,0,-1
 500 455 l 1,1,-1
 580 1040 l 1,2,-1
 162 455 l 1,0,-1
756 426 m 1,3,4
 744 411 744 411 733.5 400 c 128,-1,5
 723 389 723 389 713 381 c 128,-1,6
 703 373 703 373 693.5 366 c 128,-1,7
 684 359 684 359 674 350 c 1,8,-1
 610 350 l 1,9,-1
 578 104 l 2,10,11
 576 96 576 96 580.5 89.5 c 128,-1,12
 585 83 585 83 598 75.5 c 128,-1,13
 611 68 611 68 634.5 60 c 128,-1,14
 658 52 658 52 694 43 c 1,15,-1
 688 0 l 1,16,-1
 248 0 l 1,17,-1
 254 43 l 1,18,19
 313 54 313 54 351 63.5 c 128,-1,20
 389 73 389 73 411 81.5 c 128,-1,21
 433 90 433 90 442 98 c 128,-1,22
 451 106 451 106 453 115 c 2,23,-1
 483 350 l 1,24,-1
 39 350 l 1,25,-1
 12 383 l 1,26,-1
 565 1174 l 1,27,28
 607 1192 607 1192 640 1211 c 128,-1,29
 673 1230 673 1230 700 1245 c 1,30,-1
 727 1210 l 1,31,-1
 625 457 l 1,32,-1
 733 457 l 1,33,-1
 756 426 l 1,34,-1
 756 426 l 1,3,4
EndSplineSet
EndChar

StartChar: five
Encoding: 53 53 21
Width: 823
Flags: W
LayerCount: 2
Fore
SplineSet
799 1194 m 1,0,1
 787 1178 787 1178 772 1161 c 128,-1,2
 757 1144 757 1144 742 1129 c 128,-1,3
 727 1114 727 1114 712.5 1101 c 128,-1,4
 698 1088 698 1088 686 1079 c 1,5,-1
 338 1079 l 1,6,7
 332 1050 332 1050 320.5 1003.5 c 128,-1,8
 309 957 309 957 296 909 c 128,-1,9
 283 861 283 861 271 818.5 c 128,-1,10
 259 776 259 776 252 754 c 1,11,12
 289 766 289 766 338.5 773 c 128,-1,13
 388 780 388 780 434 780 c 0,14,15
 503 780 503 780 557 755 c 128,-1,16
 611 730 611 730 647.5 688 c 128,-1,17
 684 646 684 646 703.5 591 c 128,-1,18
 723 536 723 536 723 477 c 0,19,20
 723 417 723 417 710 356.5 c 128,-1,21
 697 296 697 296 672.5 239.5 c 128,-1,22
 648 183 648 183 612 133.5 c 128,-1,23
 576 84 576 84 529.5 47.5 c 128,-1,24
 483 11 483 11 426 -10 c 128,-1,25
 369 -31 369 -31 303 -31 c 0,26,27
 220 -31 220 -31 143.5 4.5 c 128,-1,28
 67 40 67 40 -4 119 c 1,29,-1
 37 186 l 1,30,31
 82 151 82 151 118.5 128.5 c 128,-1,32
 155 106 155 106 186 93.5 c 128,-1,33
 217 81 217 81 243 76.5 c 128,-1,34
 269 72 269 72 295 72 c 0,35,36
 370 72 370 72 423 105.5 c 128,-1,37
 476 139 476 139 509.5 192 c 128,-1,38
 543 245 543 245 559 311.5 c 128,-1,39
 575 378 575 378 575 444 c 0,40,41
 575 493 575 493 561 534.5 c 128,-1,42
 547 576 547 576 520 606 c 128,-1,43
 493 636 493 636 454 653 c 128,-1,44
 415 670 415 670 365 670 c 0,45,46
 263 670 263 670 156 590 c 1,47,-1
 119 623 l 1,48,49
 129 659 129 659 142.5 706.5 c 128,-1,50
 156 754 156 754 171 807 c 128,-1,51
 186 860 186 860 201 915 c 128,-1,52
 216 970 216 970 229.5 1022.5 c 128,-1,53
 243 1075 243 1075 254 1122 c 128,-1,54
 265 1169 265 1169 272 1204 c 1,55,-1
 666 1204 l 2,56,57
 698 1204 698 1204 724 1209 c 128,-1,58
 750 1214 750 1214 762 1218 c 128,-1,59
 774 1222 774 1222 776 1223 c 1,60,-1
 799 1194 l 1,61,-1
 799 1194 l 1,0,1
EndSplineSet
EndChar

StartChar: six
Encoding: 54 54 22
Width: 823
Flags: W
LayerCount: 2
Fore
SplineSet
451 659 m 0,0,1
 393 659 393 659 339 632 c 128,-1,2
 285 605 285 605 228 539 c 1,3,4
 221 497 221 497 218 456 c 128,-1,5
 215 415 215 415 215 373 c 0,6,7
 215 223 215 223 268 149.5 c 128,-1,8
 321 76 321 76 412 76 c 0,9,10
 452 76 452 76 483.5 92.5 c 128,-1,11
 515 109 515 109 538 137 c 128,-1,12
 561 165 561 165 577 201 c 128,-1,13
 593 237 593 237 602.5 275 c 128,-1,14
 612 313 612 313 616.5 351.5 c 128,-1,15
 621 390 621 390 621 422 c 0,16,17
 621 493 621 493 605.5 539 c 128,-1,18
 590 585 590 585 565.5 611.5 c 128,-1,19
 541 638 541 638 511 648.5 c 128,-1,20
 481 659 481 659 451 659 c 0,0,1
799 1190 m 1,21,22
 691 1167 691 1167 603 1116.5 c 128,-1,23
 515 1066 515 1066 446.5 995.5 c 128,-1,24
 378 925 378 925 330 838 c 128,-1,25
 282 751 282 751 254 655 c 1,26,27
 323 720 323 720 387 745 c 128,-1,28
 451 770 451 770 504 770 c 0,29,30
 632 770 632 770 697 694 c 128,-1,31
 762 618 762 618 762 483 c 0,32,33
 762 429 762 429 749.5 369.5 c 128,-1,34
 737 310 737 310 712.5 253 c 128,-1,35
 688 196 688 196 653 144.5 c 128,-1,36
 618 93 618 93 573.5 54 c 128,-1,37
 529 15 529 15 475 -8 c 128,-1,38
 421 -31 421 -31 360 -31 c 0,39,40
 295 -31 295 -31 241.5 -2.5 c 128,-1,41
 188 26 188 26 149.5 77.5 c 128,-1,42
 111 129 111 129 89.5 201 c 128,-1,43
 68 273 68 273 68 360 c 0,44,45
 68 468 68 468 90.5 571.5 c 128,-1,46
 113 675 113 675 156.5 768.5 c 128,-1,47
 200 862 200 862 262.5 943 c 128,-1,48
 325 1024 325 1024 405.5 1087 c 128,-1,49
 486 1150 486 1150 583 1192 c 128,-1,50
 680 1234 680 1234 791 1249 c 1,51,-1
 799 1190 l 1,52,-1
 799 1190 l 1,21,22
EndSplineSet
EndChar

StartChar: seven
Encoding: 55 55 23
Width: 823
Flags: W
LayerCount: 2
Fore
SplineSet
866 1167 m 1,0,1
 810 1060 810 1060 753 949.5 c 128,-1,2
 696 839 696 839 641 732 c 128,-1,3
 586 625 586 625 535.5 524 c 128,-1,4
 485 423 485 423 441.5 333.5 c 128,-1,5
 398 244 398 244 363 170 c 128,-1,6
 328 96 328 96 305 43 c 1,7,8
 239 -5 239 -5 150 -31 c 1,9,-1
 117 2 l 1,10,11
 215 155 215 155 296.5 295 c 128,-1,12
 378 435 378 435 450 567 c 128,-1,13
 522 699 522 699 587.5 825.5 c 128,-1,14
 653 952 653 952 721 1079 c 1,15,-1
 311 1079 l 2,16,17
 298 1079 298 1079 284.5 1077.5 c 128,-1,18
 271 1076 271 1076 255 1062.5 c 128,-1,19
 239 1049 239 1049 218.5 1018.5 c 128,-1,20
 198 988 198 988 170 930 c 1,21,-1
 133 948 l 1,22,23
 139 971 139 971 148.5 1005.5 c 128,-1,24
 158 1040 158 1040 168 1077 c 128,-1,25
 178 1114 178 1114 188 1148 c 128,-1,26
 198 1182 198 1182 207 1204 c 1,27,-1
 842 1204 l 1,28,-1
 866 1167 l 1,29,-1
 866 1167 l 1,0,1
EndSplineSet
EndChar

StartChar: eight
Encoding: 56 56 24
Width: 823
Flags: W
LayerCount: 2
Fore
SplineSet
287 940 m 0,0,1
 287 901 287 901 304 871 c 128,-1,2
 321 841 321 841 349.5 816 c 128,-1,3
 378 791 378 791 415 769 c 128,-1,4
 452 747 452 747 491 725 c 1,5,6
 524 747 524 747 552 772.5 c 128,-1,7
 580 798 580 798 600 828.5 c 128,-1,8
 620 859 620 859 631.5 895 c 128,-1,9
 643 931 643 931 643 975 c 0,10,11
 643 1056 643 1056 596 1098.5 c 128,-1,12
 549 1141 549 1141 471 1141 c 0,13,14
 431 1141 431 1141 397.5 1124 c 128,-1,15
 364 1107 364 1107 339.5 1079 c 128,-1,16
 315 1051 315 1051 301 1014.5 c 128,-1,17
 287 978 287 978 287 940 c 0,0,1
592 342 m 0,18,19
 592 397 592 397 574.5 437 c 128,-1,20
 557 477 557 477 528 508 c 128,-1,21
 499 539 499 539 462 563.5 c 128,-1,22
 425 588 425 588 386 611 c 1,23,24
 337 578 337 578 298.5 544 c 128,-1,25
 260 510 260 510 233 470 c 128,-1,26
 206 430 206 430 192 382.5 c 128,-1,27
 178 335 178 335 178 274 c 0,28,29
 178 231 178 231 191 194 c 128,-1,30
 204 157 204 157 229 129.5 c 128,-1,31
 254 102 254 102 289 86 c 128,-1,32
 324 70 324 70 369 70 c 0,33,34
 424 70 424 70 466 94.5 c 128,-1,35
 508 119 508 119 536 158 c 128,-1,36
 564 197 564 197 578 245.5 c 128,-1,37
 592 294 592 294 592 342 c 0,18,19
778 1001 m 0,38,39
 778 946 778 946 759 900 c 128,-1,40
 740 854 740 854 709 816 c 128,-1,41
 678 778 678 778 637.5 746 c 128,-1,42
 597 714 597 714 555 687 c 1,43,44
 592 664 592 664 625.5 636.5 c 128,-1,45
 659 609 659 609 684.5 574.5 c 128,-1,46
 710 540 710 540 725.5 496 c 128,-1,47
 741 452 741 452 741 397 c 0,48,49
 741 312 741 312 706 234.5 c 128,-1,50
 671 157 671 157 611.5 98 c 128,-1,51
 552 39 552 39 474 4 c 128,-1,52
 396 -31 396 -31 311 -31 c 0,53,54
 242 -31 242 -31 190 -8 c 128,-1,55
 138 15 138 15 103 54 c 128,-1,56
 68 93 68 93 50.5 143.5 c 128,-1,57
 33 194 33 194 33 250 c 0,58,59
 33 319 33 319 58 378 c 128,-1,60
 83 437 83 437 123.5 486.5 c 128,-1,61
 164 536 164 536 216.5 576.5 c 128,-1,62
 269 617 269 617 324 647 c 1,63,64
 292 667 292 667 263 689.5 c 128,-1,65
 234 712 234 712 212 741 c 128,-1,66
 190 770 190 770 177 806 c 128,-1,67
 164 842 164 842 164 889 c 0,68,69
 164 962 164 962 194.5 1025.5 c 128,-1,70
 225 1089 225 1089 276 1135.5 c 128,-1,71
 327 1182 327 1182 393 1208.5 c 128,-1,72
 459 1235 459 1235 530 1235 c 0,73,74
 591 1235 591 1235 637.5 1217.5 c 128,-1,75
 684 1200 684 1200 715.5 1169 c 128,-1,76
 747 1138 747 1138 762.5 1095 c 128,-1,77
 778 1052 778 1052 778 1001 c 0,38,39
EndSplineSet
EndChar

StartChar: nine
Encoding: 57 57 25
Width: 823
Flags: W
LayerCount: 2
Fore
SplineSet
420 555 m 0,0,1
 494 555 494 555 548.5 593 c 128,-1,2
 603 631 603 631 645 693 c 1,3,4
 649 728 649 728 651 763.5 c 128,-1,5
 653 799 653 799 653 836 c 0,6,7
 653 917 653 917 638 973 c 128,-1,8
 623 1029 623 1029 599 1064 c 128,-1,9
 575 1099 575 1099 544.5 1114.5 c 128,-1,10
 514 1130 514 1130 483 1130 c 0,11,12
 438 1130 438 1130 402.5 1113.5 c 128,-1,13
 367 1097 367 1097 340.5 1069.5 c 128,-1,14
 314 1042 314 1042 295.5 1005.5 c 128,-1,15
 277 969 277 969 265.5 929 c 128,-1,16
 254 889 254 889 249 848 c 128,-1,17
 244 807 244 807 244 770 c 0,18,19
 244 705 244 705 261.5 663 c 128,-1,20
 279 621 279 621 305 597 c 128,-1,21
 331 573 331 573 362 564 c 128,-1,22
 393 555 393 555 420 555 c 0,0,1
803 862 m 0,23,24
 803 691 803 691 755 537 c 128,-1,25
 707 383 707 383 614.5 261.5 c 128,-1,26
 522 140 522 140 386.5 60 c 128,-1,27
 251 -20 251 -20 76 -43 c 1,28,-1
 68 16 l 1,29,30
 186 43 186 43 278.5 95 c 128,-1,31
 371 147 371 147 440 219 c 128,-1,32
 509 291 509 291 554.5 380.5 c 128,-1,33
 600 470 600 470 624 574 c 1,34,35
 572 515 572 515 506.5 479.5 c 128,-1,36
 441 444 441 444 367 444 c 0,37,38
 307 444 307 444 258.5 465 c 128,-1,39
 210 486 210 486 175.5 523.5 c 128,-1,40
 141 561 141 561 122.5 612.5 c 128,-1,41
 104 664 104 664 104 725 c 0,42,43
 104 781 104 781 119 841 c 128,-1,44
 134 901 134 901 161 957.5 c 128,-1,45
 188 1014 188 1014 227 1064.5 c 128,-1,46
 266 1115 266 1115 314 1153 c 128,-1,47
 362 1191 362 1191 417.5 1213 c 128,-1,48
 473 1235 473 1235 535 1235 c 0,49,50
 589 1235 589 1235 638 1212.5 c 128,-1,51
 687 1190 687 1190 723.5 1144 c 128,-1,52
 760 1098 760 1098 781.5 1027.5 c 128,-1,53
 803 957 803 957 803 862 c 0,23,24
EndSplineSet
EndChar

StartChar: colon
Encoding: 58 58 26
Width: 410
Flags: W
LayerCount: 2
Fore
SplineSet
283 152 m 0,0,1
 283 121 283 121 272.5 88.5 c 128,-1,2
 262 56 262 56 242.5 29.5 c 128,-1,3
 223 3 223 3 196 -14 c 128,-1,4
 169 -31 169 -31 135 -31 c 0,5,6
 95 -31 95 -31 73 -4 c 128,-1,7
 51 23 51 23 51 68 c 0,8,9
 51 97 51 97 62.5 128.5 c 128,-1,10
 74 160 74 160 94.5 186 c 128,-1,11
 115 212 115 212 142 229 c 128,-1,12
 169 246 169 246 201 246 c 0,13,14
 238 246 238 246 260.5 220 c 128,-1,15
 283 194 283 194 283 152 c 0,0,1
383 866 m 0,16,17
 383 836 383 836 372.5 804 c 128,-1,18
 362 772 362 772 343 746 c 128,-1,19
 324 720 324 720 297 703 c 128,-1,20
 270 686 270 686 236 686 c 0,21,22
 195 686 195 686 173.5 712.5 c 128,-1,23
 152 739 152 739 152 784 c 0,24,25
 152 812 152 812 163.5 843.5 c 128,-1,26
 175 875 175 875 195 901 c 128,-1,27
 215 927 215 927 242 944 c 128,-1,28
 269 961 269 961 301 961 c 0,29,30
 338 961 338 961 360.5 935.5 c 128,-1,31
 383 910 383 910 383 866 c 0,16,17
EndSplineSet
EndChar

StartChar: semicolon
Encoding: 59 59 27
Width: 410
Flags: W
LayerCount: 2
Fore
SplineSet
383 866 m 0,0,1
 383 836 383 836 372.5 804 c 128,-1,2
 362 772 362 772 343 746 c 128,-1,3
 324 720 324 720 297 703 c 128,-1,4
 270 686 270 686 236 686 c 0,5,6
 195 686 195 686 173.5 712.5 c 128,-1,7
 152 739 152 739 152 784 c 0,8,9
 152 812 152 812 163.5 843.5 c 128,-1,10
 175 875 175 875 195 901 c 128,-1,11
 215 927 215 927 242 944 c 128,-1,12
 269 961 269 961 301 961 c 0,13,14
 338 961 338 961 360.5 935.5 c 128,-1,15
 383 910 383 910 383 866 c 0,0,1
303 102 m 0,16,17
 303 77 303 77 291.5 42.5 c 128,-1,18
 280 8 280 8 259.5 -30 c 128,-1,19
 239 -68 239 -68 212 -108 c 128,-1,20
 185 -148 185 -148 153 -185 c 128,-1,21
 121 -222 121 -222 86 -253 c 128,-1,22
 51 -284 51 -284 16 -305 c 1,23,-1
 -18 -270 l 1,24,25
 135 -108 135 -108 135 0 c 0,26,27
 135 18 135 18 129.5 35.5 c 128,-1,28
 124 53 124 53 111.5 65 c 128,-1,29
 99 77 99 77 78.5 82.5 c 128,-1,30
 58 88 58 88 27 84 c 1,31,-1
 18 129 l 1,32,33
 29 141 29 141 58.5 158 c 128,-1,34
 88 175 88 175 122.5 191 c 128,-1,35
 157 207 157 207 189.5 218.5 c 128,-1,36
 222 230 222 230 238 229 c 1,37,38
 256 219 256 219 268 209.5 c 128,-1,39
 280 200 280 200 288 186.5 c 128,-1,40
 296 173 296 173 299.5 153 c 128,-1,41
 303 133 303 133 303 102 c 0,16,17
EndSplineSet
EndChar

StartChar: less
Encoding: 60 60 28
Width: 838
Flags: W
LayerCount: 2
Fore
SplineSet
737 315 m 1,0,1
 726 305 726 305 717.5 298 c 128,-1,2
 709 291 709 291 700 285 c 128,-1,3
 691 279 691 279 680.5 272 c 128,-1,4
 670 265 670 265 655 256 c 1,5,-1
 74 502 l 1,6,-1
 51 530 l 1,7,8
 51 532 51 532 53 536 c 256,9,10
 55 540 55 540 55 540 c 2,11,12
 56 542 56 542 56.5 545 c 128,-1,13
 57 548 57 548 58 550 c 0,14,15
 60 555 60 555 61.5 560 c 128,-1,16
 63 565 63 565 65 570 c 0,17,18
 67 576 67 576 69.5 582 c 128,-1,19
 72 588 72 588 74 595 c 0,20,21
 76 600 76 600 78.5 604.5 c 128,-1,22
 81 609 81 609 83 614 c 0,23,24
 84 617 84 617 86 621 c 2,25,26
 86 621 86 621 88 625 c 1,27,-1
 803 899 l 1,28,-1
 821 874 l 1,29,30
 817 863 817 863 812.5 849 c 128,-1,31
 808 835 808 835 802.5 821 c 128,-1,32
 797 807 797 807 792 794 c 128,-1,33
 787 781 787 781 782 772 c 1,34,-1
 234 563 l 1,35,-1
 729 354 l 1,36,-1
 737 315 l 1,37,-1
 737 315 l 1,0,1
EndSplineSet
EndChar

StartChar: equal
Encoding: 61 61 29
Width: 838
Flags: W
LayerCount: 2
Fore
SplineSet
803 743 m 1,0,1
 795 723 795 723 783 697.5 c 128,-1,2
 771 672 771 672 762 655 c 1,3,-1
 90 655 l 1,4,-1
 72 680 l 1,5,6
 80 700 80 700 91 724.5 c 128,-1,7
 102 749 102 749 115 768 c 1,8,-1
 784 768 l 1,9,-1
 803 743 l 1,10,-1
 803 743 l 1,0,1
762 444 m 1,11,12
 754 423 754 423 742 398 c 128,-1,13
 730 373 730 373 721 354 c 1,14,-1
 47 354 l 1,15,-1
 31 381 l 1,16,17
 37 401 37 401 48 425 c 128,-1,18
 59 449 59 449 72 469 c 1,19,-1
 741 469 l 1,20,-1
 762 444 l 1,21,-1
 762 444 l 1,11,12
EndSplineSet
EndChar

StartChar: greater
Encoding: 62 62 30
Width: 838
Flags: W
LayerCount: 2
Fore
SplineSet
786 625 m 1,0,1
 784 621 784 621 782 613 c 0,2,3
 781 612 781 612 781 612 c 2,4,5
 782 612 782 612 781 611 c 0,6,7
 780 609 780 609 780 607 c 0,8,9
 780 606 780 606 779 604 c 256,10,11
 778 602 778 602 778 601 c 2,12,13
 778 601 778 601 777 599 c 0,14,15
 775 593 775 593 774 589 c 1,16,17
 772 586 772 586 771.5 583 c 128,-1,18
 771 580 771 580 769 577 c 1,19,20
 769 575 769 575 768 574 c 1,21,22
 768 571 768 571 766 569 c 1,23,24
 762 559 762 559 758.5 550.5 c 128,-1,25
 755 542 755 542 750 534 c 0,26,27
 748 530 748 530 748 530 c 1,28,-1
 35 256 l 1,29,-1
 16 281 l 1,30,31
 20 291 20 291 24.5 304.5 c 128,-1,32
 29 318 29 318 34 332.5 c 128,-1,33
 39 347 39 347 43.5 360.5 c 128,-1,34
 48 374 48 374 53 383 c 1,35,-1
 604 591 l 1,36,-1
 109 801 l 1,37,-1
 98 838 l 1,38,39
 110 848 110 848 118.5 855 c 128,-1,40
 127 862 127 862 135.5 869 c 128,-1,41
 144 876 144 876 154.5 883 c 128,-1,42
 165 890 165 890 180 899 c 1,43,-1
 764 651 l 1,44,-1
 786 625 l 1,45,-1
 786 625 l 1,0,1
EndSplineSet
EndChar

StartChar: question
Encoding: 63 63 31
Width: 813
Flags: W
LayerCount: 2
Fore
SplineSet
442 152 m 0,0,1
 442 121 442 121 431.5 88.5 c 128,-1,2
 421 56 421 56 401.5 29.5 c 128,-1,3
 382 3 382 3 354.5 -14 c 128,-1,4
 327 -31 327 -31 293 -31 c 0,5,6
 255 -31 255 -31 232 -4 c 128,-1,7
 209 23 209 23 209 68 c 0,8,9
 209 97 209 97 220.5 128.5 c 128,-1,10
 232 160 232 160 252 186 c 128,-1,11
 272 212 272 212 299 229 c 128,-1,12
 326 246 326 246 358 246 c 0,13,14
 397 246 397 246 419.5 220 c 128,-1,15
 442 194 442 194 442 152 c 0,0,1
809 1186 m 0,16,17
 809 1098 809 1098 783.5 1032 c 128,-1,18
 758 966 758 966 719 912 c 128,-1,19
 680 858 680 858 633.5 812 c 128,-1,20
 587 766 587 766 544.5 717 c 128,-1,21
 502 668 502 668 469.5 612.5 c 128,-1,22
 437 557 437 557 426 485 c 1,23,-1
 414 389 l 1,24,25
 395 375 395 375 380 365.5 c 128,-1,26
 365 356 365 356 340 348 c 1,27,-1
 317 369 l 1,28,-1
 322 485 l 1,29,30
 323 552 323 552 348 608 c 128,-1,31
 373 664 373 664 409.5 715 c 128,-1,32
 446 766 446 766 488 813.5 c 128,-1,33
 530 861 530 861 565.5 910 c 128,-1,34
 601 959 601 959 625 1012.5 c 128,-1,35
 649 1066 649 1066 649 1128 c 0,36,37
 649 1228 649 1228 605.5 1281.5 c 128,-1,38
 562 1335 562 1335 475 1335 c 0,39,40
 434 1335 434 1335 402 1316 c 128,-1,41
 370 1297 370 1297 350.5 1264.5 c 128,-1,42
 331 1232 331 1232 325 1189 c 128,-1,43
 319 1146 319 1146 328 1098 c 1,44,45
 306 1088 306 1088 288.5 1081.5 c 128,-1,46
 271 1075 271 1075 254.5 1070.5 c 128,-1,47
 238 1066 238 1066 221 1063.5 c 128,-1,48
 204 1061 204 1061 182 1059 c 1,49,-1
 162 1090 l 1,50,51
 162 1154 162 1154 190 1215 c 128,-1,52
 218 1276 218 1276 270 1324 c 128,-1,53
 322 1372 322 1372 395.5 1401 c 128,-1,54
 469 1430 469 1430 561 1430 c 0,55,56
 625 1430 625 1430 671.5 1411 c 128,-1,57
 718 1392 718 1392 748.5 1359 c 128,-1,58
 779 1326 779 1326 794 1281.5 c 128,-1,59
 809 1237 809 1237 809 1186 c 0,16,17
EndSplineSet
EndChar

StartChar: at
Encoding: 64 64 32
Width: 1593
Flags: W
LayerCount: 2
Fore
SplineSet
999 760 m 0,0,1
 999 763 999 763 1000 764 c 1,2,3
 985 776 985 776 968.5 787.5 c 128,-1,4
 952 799 952 799 933 809 c 128,-1,5
 914 819 914 819 893.5 825 c 128,-1,6
 873 831 873 831 850 831 c 0,7,8
 805 831 805 831 765.5 808.5 c 128,-1,9
 726 786 726 786 694 749 c 128,-1,10
 662 712 662 712 637 664.5 c 128,-1,11
 612 617 612 617 595.5 566.5 c 128,-1,12
 579 516 579 516 570 467 c 128,-1,13
 561 418 561 418 561 379 c 0,14,15
 561 314 561 314 572 262 c 128,-1,16
 583 210 583 210 601.5 173 c 128,-1,17
 620 136 620 136 645.5 116 c 128,-1,18
 671 96 671 96 700 96 c 0,19,20
 725 96 725 96 755.5 126 c 128,-1,21
 786 156 786 156 818 204 c 128,-1,22
 850 252 850 252 882 311 c 128,-1,23
 914 370 914 370 942 428 c 1,24,25
 949 474 949 474 957.5 525 c 128,-1,26
 966 576 966 576 974 621.5 c 128,-1,27
 982 667 982 667 989 704 c 128,-1,28
 996 741 996 741 999 760 c 0,0,1
1161 842 m 1,29,30
 1159 840 1159 840 1159 840 c 1,31,32
 1152 826 1152 826 1147 807 c 128,-1,33
 1142 788 1142 788 1137 760 c 0,34,35
 1122 688 1122 688 1109 612.5 c 128,-1,36
 1096 537 1096 537 1086.5 470 c 128,-1,37
 1077 403 1077 403 1072 352 c 128,-1,38
 1067 301 1067 301 1067 279 c 0,39,40
 1067 222 1067 222 1072 186 c 128,-1,41
 1077 150 1077 150 1085.5 129.5 c 128,-1,42
 1094 109 1094 109 1105 101.5 c 128,-1,43
 1116 94 1116 94 1128 94 c 0,44,45
 1153 94 1153 94 1191.5 127 c 128,-1,46
 1230 160 1230 160 1268 217 c 128,-1,47
 1306 274 1306 274 1337.5 349.5 c 128,-1,48
 1369 425 1369 425 1382 510 c 0,49,50
 1399 623 1399 623 1391 719 c 128,-1,51
 1383 815 1383 815 1354.5 893 c 128,-1,52
 1326 971 1326 971 1280.5 1031 c 128,-1,53
 1235 1091 1235 1091 1176.5 1131.5 c 128,-1,54
 1118 1172 1118 1172 1049.5 1193 c 128,-1,55
 981 1214 981 1214 907 1214 c 0,56,57
 815 1214 815 1214 732 1186.5 c 128,-1,58
 649 1159 649 1159 578 1110 c 128,-1,59
 507 1061 507 1061 448.5 994 c 128,-1,60
 390 927 390 927 345.5 848 c 128,-1,61
 301 769 301 769 271.5 681.5 c 128,-1,62
 242 594 242 594 229 504 c 0,63,64
 204 322 204 322 238.5 181 c 128,-1,65
 273 40 273 40 351.5 -57.5 c 128,-1,66
 430 -155 430 -155 545 -205.5 c 128,-1,67
 660 -256 660 -256 795 -256 c 0,68,69
 870 -256 870 -256 944 -238.5 c 128,-1,70
 1018 -221 1018 -221 1083 -194.5 c 128,-1,71
 1148 -168 1148 -168 1200 -138 c 128,-1,72
 1252 -108 1252 -108 1284 -82 c 1,73,-1
 1300 -137 l 1,74,75
 1262 -175 1262 -175 1204.5 -217 c 128,-1,76
 1147 -259 1147 -259 1074 -294 c 128,-1,77
 1001 -329 1001 -329 914.5 -352 c 128,-1,78
 828 -375 828 -375 731 -375 c 0,79,80
 565 -375 565 -375 433 -316 c 128,-1,81
 301 -257 301 -257 214 -147.5 c 128,-1,82
 127 -38 127 -38 91 117.5 c 128,-1,83
 55 273 55 273 82 465 c 0,84,85
 98 578 98 578 138.5 686 c 128,-1,86
 179 794 179 794 240 890 c 128,-1,87
 301 986 301 986 380.5 1067.5 c 128,-1,88
 460 1149 460 1149 552 1208 c 128,-1,89
 644 1267 644 1267 747.5 1300 c 128,-1,90
 851 1333 851 1333 961 1333 c 0,91,92
 1094 1333 1094 1333 1205 1281 c 128,-1,93
 1316 1229 1316 1229 1391 1128.5 c 128,-1,94
 1466 1028 1466 1028 1497 882 c 128,-1,95
 1528 736 1528 736 1501 549 c 0,96,97
 1489 463 1489 463 1460.5 385.5 c 128,-1,98
 1432 308 1432 308 1392 242.5 c 128,-1,99
 1352 177 1352 177 1305 124.5 c 128,-1,100
 1258 72 1258 72 1209 35 c 128,-1,101
 1160 -2 1160 -2 1112.5 -21.5 c 128,-1,102
 1065 -41 1065 -41 1026 -41 c 0,103,104
 1008 -41 1008 -41 990.5 -28.5 c 128,-1,105
 973 -16 973 -16 958.5 18.5 c 128,-1,106
 944 53 944 53 935 113.5 c 128,-1,107
 926 174 926 174 926 271 c 1,108,109
 901 226 901 226 868 171.5 c 128,-1,110
 835 117 835 117 797.5 69.5 c 128,-1,111
 760 22 760 22 719.5 -9.5 c 128,-1,112
 679 -41 679 -41 637 -41 c 0,113,114
 603 -41 603 -41 565.5 -22 c 128,-1,115
 528 -3 528 -3 496.5 38.5 c 128,-1,116
 465 80 465 80 444.5 145.5 c 128,-1,117
 424 211 424 211 424 305 c 0,118,119
 424 384 424 384 439.5 459.5 c 128,-1,120
 455 535 455 535 487.5 604 c 128,-1,121
 520 673 520 673 570.5 733.5 c 128,-1,122
 621 794 621 794 692 842 c 0,123,124
 719 860 719 860 751 877 c 128,-1,125
 783 894 783 894 817.5 907 c 128,-1,126
 852 920 852 920 886 928 c 128,-1,127
 920 936 920 936 952 936 c 0,128,129
 993 936 993 936 1028.5 916.5 c 128,-1,130
 1064 897 1064 897 1094 877 c 1,131,132
 1117 894 1117 894 1141.5 908.5 c 128,-1,133
 1166 923 1166 923 1192 936 c 1,134,-1
 1212 901 l 1,135,136
 1192 885 1192 885 1180 872.5 c 128,-1,137
 1168 860 1168 860 1160 842 c 1,138,-1
 1161 842 l 1,139,-1
 1161 842 l 1,29,30
EndSplineSet
EndChar

StartChar: A
Encoding: 65 65 33
Width: 1147
Flags: W
LayerCount: 2
Fore
SplineSet
410 535 m 1,0,-1
 739 535 l 1,1,-1
 645 1079 l 1,2,-1
 410 535 l 1,0,-1
1067 0 m 1,3,-1
 682 0 l 1,4,-1
 686 43 l 1,5,6
 757 48 757 48 788 63.5 c 128,-1,7
 819 79 819 79 813 111 c 2,8,-1
 755 444 l 1,9,-1
 371 444 l 1,10,-1
 228 111 l 2,11,12
 214 80 214 80 243.5 66.5 c 128,-1,13
 273 53 273 53 350 43 c 1,14,-1
 344 0 l 1,15,-1
 -35 0 l 1,16,-1
 -29 43 l 1,17,18
 34 55 34 55 72 68.5 c 128,-1,19
 110 82 110 82 123 111 c 2,20,-1
 610 1229 l 1,21,22
 623 1241 623 1241 641 1253.5 c 128,-1,23
 659 1266 659 1266 678 1277.5 c 128,-1,24
 697 1289 697 1289 714.5 1299.5 c 128,-1,25
 732 1310 732 1310 745 1317 c 1,26,-1
 961 111 l 2,27,28
 963 97 963 97 968.5 86.5 c 128,-1,29
 974 76 974 76 986 67.5 c 128,-1,30
 998 59 998 59 1018.5 53 c 128,-1,31
 1039 47 1039 47 1071 43 c 1,32,-1
 1067 0 l 1,3,-1
EndSplineSet
EndChar

StartChar: B
Encoding: 66 66 34
Width: 1014
Flags: W
LayerCount: 2
Fore
SplineSet
551 1206 m 0,0,1
 521 1206 521 1206 494 1205.5 c 128,-1,2
 467 1205 467 1205 443 1204 c 1,3,-1
 378 725 l 1,4,-1
 410 725 l 2,5,6
 480 725 480 725 545.5 736 c 128,-1,7
 611 747 611 747 661.5 776 c 128,-1,8
 712 805 712 805 742 856 c 128,-1,9
 772 907 772 907 772 987 c 0,10,11
 772 1048 772 1048 750.5 1090 c 128,-1,12
 729 1132 729 1132 696 1158 c 128,-1,13
 663 1184 663 1184 624 1195 c 128,-1,14
 585 1206 585 1206 551 1206 c 0,0,1
518 649 m 0,15,16
 474 649 474 649 437 644.5 c 128,-1,17
 400 640 400 640 366 635 c 1,18,-1
 293 104 l 1,19,20
 290 96 290 96 304 85 c 1,21,22
 323 76 323 76 346 69.5 c 128,-1,23
 369 63 369 63 393.5 59.5 c 128,-1,24
 418 56 418 56 442 54.5 c 128,-1,25
 466 53 466 53 487 53 c 0,26,27
 553 53 553 53 606.5 80.5 c 128,-1,28
 660 108 660 108 698 153 c 128,-1,29
 736 198 736 198 757 256 c 128,-1,30
 778 314 778 314 778 375 c 0,31,32
 778 425 778 425 763.5 474 c 128,-1,33
 749 523 749 523 718 562 c 128,-1,34
 687 601 687 601 637.5 625 c 128,-1,35
 588 649 588 649 518 649 c 0,15,16
934 410 m 0,36,37
 934 312 934 312 896 231 c 128,-1,38
 858 150 858 150 793 92 c 128,-1,39
 728 34 728 34 642 1.5 c 128,-1,40
 556 -31 556 -31 461 -31 c 0,41,42
 434 -31 434 -31 394.5 -28.5 c 128,-1,43
 355 -26 355 -26 311 -23 c 128,-1,44
 267 -20 267 -20 223.5 -15.5 c 128,-1,45
 180 -11 180 -11 145 -8 c 128,-1,46
 110 -5 110 -5 88 -2.5 c 128,-1,47
 66 0 66 0 66 0 c 1,48,-1
 0 0 l 1,49,-1
 6 43 l 1,50,51
 69 57 69 57 107 73.5 c 128,-1,52
 145 90 145 90 147 104 c 2,53,-1
 296 1193 l 1,54,55
 251 1187 251 1187 214 1180 c 128,-1,56
 177 1173 177 1173 141 1165 c 1,57,-1
 141 1227 l 1,58,59
 187 1240 187 1240 235 1251.5 c 128,-1,60
 283 1263 283 1263 336 1271.5 c 128,-1,61
 389 1280 389 1280 449 1285 c 128,-1,62
 509 1290 509 1290 578 1290 c 0,63,64
 659 1290 659 1290 723.5 1273 c 128,-1,65
 788 1256 788 1256 833.5 1223.5 c 128,-1,66
 879 1191 879 1191 903.5 1144.5 c 128,-1,67
 928 1098 928 1098 928 1040 c 0,68,69
 928 988 928 988 911.5 939 c 128,-1,70
 895 890 895 890 865.5 848.5 c 128,-1,71
 836 807 836 807 795.5 774.5 c 128,-1,72
 755 742 755 742 707 723 c 1,73,74
 758 711 758 711 799.5 683 c 128,-1,75
 841 655 841 655 871 614.5 c 128,-1,76
 901 574 901 574 917.5 522 c 128,-1,77
 934 470 934 470 934 410 c 0,36,37
EndSplineSet
EndChar

StartChar: C
Encoding: 67 67 35
Width: 995
Flags: W
LayerCount: 2
Fore
SplineSet
1016 1190 m 0,0,1
 1020 1185 1020 1185 1009 1168 c 128,-1,2
 998 1151 998 1151 980.5 1130 c 128,-1,3
 963 1109 963 1109 943.5 1088.5 c 128,-1,4
 924 1068 924 1068 911 1057 c 1,5,-1
 881 1065 l 1,6,7
 840 1110 840 1110 781.5 1139.5 c 128,-1,8
 723 1169 723 1169 641 1169 c 0,9,10
 601 1169 601 1169 551 1150 c 128,-1,11
 501 1131 501 1131 461 1100 c 0,12,13
 398 1051 398 1051 353.5 977 c 128,-1,14
 309 903 309 903 281 821.5 c 128,-1,15
 253 740 253 740 240 659.5 c 128,-1,16
 227 579 227 579 227 516 c 0,17,18
 227 407 227 407 256.5 327.5 c 128,-1,19
 286 248 286 248 332.5 196.5 c 128,-1,20
 379 145 379 145 434.5 120.5 c 128,-1,21
 490 96 490 96 543 96 c 0,22,23
 599 96 599 96 677.5 131.5 c 128,-1,24
 756 167 756 167 868 256 c 1,25,26
 873 254 873 254 877 247.5 c 128,-1,27
 881 241 881 241 885 234 c 128,-1,28
 889 227 889 227 892 220.5 c 128,-1,29
 895 214 895 214 897 211 c 1,30,31
 829 143 829 143 769.5 97 c 128,-1,32
 710 51 710 51 656 23.5 c 128,-1,33
 602 -4 602 -4 553 -15.5 c 128,-1,34
 504 -27 504 -27 457 -27 c 0,35,36
 382 -27 382 -27 313 5.5 c 128,-1,37
 244 38 244 38 191.5 100 c 128,-1,38
 139 162 139 162 107.5 252.5 c 128,-1,39
 76 343 76 343 76 459 c 0,40,41
 76 553 76 553 94.5 650.5 c 128,-1,42
 113 748 113 748 152 840.5 c 128,-1,43
 191 933 191 933 252 1016.5 c 128,-1,44
 313 1100 313 1100 397 1167 c 0,45,46
 470 1224 470 1224 554.5 1257 c 128,-1,47
 639 1290 639 1290 733 1290 c 0,48,49
 832 1290 832 1290 902 1261 c 128,-1,50
 972 1232 972 1232 1016 1190 c 0,0,1
EndSplineSet
EndChar

StartChar: D
Encoding: 68 68 36
Width: 1118
Flags: W
LayerCount: 2
Fore
SplineSet
504 1206 m 0,0,1
 489 1206 489 1206 474 1206 c 256,2,3
 459 1206 459 1206 444 1205 c 1,4,-1
 298 138 l 1,5,-1
 299 139 l 1,6,7
 296 124 296 124 301.5 114 c 128,-1,8
 307 104 307 104 325 97 c 128,-1,9
 343 90 343 90 374.5 87 c 128,-1,10
 406 84 406 84 455 84 c 0,11,12
 529 84 529 84 591.5 112 c 128,-1,13
 654 140 654 140 705 188 c 128,-1,14
 756 236 756 236 795.5 300 c 128,-1,15
 835 364 835 364 861.5 435.5 c 128,-1,16
 888 507 888 507 901.5 582 c 128,-1,17
 915 657 915 657 915 727 c 0,18,19
 915 834 915 834 888 922 c 128,-1,20
 861 1010 861 1010 809 1073 c 128,-1,21
 757 1136 757 1136 680.5 1171 c 128,-1,22
 604 1206 604 1206 504 1206 c 0,0,1
1077 745 m 0,23,24
 1077 657 1077 657 1060 567.5 c 128,-1,25
 1043 478 1043 478 1009 395.5 c 128,-1,26
 975 313 975 313 925 240.5 c 128,-1,27
 875 168 875 168 808.5 114.5 c 128,-1,28
 742 61 742 61 660 30.5 c 128,-1,29
 578 0 578 0 481 0 c 2,30,-1
 29 0 l 1,31,-1
 34 2 l 1,32,-1
 0 0 l 1,33,-1
 6 43 l 1,34,35
 69 57 69 57 107 73.5 c 128,-1,36
 145 90 145 90 147 104 c 2,37,-1
 296 1193 l 1,38,39
 259 1189 259 1189 221 1185 c 128,-1,40
 183 1181 183 1181 143 1176 c 1,41,-1
 143 1239 l 1,42,43
 258 1267 258 1267 370.5 1278.5 c 128,-1,44
 483 1290 483 1290 586 1290 c 0,45,46
 703 1290 703 1290 794 1251 c 128,-1,47
 885 1212 885 1212 948 1141 c 128,-1,48
 1011 1070 1011 1070 1044 969.5 c 128,-1,49
 1077 869 1077 869 1077 745 c 0,23,24
EndSplineSet
EndChar

StartChar: E
Encoding: 69 69 37
Width: 946
Flags: W
LayerCount: 2
Fore
SplineSet
856 244 m 1,0,1
 836 157 836 157 815.5 93 c 128,-1,2
 795 29 795 29 784 0 c 1,3,-1
 0 0 l 1,4,-1
 6 43 l 1,5,6
 69 57 69 57 107 73.5 c 128,-1,7
 145 90 145 90 147 104 c 2,8,-1
 293 1155 l 2,9,10
 295 1167 295 1167 264 1185 c 128,-1,11
 233 1203 233 1203 168 1217 c 1,12,-1
 174 1260 l 1,13,-1
 911 1260 l 1,14,-1
 936 1235 l 1,15,16
 931 1209 931 1209 923.5 1178 c 128,-1,17
 916 1147 916 1147 906.5 1116 c 128,-1,18
 897 1085 897 1085 887 1057 c 128,-1,19
 877 1029 877 1029 868 1010 c 1,20,-1
 825 1010 l 1,21,22
 830 1056 830 1056 829 1086.5 c 128,-1,23
 828 1117 828 1117 821 1135.5 c 128,-1,24
 814 1154 814 1154 802 1161.5 c 128,-1,25
 790 1169 790 1169 772 1169 c 2,26,-1
 437 1169 l 1,27,-1
 378 735 l 1,28,-1
 752 735 l 1,29,-1
 772 707 l 1,30,31
 762 693 762 693 749.5 678 c 128,-1,32
 737 663 737 663 723.5 648.5 c 128,-1,33
 710 634 710 634 697 621.5 c 128,-1,34
 684 609 684 609 674 600 c 1,35,36
 658 617 658 617 640 627.5 c 128,-1,37
 622 638 622 638 595.5 644 c 128,-1,38
 569 650 569 650 530.5 652.5 c 128,-1,39
 492 655 492 655 436 655 c 2,40,-1
 367 655 l 1,41,-1
 299 154 l 2,42,43
 297 139 297 139 302 127.5 c 128,-1,44
 307 116 307 116 326 107.5 c 128,-1,45
 345 99 345 99 381 94.5 c 128,-1,46
 417 90 417 90 477 90 c 2,47,-1
 598 90 l 2,48,49
 640 90 640 90 669 95 c 128,-1,50
 698 100 698 100 721.5 117.5 c 128,-1,51
 745 135 745 135 767 169 c 128,-1,52
 789 203 789 203 817 262 c 1,53,-1
 856 244 l 1,54,-1
 856 244 l 1,0,1
EndSplineSet
EndChar

StartChar: F
Encoding: 70 70 38
Width: 891
Flags: W
LayerCount: 2
Fore
SplineSet
944 1235 m 1,0,1
 939 1209 939 1209 931.5 1178 c 128,-1,2
 924 1147 924 1147 914.5 1116 c 128,-1,3
 905 1085 905 1085 895 1057 c 128,-1,4
 885 1029 885 1029 877 1010 c 1,5,-1
 836 1010 l 1,6,7
 840 1056 840 1056 838 1086.5 c 128,-1,8
 836 1117 836 1117 829 1135.5 c 128,-1,9
 822 1154 822 1154 810 1161.5 c 128,-1,10
 798 1169 798 1169 780 1169 c 2,11,-1
 437 1169 l 1,12,-1
 377 735 l 1,13,-1
 700 735 l 1,14,-1
 723 707 l 1,15,16
 712 693 712 693 699.5 678 c 128,-1,17
 687 663 687 663 674 648.5 c 128,-1,18
 661 634 661 634 648 621.5 c 128,-1,19
 635 609 635 609 625 600 c 1,20,21
 591 634 591 634 546.5 644.5 c 128,-1,22
 502 655 502 655 436 655 c 2,23,-1
 366 655 l 1,24,-1
 291 104 l 2,25,26
 289 92 289 92 323 77 c 128,-1,27
 357 62 357 62 444 43 c 1,28,-1
 438 0 l 1,29,-1
 0 0 l 1,30,-1
 6 43 l 1,31,32
 69 57 69 57 107 73.5 c 128,-1,33
 145 90 145 90 147 104 c 2,34,-1
 293 1155 l 2,35,36
 295 1167 295 1167 264 1185 c 128,-1,37
 233 1203 233 1203 168 1217 c 1,38,-1
 174 1260 l 1,39,-1
 920 1260 l 1,40,-1
 944 1235 l 1,0,1
EndSplineSet
EndChar

StartChar: G
Encoding: 71 71 39
Width: 1073
Flags: W
LayerCount: 2
Fore
SplineSet
1057 539 m 1,0,1
 1003 523 1003 523 978 501.5 c 128,-1,2
 953 480 953 480 950 457 c 2,3,-1
 909 160 l 1,4,5
 909 160 909 160 908.5 159.5 c 128,-1,6
 908 159 908 159 906 158 c 1,7,8
 907 156 907 156 909 154 c 1,9,10
 833 93 833 93 775 56.5 c 128,-1,11
 717 20 717 20 670 0.5 c 128,-1,12
 623 -19 623 -19 582.5 -25 c 128,-1,13
 542 -31 542 -31 502 -31 c 0,14,15
 419 -31 419 -31 342 2.5 c 128,-1,16
 265 36 265 36 206 100.5 c 128,-1,17
 147 165 147 165 111.5 259 c 128,-1,18
 76 353 76 353 76 473 c 0,19,20
 76 568 76 568 98.5 664.5 c 128,-1,21
 121 761 121 761 161 849.5 c 128,-1,22
 201 938 201 938 257 1013.5 c 128,-1,23
 313 1089 313 1089 381 1143 c 0,24,25
 466 1209 466 1209 570 1249.5 c 128,-1,26
 674 1290 674 1290 793 1290 c 0,27,28
 823 1290 823 1290 858 1283 c 128,-1,29
 893 1276 893 1276 928 1263 c 128,-1,30
 963 1250 963 1250 996 1231 c 128,-1,31
 1029 1212 1029 1212 1055 1188 c 0,32,33
 1061 1183 1061 1183 1050 1166 c 128,-1,34
 1039 1149 1039 1149 1021 1128.5 c 128,-1,35
 1003 1108 1003 1108 982.5 1088 c 128,-1,36
 962 1068 962 1068 948 1057 c 1,37,-1
 920 1063 l 1,38,39
 894 1094 894 1094 865 1115 c 128,-1,40
 836 1136 836 1136 802.5 1148.5 c 128,-1,41
 769 1161 769 1161 730.5 1166 c 128,-1,42
 692 1171 692 1171 647 1171 c 0,43,44
 609 1171 609 1171 554.5 1145 c 128,-1,45
 500 1119 500 1119 446 1075 c 0,46,47
 395 1034 395 1034 354.5 968 c 128,-1,48
 314 902 314 902 285 824.5 c 128,-1,49
 256 747 256 747 240.5 666.5 c 128,-1,50
 225 586 225 586 225 516 c 0,51,52
 225 409 225 409 257.5 330.5 c 128,-1,53
 290 252 290 252 341 200 c 128,-1,54
 392 148 392 148 455 123 c 128,-1,55
 518 98 518 98 580 98 c 0,56,57
 634 98 634 98 686 114 c 128,-1,58
 738 130 738 130 773 156 c 1,59,-1
 813 457 l 2,60,61
 814 467 814 467 809 477 c 128,-1,62
 804 487 804 487 781.5 497 c 128,-1,63
 759 507 759 507 715 517 c 128,-1,64
 671 527 671 527 596 539 c 1,65,-1
 602 582 l 1,66,-1
 1063 582 l 1,67,-1
 1057 539 l 1,0,1
EndSplineSet
EndChar

StartChar: H
Encoding: 72 72 40
Width: 1235
Flags: W
LayerCount: 2
Fore
SplineSet
578 1217 m 1,0,1
 515 1203 515 1203 477 1186 c 128,-1,2
 439 1169 439 1169 436 1155 c 1,3,-1
 375 705 l 1,4,-1
 931 705 l 1,5,-1
 993 1155 l 2,6,7
 995 1167 995 1167 964 1185 c 128,-1,8
 933 1203 933 1203 870 1217 c 1,9,-1
 874 1260 l 1,10,-1
 1286 1260 l 1,11,-1
 1280 1217 l 1,12,13
 1217 1203 1217 1203 1179 1186 c 128,-1,14
 1141 1169 1141 1169 1139 1155 c 2,15,-1
 993 104 l 2,16,17
 991 92 991 92 1022 74.5 c 128,-1,18
 1053 57 1053 57 1118 43 c 1,19,-1
 1112 0 l 1,20,-1
 702 0 l 1,21,-1
 709 43 l 1,22,23
 772 57 772 57 809 73.5 c 128,-1,24
 846 90 846 90 848 104 c 2,25,-1
 918 614 l 1,26,-1
 362 614 l 1,27,-1
 293 104 l 1,28,29
 290 92 290 92 321.5 74.5 c 128,-1,30
 353 57 353 57 416 43 c 1,31,-1
 410 0 l 1,32,-1
 0 0 l 1,33,-1
 6 43 l 1,34,35
 69 57 69 57 107 73.5 c 128,-1,36
 145 90 145 90 147 104 c 2,37,-1
 293 1155 l 2,38,39
 295 1167 295 1167 264 1185 c 128,-1,40
 233 1203 233 1203 168 1217 c 1,41,-1
 174 1260 l 1,42,-1
 584 1260 l 1,43,-1
 578 1217 l 1,0,1
EndSplineSet
EndChar

StartChar: I
Encoding: 73 73 41
Width: 573
Flags: W
LayerCount: 2
Fore
SplineSet
598 1217 m 1,0,1
 535 1203 535 1203 497 1186 c 128,-1,2
 459 1169 459 1169 457 1155 c 2,3,-1
 311 104 l 2,4,5
 309 92 309 92 340 74.5 c 128,-1,6
 371 57 371 57 436 43 c 1,7,-1
 430 0 l 1,8,-1
 20 0 l 1,9,-1
 27 43 l 1,10,11
 90 57 90 57 127.5 73.5 c 128,-1,12
 165 90 165 90 168 104 c 1,13,-1
 311 1155 l 2,14,15
 313 1167 313 1167 282 1185 c 128,-1,16
 251 1203 251 1203 188 1217 c 1,17,-1
 195 1260 l 1,18,-1
 604 1260 l 1,19,-1
 598 1217 l 1,0,1
EndSplineSet
EndChar

StartChar: J
Encoding: 74 74 42
Width: 578
Flags: W
LayerCount: 2
Fore
SplineSet
623 1217 m 1,0,1
 560 1203 560 1203 522 1186 c 128,-1,2
 484 1169 484 1169 481 1155 c 1,3,-1
 350 205 l 2,4,5
 334 86 334 86 308 6.5 c 128,-1,6
 282 -73 282 -73 249.5 -128 c 128,-1,7
 217 -183 217 -183 179 -220 c 128,-1,8
 141 -257 141 -257 100 -289 c 0,9,10
 73 -310 73 -310 41.5 -327 c 128,-1,11
 10 -344 10 -344 -21.5 -356 c 128,-1,12
 -53 -368 -53 -368 -80 -374.5 c 128,-1,13
 -107 -381 -107 -381 -125 -381 c 0,14,15
 -153 -381 -153 -381 -178 -371.5 c 128,-1,16
 -203 -362 -203 -362 -222 -349.5 c 128,-1,17
 -241 -337 -241 -337 -252.5 -323.5 c 128,-1,18
 -264 -310 -264 -310 -264 -301 c 0,19,20
 -264 -291 -264 -291 -249.5 -274 c 128,-1,21
 -235 -257 -235 -257 -215.5 -241 c 128,-1,22
 -196 -225 -196 -225 -175.5 -213 c 128,-1,23
 -155 -201 -155 -201 -143 -201 c 0,24,25
 -133 -201 -133 -201 -122.5 -210 c 128,-1,26
 -112 -219 -112 -219 -97.5 -229.5 c 128,-1,27
 -83 -240 -83 -240 -62 -249 c 128,-1,28
 -41 -258 -41 -258 -10 -258 c 0,29,30
 14 -258 14 -258 43 -241 c 128,-1,31
 72 -224 72 -224 100.5 -180 c 128,-1,32
 129 -136 129 -136 154.5 -60 c 128,-1,33
 180 16 180 16 197 133 c 2,34,-1
 338 1155 l 2,35,36
 339 1161 339 1161 332.5 1168 c 128,-1,37
 326 1175 326 1175 307.5 1183 c 128,-1,38
 289 1191 289 1191 255.5 1199.5 c 128,-1,39
 222 1208 222 1208 168 1217 c 1,40,-1
 172 1260 l 1,41,-1
 629 1260 l 1,42,-1
 623 1217 l 1,0,1
EndSplineSet
EndChar

StartChar: K
Encoding: 75 75 43
Width: 1102
Flags: W
LayerCount: 2
Fore
SplineSet
578 1217 m 1,0,1
 515 1203 515 1203 477 1186 c 128,-1,2
 439 1169 439 1169 436 1155 c 1,3,-1
 293 104 l 1,4,5
 290 92 290 92 321.5 74.5 c 128,-1,6
 353 57 353 57 416 43 c 1,7,-1
 410 0 l 1,8,-1
 0 0 l 1,9,-1
 6 43 l 1,10,11
 69 57 69 57 107 73.5 c 128,-1,12
 145 90 145 90 147 104 c 2,13,-1
 293 1155 l 2,14,15
 295 1167 295 1167 264 1185 c 128,-1,16
 233 1203 233 1203 168 1217 c 1,17,-1
 174 1260 l 1,18,-1
 584 1260 l 1,19,-1
 578 1217 l 1,0,1
1077 111 m 1,20,21
 1039 82 1039 82 1002.5 58.5 c 128,-1,22
 966 35 966 35 933.5 19 c 128,-1,23
 901 3 901 3 873.5 -5.5 c 128,-1,24
 846 -14 846 -14 827 -14 c 0,25,26
 812 -14 812 -14 799.5 -11.5 c 128,-1,27
 787 -9 787 -9 776 -1.5 c 128,-1,28
 765 6 765 6 754 18.5 c 128,-1,29
 743 31 743 31 731 51 c 2,30,-1
 367 643 l 1,31,-1
 825 1128 l 2,32,33
 850 1154 850 1154 858 1170 c 128,-1,34
 866 1186 866 1186 858.5 1195.5 c 128,-1,35
 851 1205 851 1205 828.5 1209.5 c 128,-1,36
 806 1214 806 1214 772 1217 c 1,37,-1
 778 1260 l 1,38,-1
 1161 1260 l 1,39,-1
 1155 1217 l 1,40,41
 1124 1213 1124 1213 1100.5 1209 c 128,-1,42
 1077 1205 1077 1205 1058 1198 c 128,-1,43
 1039 1191 1039 1191 1023 1181 c 128,-1,44
 1007 1171 1007 1171 991 1155 c 2,45,-1
 510 671 l 1,46,-1
 856 156 l 2,47,48
 870 135 870 135 886 124 c 128,-1,49
 902 113 902 113 924.5 111.5 c 128,-1,50
 947 110 947 110 979.5 119 c 128,-1,51
 1012 128 1012 128 1059 147 c 1,52,-1
 1077 111 l 1,53,-1
 1077 111 l 1,20,21
EndSplineSet
EndChar

StartChar: L
Encoding: 76 76 44
Width: 918
Flags: W
LayerCount: 2
Fore
SplineSet
848 244 m 1,0,1
 828 157 828 157 807.5 93 c 128,-1,2
 787 29 787 29 774 0 c 1,3,-1
 0 0 l 1,4,-1
 6 43 l 1,5,6
 69 57 69 57 107 73.5 c 128,-1,7
 145 90 145 90 147 104 c 2,8,-1
 293 1155 l 2,9,10
 295 1167 295 1167 264 1185 c 128,-1,11
 233 1203 233 1203 168 1217 c 1,12,-1
 174 1260 l 1,13,-1
 584 1260 l 1,14,-1
 578 1217 l 1,15,16
 515 1203 515 1203 477 1186 c 128,-1,17
 439 1169 439 1169 436 1155 c 1,18,-1
 299 154 l 2,19,20
 297 136 297 136 303 123.5 c 128,-1,21
 309 111 309 111 327.5 103.5 c 128,-1,22
 346 96 346 96 378.5 93 c 128,-1,23
 411 90 411 90 461 90 c 2,24,-1
 588 90 l 2,25,26
 630 90 630 90 659.5 95 c 128,-1,27
 689 100 689 100 713 117.5 c 128,-1,28
 737 135 737 135 759 169 c 128,-1,29
 781 203 781 203 809 262 c 1,30,-1
 848 244 l 1,31,-1
 848 244 l 1,0,1
EndSplineSet
EndChar

StartChar: M
Encoding: 77 77 45
Width: 1511
Flags: W
LayerCount: 2
Fore
SplineSet
1532 1217 m 1,0,1
 1505 1217 1505 1217 1470 1207.5 c 128,-1,2
 1435 1198 1435 1198 1399 1180 c 1,3,-1
 1278 104 l 2,4,5
 1276 92 1276 92 1309 74.5 c 128,-1,6
 1342 57 1342 57 1407 43 c 1,7,-1
 1401 0 l 1,8,-1
 991 0 l 1,9,-1
 997 43 l 1,10,11
 1060 57 1060 57 1100.5 73.5 c 128,-1,12
 1141 90 1141 90 1143 104 c 2,13,-1
 1251 1058 l 1,14,15
 1248 1053 1248 1053 1245.5 1049 c 128,-1,16
 1243 1045 1243 1045 1241 1040 c 2,17,-1
 711 0 l 1,18,-1
 670 0 l 1,19,-1
 392 1047 l 1,20,-1
 256 104 l 2,21,22
 254 92 254 92 284 74.5 c 128,-1,23
 314 57 314 57 379 43 c 1,24,-1
 373 0 l 1,25,-1
 4 0 l 1,26,-1
 10 43 l 1,27,28
 75 57 75 57 111.5 73.5 c 128,-1,29
 148 90 148 90 150 104 c 2,30,-1
 306 1179 l 1,31,32
 275 1200 275 1200 241.5 1208.5 c 128,-1,33
 208 1217 208 1217 182 1217 c 1,34,-1
 188 1260 l 1,35,-1
 453 1260 l 2,36,37
 461 1260 461 1260 466.5 1257 c 128,-1,38
 472 1254 472 1254 476.5 1245 c 128,-1,39
 481 1236 481 1236 486 1219.5 c 128,-1,40
 491 1203 491 1203 498 1176 c 2,41,-1
 747 281 l 1,42,-1
 1206 1176 l 2,43,44
 1220 1203 1220 1203 1229.5 1219.5 c 128,-1,45
 1239 1236 1239 1236 1246.5 1245 c 128,-1,46
 1254 1254 1254 1254 1260.5 1257 c 128,-1,47
 1267 1260 1267 1260 1276 1260 c 2,48,-1
 1536 1260 l 1,49,-1
 1532 1217 l 1,0,1
EndSplineSet
EndChar

StartChar: N
Encoding: 78 78 46
Width: 1239
Flags: W
LayerCount: 2
Fore
SplineSet
1288 1217 m 1,0,1
 1222 1207 1222 1207 1188.5 1189.5 c 128,-1,2
 1155 1172 1155 1172 1153 1155 c 2,3,-1
 989 -31 l 1,4,5
 968 -28 968 -28 951 -24 c 128,-1,6
 934 -20 934 -20 920 -12 c 128,-1,7
 906 -4 906 -4 894 9.5 c 128,-1,8
 882 23 882 23 870 45 c 2,9,-1
 373 1004 l 1,10,-1
 250 104 l 1,11,12
 247 92 247 92 275 73 c 128,-1,13
 303 54 303 54 371 43 c 1,14,-1
 365 0 l 1,15,-1
 0 0 l 1,16,-1
 6 43 l 1,17,18
 74 52 74 52 107.5 71 c 128,-1,19
 141 90 141 90 143 104 c 2,20,-1
 289 1154 l 1,21,22
 263 1184 263 1184 232 1196.5 c 128,-1,23
 201 1209 201 1209 158 1217 c 1,24,-1
 164 1260 l 1,25,-1
 342 1260 l 2,26,27
 364 1260 364 1260 376.5 1259 c 128,-1,28
 389 1258 389 1258 398.5 1250.5 c 128,-1,29
 408 1243 408 1243 416.5 1227 c 128,-1,30
 425 1211 425 1211 440 1182 c 2,31,-1
 924 258 l 1,32,-1
 1047 1155 l 2,33,34
 1048 1161 1048 1161 1042 1169.5 c 128,-1,35
 1036 1178 1036 1178 1021.5 1186.5 c 128,-1,36
 1007 1195 1007 1195 983 1203 c 128,-1,37
 959 1211 959 1211 924 1217 c 1,38,-1
 930 1260 l 1,39,-1
 1294 1260 l 1,40,-1
 1288 1217 l 1,0,1
EndSplineSet
EndChar

StartChar: O
Encoding: 79 79 47
Width: 1116
Flags: W
LayerCount: 2
Fore
SplineSet
936 756 m 0,0,1
 936 840 936 840 918 914.5 c 128,-1,2
 900 989 900 989 865 1044.5 c 128,-1,3
 830 1100 830 1100 779 1132.5 c 128,-1,4
 728 1165 728 1165 662 1165 c 0,5,6
 586 1165 586 1165 525.5 1135.5 c 128,-1,7
 465 1106 465 1106 418 1057 c 128,-1,8
 371 1008 371 1008 338 943 c 128,-1,9
 305 878 305 878 283.5 808 c 128,-1,10
 262 738 262 738 252 666.5 c 128,-1,11
 242 595 242 595 242 532 c 0,12,13
 242 439 242 439 261.5 359.5 c 128,-1,14
 281 280 281 280 317 222.5 c 128,-1,15
 353 165 353 165 403.5 132.5 c 128,-1,16
 454 100 454 100 516 100 c 0,17,18
 593 100 593 100 654.5 131 c 128,-1,19
 716 162 716 162 762.5 213.5 c 128,-1,20
 809 265 809 265 842 332.5 c 128,-1,21
 875 400 875 400 896 473 c 128,-1,22
 917 546 917 546 926.5 619 c 128,-1,23
 936 692 936 692 936 756 c 0,0,1
1085 774 m 0,24,25
 1085 703 1085 703 1073.5 630 c 128,-1,26
 1062 557 1062 557 1038.5 486 c 128,-1,27
 1015 415 1015 415 980.5 348.5 c 128,-1,28
 946 282 946 282 901 225 c 0,29,30
 859 171 859 171 811.5 124.5 c 128,-1,31
 764 78 764 78 710.5 43.5 c 128,-1,32
 657 9 657 9 597.5 -11 c 128,-1,33
 538 -31 538 -31 471 -31 c 0,34,35
 375 -31 375 -31 303.5 10 c 128,-1,36
 232 51 232 51 184.5 121.5 c 128,-1,37
 137 192 137 192 113.5 286 c 128,-1,38
 90 380 90 380 90 485 c 0,39,40
 90 548 90 548 101.5 618.5 c 128,-1,41
 113 689 113 689 134.5 759.5 c 128,-1,42
 156 830 156 830 187 896.5 c 128,-1,43
 218 963 218 963 258 1018 c 1,44,45
 300 1074 300 1074 348.5 1123.5 c 128,-1,46
 397 1173 397 1173 452.5 1210 c 128,-1,47
 508 1247 508 1247 571 1268.5 c 128,-1,48
 634 1290 634 1290 705 1290 c 0,49,50
 803 1290 803 1290 875 1249 c 128,-1,51
 947 1208 947 1208 993.5 1137.5 c 128,-1,52
 1040 1067 1040 1067 1062.5 973 c 128,-1,53
 1085 879 1085 879 1085 774 c 0,24,25
EndSplineSet
EndChar

StartChar: P
Encoding: 80 80 48
Width: 965
Flags: W
LayerCount: 2
Fore
SplineSet
975 942 m 0,0,1
 975 857 975 857 942 782.5 c 128,-1,2
 909 708 909 708 851.5 653 c 128,-1,3
 794 598 794 598 717 566.5 c 128,-1,4
 640 535 640 535 553 535 c 0,5,6
 515 535 515 535 476 544.5 c 128,-1,7
 437 554 437 554 410 569 c 1,8,-1
 399 643 l 1,9,10
 433 629 433 629 466.5 619.5 c 128,-1,11
 500 610 500 610 532 610 c 0,12,13
 598 610 598 610 653 631.5 c 128,-1,14
 708 653 708 653 747.5 692 c 128,-1,15
 787 731 787 731 809 785.5 c 128,-1,16
 831 840 831 840 831 905 c 0,17,18
 831 989 831 989 804 1046.5 c 128,-1,19
 777 1104 777 1104 731 1139.5 c 128,-1,20
 685 1175 685 1175 624 1190.5 c 128,-1,21
 563 1206 563 1206 496 1206 c 0,22,23
 482 1206 482 1206 469 1206 c 256,24,25
 456 1206 456 1206 443 1205 c 1,26,-1
 293 104 l 1,27,28
 291 98 291 98 297 91 c 128,-1,29
 303 84 303 84 320 76 c 128,-1,30
 337 68 337 68 367 60 c 128,-1,31
 397 52 397 52 444 43 c 1,32,-1
 438 0 l 1,33,-1
 0 0 l 1,34,-1
 6 43 l 1,35,36
 69 57 69 57 107 73.5 c 128,-1,37
 145 90 145 90 147 104 c 2,38,-1
 296 1195 l 1,39,40
 261 1190 261 1190 223 1183 c 128,-1,41
 185 1176 185 1176 141 1165 c 1,42,-1
 141 1225 l 1,43,44
 183 1240 183 1240 227.5 1252.5 c 128,-1,45
 272 1265 272 1265 323 1273 c 128,-1,46
 374 1281 374 1281 432.5 1285.5 c 128,-1,47
 491 1290 491 1290 559 1290 c 0,48,49
 655 1290 655 1290 732 1268 c 128,-1,50
 809 1246 809 1246 863 1202 c 128,-1,51
 917 1158 917 1158 946 1093 c 128,-1,52
 975 1028 975 1028 975 942 c 0,0,1
EndSplineSet
EndChar

StartChar: Q
Encoding: 81 81 49
Width: 1135
Flags: W
LayerCount: 2
Fore
SplineSet
936 756 m 0,0,1
 936 840 936 840 918 914.5 c 128,-1,2
 900 989 900 989 865 1044.5 c 128,-1,3
 830 1100 830 1100 779 1132.5 c 128,-1,4
 728 1165 728 1165 662 1165 c 0,5,6
 586 1165 586 1165 525.5 1135.5 c 128,-1,7
 465 1106 465 1106 418 1057 c 128,-1,8
 371 1008 371 1008 338 943 c 128,-1,9
 305 878 305 878 283.5 808 c 128,-1,10
 262 738 262 738 252 666.5 c 128,-1,11
 242 595 242 595 242 532 c 0,12,13
 242 439 242 439 261.5 359.5 c 128,-1,14
 281 280 281 280 317 222.5 c 128,-1,15
 353 165 353 165 403.5 132.5 c 128,-1,16
 454 100 454 100 516 100 c 0,17,18
 593 100 593 100 654.5 131 c 128,-1,19
 716 162 716 162 762.5 213.5 c 128,-1,20
 809 265 809 265 842 332.5 c 128,-1,21
 875 400 875 400 896 473 c 128,-1,22
 917 546 917 546 926.5 619 c 128,-1,23
 936 692 936 692 936 756 c 0,0,1
1104 -117 m 1,24,25
 1075 -161 1075 -161 1047 -194.5 c 128,-1,26
 1019 -228 1019 -228 993.5 -250.5 c 128,-1,27
 968 -273 968 -273 947 -285 c 128,-1,28
 926 -297 926 -297 911 -297 c 0,29,30
 855 -297 855 -297 805 -268 c 128,-1,31
 755 -239 755 -239 707 -197 c 128,-1,32
 659 -155 659 -155 611.5 -108.5 c 128,-1,33
 564 -62 564 -62 514 -28 c 1,34,35
 493 -31 493 -31 471 -31 c 0,36,37
 375 -31 375 -31 303.5 10 c 128,-1,38
 232 51 232 51 184.5 121.5 c 128,-1,39
 137 192 137 192 113.5 286 c 128,-1,40
 90 380 90 380 90 485 c 0,41,42
 90 548 90 548 101.5 618.5 c 128,-1,43
 113 689 113 689 134.5 759.5 c 128,-1,44
 156 830 156 830 187 896.5 c 128,-1,45
 218 963 218 963 258 1018 c 1,46,47
 300 1074 300 1074 348.5 1123.5 c 128,-1,48
 397 1173 397 1173 452.5 1210 c 128,-1,49
 508 1247 508 1247 571 1268.5 c 128,-1,50
 634 1290 634 1290 705 1290 c 0,51,52
 803 1290 803 1290 875 1249 c 128,-1,53
 947 1208 947 1208 993.5 1137.5 c 128,-1,54
 1040 1067 1040 1067 1062.5 973 c 128,-1,55
 1085 879 1085 879 1085 774 c 0,56,57
 1085 703 1085 703 1073.5 630 c 128,-1,58
 1062 557 1062 557 1038.5 486 c 128,-1,59
 1015 415 1015 415 980.5 348.5 c 128,-1,60
 946 282 946 282 901 225 c 0,61,62
 847 156 847 156 785.5 100.5 c 128,-1,63
 724 45 724 45 652 10 c 1,64,65
 691 -14 691 -14 727.5 -43.5 c 128,-1,66
 764 -73 764 -73 799.5 -99 c 128,-1,67
 835 -125 835 -125 869.5 -142.5 c 128,-1,68
 904 -160 904 -160 938 -160 c 0,69,70
 950 -160 950 -160 962.5 -156 c 128,-1,71
 975 -152 975 -152 991.5 -143 c 128,-1,72
 1008 -134 1008 -134 1030 -119 c 128,-1,73
 1052 -104 1052 -104 1083 -82 c 1,74,-1
 1104 -117 l 1,75,-1
 1104 -117 l 1,24,25
EndSplineSet
EndChar

StartChar: R
Encoding: 82 82 50
Width: 1077
Flags: W
LayerCount: 2
Fore
SplineSet
514 1206 m 0,0,1
 496 1206 496 1206 478 1206 c 256,2,3
 460 1206 460 1206 443 1205 c 1,4,-1
 371 678 l 1,5,6
 400 670 400 670 428.5 666 c 128,-1,7
 457 662 457 662 485 662 c 0,8,9
 548 662 548 662 606 679.5 c 128,-1,10
 664 697 664 697 708 731.5 c 128,-1,11
 752 766 752 766 778.5 818.5 c 128,-1,12
 805 871 805 871 805 942 c 0,13,14
 805 1016 805 1016 777.5 1066.5 c 128,-1,15
 750 1117 750 1117 707.5 1148 c 128,-1,16
 665 1179 665 1179 613.5 1192.5 c 128,-1,17
 562 1206 562 1206 514 1206 c 0,0,1
1077 109 m 1,18,19
 1038 83 1038 83 1000 60.5 c 128,-1,20
 962 38 962 38 930 21.5 c 128,-1,21
 898 5 898 5 872.5 -4.5 c 128,-1,22
 847 -14 847 -14 834 -14 c 0,23,24
 817 -14 817 -14 801.5 -9 c 128,-1,25
 786 -4 786 -4 770.5 10.5 c 128,-1,26
 755 25 755 25 738 50.5 c 128,-1,27
 721 76 721 76 702 117 c 2,28,29
 702 117 702 117 688.5 145 c 128,-1,30
 675 173 675 173 654 217 c 128,-1,31
 633 261 633 261 607 315 c 128,-1,32
 581 369 581 369 556 421.5 c 128,-1,33
 531 474 531 474 509.5 519 c 128,-1,34
 488 564 488 564 476 589 c 1,35,36
 447 591 447 591 416.5 595 c 128,-1,37
 386 599 386 599 361 605 c 1,38,-1
 293 104 l 1,39,40
 290 92 290 92 321.5 74.5 c 128,-1,41
 353 57 353 57 416 43 c 1,42,-1
 410 0 l 1,43,-1
 0 0 l 1,44,-1
 6 43 l 1,45,46
 69 57 69 57 107 73.5 c 128,-1,47
 145 90 145 90 147 104 c 2,48,-1
 296 1193 l 1,49,50
 257 1188 257 1188 218.5 1181.5 c 128,-1,51
 180 1175 180 1175 141 1167 c 1,52,-1
 141 1227 l 1,53,54
 186 1240 186 1240 231.5 1251.5 c 128,-1,55
 277 1263 277 1263 327 1271.5 c 128,-1,56
 377 1280 377 1280 434 1285 c 128,-1,57
 491 1290 491 1290 559 1290 c 0,58,59
 647 1290 647 1290 718.5 1269.5 c 128,-1,60
 790 1249 790 1249 841 1208.5 c 128,-1,61
 892 1168 892 1168 920 1108.5 c 128,-1,62
 948 1049 948 1049 948 971 c 0,63,64
 948 932 948 932 930.5 875.5 c 128,-1,65
 913 819 913 819 873.5 763.5 c 128,-1,66
 834 708 834 708 770 661.5 c 128,-1,67
 706 615 706 615 612 597 c 1,68,-1
 846 184 l 2,69,70
 864 152 864 152 880.5 135 c 128,-1,71
 897 118 897 118 919.5 114 c 128,-1,72
 942 110 942 110 975 119 c 128,-1,73
 1008 128 1008 128 1059 147 c 1,74,-1
 1077 109 l 1,75,-1
 1077 109 l 1,18,19
EndSplineSet
EndChar

StartChar: S
Encoding: 83 83 51
Width: 899
Flags: W
LayerCount: 2
Fore
SplineSet
872 1198 m 0,0,1
 876 1195 876 1195 872 1184.5 c 128,-1,2
 868 1174 868 1174 859.5 1160 c 128,-1,3
 851 1146 851 1146 838.5 1130 c 128,-1,4
 826 1114 826 1114 813 1099.5 c 128,-1,5
 800 1085 800 1085 788.5 1074 c 128,-1,6
 777 1063 777 1063 770 1059 c 1,7,-1
 741 1065 l 1,8,9
 724 1089 724 1089 703 1110.5 c 128,-1,10
 682 1132 682 1132 657 1149 c 128,-1,11
 632 1166 632 1166 604.5 1176 c 128,-1,12
 577 1186 577 1186 547 1186 c 0,13,14
 493 1186 493 1186 451 1168.5 c 128,-1,15
 409 1151 409 1151 380.5 1123.5 c 128,-1,16
 352 1096 352 1096 337 1062 c 128,-1,17
 322 1028 322 1028 322 995 c 0,18,19
 322 973 322 973 329 949 c 128,-1,20
 336 925 336 925 358 899 c 128,-1,21
 380 873 380 873 420.5 843.5 c 128,-1,22
 461 814 461 814 528 780 c 0,23,24
 607 739 607 739 662 702 c 128,-1,25
 717 665 717 665 751 625.5 c 128,-1,26
 785 586 785 586 800 541 c 128,-1,27
 815 496 815 496 815 440 c 0,28,29
 815 346 815 346 776 261 c 128,-1,30
 737 176 737 176 670.5 111 c 128,-1,31
 604 46 604 46 515.5 7.5 c 128,-1,32
 427 -31 427 -31 328 -31 c 0,33,34
 290 -31 290 -31 241.5 -18 c 128,-1,35
 193 -5 193 -5 149.5 16 c 128,-1,36
 106 37 106 37 76.5 63 c 128,-1,37
 47 89 47 89 47 115 c 0,38,39
 47 127 47 127 59 150 c 128,-1,40
 71 173 71 173 87.5 196.5 c 128,-1,41
 104 220 104 220 122.5 237 c 128,-1,42
 141 254 141 254 154 254 c 0,43,44
 166 254 166 254 183 229.5 c 128,-1,45
 200 205 200 205 227.5 175 c 128,-1,46
 255 145 255 145 295.5 120.5 c 128,-1,47
 336 96 336 96 395 96 c 0,48,49
 456 96 456 96 508.5 116.5 c 128,-1,50
 561 137 561 137 600 172.5 c 128,-1,51
 639 208 639 208 661.5 256 c 128,-1,52
 684 304 684 304 684 360 c 0,53,54
 684 401 684 401 672 436.5 c 128,-1,55
 660 472 660 472 630 505.5 c 128,-1,56
 600 539 600 539 550 572 c 128,-1,57
 500 605 500 605 424 641 c 0,58,59
 358 672 358 672 315 707.5 c 128,-1,60
 272 743 272 743 247.5 779.5 c 128,-1,61
 223 816 223 816 213 854 c 128,-1,62
 203 892 203 892 203 928 c 0,63,64
 203 994 203 994 233.5 1059 c 128,-1,65
 264 1124 264 1124 319.5 1175 c 128,-1,66
 375 1226 375 1226 453.5 1258 c 128,-1,67
 532 1290 532 1290 629 1290 c 0,68,69
 701 1290 701 1290 762.5 1262.5 c 128,-1,70
 824 1235 824 1235 872 1198 c 0,0,1
EndSplineSet
EndChar

StartChar: T
Encoding: 84 84 52
Width: 1067
Flags: W
LayerCount: 2
Fore
SplineSet
1118 1235 m 1,0,1
 1114 1211 1114 1211 1108 1180.5 c 128,-1,2
 1102 1150 1102 1150 1094 1118 c 128,-1,3
 1086 1086 1086 1086 1077.5 1055 c 128,-1,4
 1069 1024 1069 1024 1061 999 c 1,5,-1
 1020 999 l 1,6,7
 1018 1049 1018 1049 1014 1082 c 128,-1,8
 1010 1115 1010 1115 1002.5 1134.5 c 128,-1,9
 995 1154 995 1154 982.5 1161.5 c 128,-1,10
 970 1169 970 1169 950 1169 c 2,11,-1
 693 1169 l 1,12,-1
 549 115 l 2,13,14
 547 102 547 102 578 82 c 128,-1,15
 609 62 609 62 690 43 c 1,16,-1
 684 0 l 1,17,-1
 238 0 l 1,18,-1
 244 43 l 1,19,20
 330 62 330 62 365.5 81.5 c 128,-1,21
 401 101 401 101 403 115 c 2,22,-1
 550 1169 l 1,23,-1
 279 1169 l 2,24,25
 266 1169 266 1169 254.5 1163.5 c 128,-1,26
 243 1158 243 1158 229 1140 c 128,-1,27
 215 1122 215 1122 196 1087.5 c 128,-1,28
 177 1053 177 1053 150 995 c 1,29,-1
 113 1014 l 1,30,31
 116 1040 116 1040 122.5 1072.5 c 128,-1,32
 129 1105 129 1105 137.5 1138.5 c 128,-1,33
 146 1172 146 1172 155.5 1203.5 c 128,-1,34
 165 1235 165 1235 174 1260 c 1,35,-1
 1096 1260 l 1,36,-1
 1118 1235 l 1,37,-1
 1118 1235 l 1,0,1
EndSplineSet
EndChar

StartChar: U
Encoding: 85 85 53
Width: 1227
Flags: W
LayerCount: 2
Fore
SplineSet
1280 1217 m 1,0,1
 1217 1203 1217 1203 1182 1186 c 128,-1,2
 1147 1169 1147 1169 1145 1155 c 2,3,-1
 1055 512 l 2,4,5
 1037 381 1037 381 994.5 279.5 c 128,-1,6
 952 178 952 178 887.5 109 c 128,-1,7
 823 40 823 40 739.5 4.5 c 128,-1,8
 656 -31 656 -31 557 -31 c 0,9,10
 475 -31 475 -31 406.5 -6 c 128,-1,11
 338 19 338 19 289 67 c 128,-1,12
 240 115 240 115 213 185.5 c 128,-1,13
 186 256 186 256 186 348 c 0,14,15
 186 374 186 374 188 403 c 128,-1,16
 190 432 190 432 195 463 c 2,17,-1
 293 1155 l 2,18,19
 295 1167 295 1167 264 1185 c 128,-1,20
 233 1203 233 1203 168 1217 c 1,21,-1
 174 1260 l 1,22,-1
 584 1260 l 1,23,-1
 578 1217 l 1,24,25
 515 1203 515 1203 477 1186 c 128,-1,26
 439 1169 439 1169 436 1155 c 1,27,-1
 348 510 l 1,28,29
 342 451 342 451 342 397 c 0,30,31
 342 327 342 327 359 270 c 128,-1,32
 376 213 376 213 409.5 172 c 128,-1,33
 443 131 443 131 493 108.5 c 128,-1,34
 543 86 543 86 608 86 c 256,35,36
 673 86 673 86 728 118 c 128,-1,37
 783 150 783 150 824.5 203 c 128,-1,38
 866 256 866 256 893.5 325 c 128,-1,39
 921 394 921 394 932 469 c 2,40,-1
 1024 1155 l 1,41,42
 1027 1167 1027 1167 998.5 1185 c 128,-1,43
 970 1203 970 1203 905 1217 c 1,44,-1
 911 1260 l 1,45,-1
 1286 1260 l 1,46,-1
 1280 1217 l 1,0,1
EndSplineSet
EndChar

StartChar: V
Encoding: 86 86 54
Width: 1214
Flags: W
LayerCount: 2
Fore
SplineSet
1298 1217 m 1,0,1
 1235 1204 1235 1204 1198 1191.5 c 128,-1,2
 1161 1179 1161 1179 1147 1151 c 1,3,-1
 647 59 l 2,4,5
 637 37 637 37 617 21 c 128,-1,6
 597 5 597 5 574 -5.5 c 128,-1,7
 551 -16 551 -16 529.5 -22 c 128,-1,8
 508 -28 508 -28 496 -31 c 1,9,-1
 256 1151 l 2,10,11
 251 1177 251 1177 224.5 1193 c 128,-1,12
 198 1209 198 1209 139 1217 c 1,13,-1
 145 1260 l 1,14,-1
 543 1260 l 1,15,-1
 537 1217 l 1,16,17
 465 1212 465 1212 435 1197 c 128,-1,18
 405 1182 405 1182 412 1151 c 2,19,-1
 602 195 l 1,20,-1
 1042 1151 l 2,21,22
 1056 1180 1056 1180 1024 1193.5 c 128,-1,23
 992 1207 992 1207 920 1217 c 1,24,-1
 926 1260 l 1,25,-1
 1305 1260 l 1,26,-1
 1298 1217 l 1,0,1
EndSplineSet
EndChar

StartChar: W
Encoding: 87 87 55
Width: 1571
Flags: W
LayerCount: 2
Fore
SplineSet
1665 1217 m 1,0,1
 1636 1210 1636 1210 1610 1204 c 128,-1,2
 1584 1198 1584 1198 1564 1191 c 128,-1,3
 1544 1184 1544 1184 1530.5 1175.5 c 128,-1,4
 1517 1167 1517 1167 1513 1155 c 2,5,-1
 1153 59 l 2,6,7
 1145 37 1145 37 1127.5 21 c 128,-1,8
 1110 5 1110 5 1089.5 -5.5 c 128,-1,9
 1069 -16 1069 -16 1048.5 -22 c 128,-1,10
 1028 -28 1028 -28 1016 -31 c 1,11,-1
 851 946 l 1,12,-1
 467 59 l 2,13,14
 457 36 457 36 437 20.5 c 128,-1,15
 417 5 417 5 395 -5.5 c 128,-1,16
 373 -16 373 -16 352 -22 c 128,-1,17
 331 -28 331 -28 319 -31 c 1,18,-1
 246 1147 l 2,19,20
 244 1172 244 1172 219 1188 c 128,-1,21
 194 1204 194 1204 129 1217 c 1,22,-1
 135 1260 l 1,23,-1
 526 1260 l 1,24,-1
 520 1217 l 1,25,26
 476 1212 476 1212 449 1204.5 c 128,-1,27
 422 1197 422 1197 407.5 1188 c 128,-1,28
 393 1179 393 1179 388.5 1168.5 c 128,-1,29
 384 1158 384 1158 385 1147 c 2,30,-1
 444 254 l 1,31,-1
 881 1260 l 1,32,-1
 936 1260 l 1,33,-1
 1116 254 l 1,34,-1
 1409 1155 l 2,35,36
 1413 1167 1413 1167 1404.5 1176 c 128,-1,37
 1396 1185 1396 1185 1378 1192 c 128,-1,38
 1360 1199 1360 1199 1334.5 1205 c 128,-1,39
 1309 1211 1309 1211 1278 1217 c 1,40,-1
 1284 1260 l 1,41,-1
 1669 1260 l 1,42,-1
 1665 1217 l 1,0,1
EndSplineSet
EndChar

StartChar: X
Encoding: 88 88 56
Width: 1171
Flags: W
LayerCount: 2
Fore
SplineSet
1085 0 m 1,0,-1
 674 0 l 1,1,-1
 680 43 l 1,2,3
 720 47 720 47 746 53.5 c 128,-1,4
 772 60 772 60 784.5 69.5 c 128,-1,5
 797 79 797 79 797.5 93 c 128,-1,6
 798 107 798 107 788 127 c 2,7,-1
 581 547 l 1,8,-1
 287 127 l 2,9,10
 256 83 256 83 285 66 c 128,-1,11
 314 49 314 49 397 43 c 1,12,-1
 391 0 l 1,13,-1
 -20 0 l 1,14,-1
 -14 43 l 1,15,16
 46 48 46 48 91 66.5 c 128,-1,17
 136 85 136 85 164 127 c 2,18,-1
 529 653 l 1,19,-1
 293 1133 l 1,20,21
 281 1155 281 1155 270 1169 c 128,-1,22
 259 1183 259 1183 244 1192 c 128,-1,23
 229 1201 229 1201 208.5 1206.5 c 128,-1,24
 188 1212 188 1212 158 1217 c 1,25,-1
 164 1260 l 1,26,-1
 575 1260 l 1,27,-1
 569 1217 l 1,28,29
 491 1209 491 1209 464 1193 c 128,-1,30
 437 1177 437 1177 459 1133 c 2,31,-1
 639 767 l 1,32,-1
 895 1133 l 2,33,34
 911 1156 911 1156 911 1170 c 0,35,36
 911 1185 911 1185 896 1194.5 c 128,-1,37
 881 1204 881 1204 852.5 1209 c 128,-1,38
 824 1214 824 1214 784 1217 c 1,39,-1
 791 1260 l 1,40,-1
 1202 1260 l 1,41,-1
 1196 1217 l 1,42,43
 1163 1213 1163 1213 1137 1207.5 c 128,-1,44
 1111 1202 1111 1202 1089.5 1192.5 c 128,-1,45
 1068 1183 1068 1183 1050.5 1168.5 c 128,-1,46
 1033 1154 1033 1154 1018 1133 c 2,47,-1
 690 665 l 1,48,-1
 956 127 l 1,49,50
 976 84 976 84 1007.5 67 c 128,-1,51
 1039 50 1039 50 1092 43 c 1,52,-1
 1085 0 l 1,0,-1
EndSplineSet
EndChar

StartChar: Y
Encoding: 89 89 57
Width: 1145
Flags: W
LayerCount: 2
Fore
SplineSet
733 0 m 1,0,-1
 287 0 l 1,1,-1
 293 43 l 1,2,3
 380 62 380 62 415.5 81.5 c 128,-1,4
 451 101 451 101 453 115 c 2,5,-1
 512 551 l 1,6,7
 494 624 494 624 465 708.5 c 128,-1,8
 436 793 436 793 401.5 875.5 c 128,-1,9
 367 958 367 958 330.5 1031.5 c 128,-1,10
 294 1105 294 1105 260 1155 c 0,11,12
 250 1170 250 1170 238.5 1179 c 128,-1,13
 227 1188 227 1188 210.5 1192.5 c 128,-1,14
 194 1197 194 1197 170 1196.5 c 128,-1,15
 146 1196 146 1196 111 1192 c 1,16,-1
 102 1235 l 1,17,18
 129 1242 129 1242 161.5 1249 c 128,-1,19
 194 1256 194 1256 226 1262 c 128,-1,20
 258 1268 258 1268 286.5 1272 c 128,-1,21
 315 1276 315 1276 334 1276 c 0,22,23
 360 1276 360 1276 385 1237 c 0,24,25
 407 1204 407 1204 431 1159 c 128,-1,26
 455 1114 455 1114 479.5 1062.5 c 128,-1,27
 504 1011 504 1011 526.5 957.5 c 128,-1,28
 549 904 549 904 568.5 852.5 c 128,-1,29
 588 801 588 801 602.5 756 c 128,-1,30
 617 711 617 711 625 678 c 1,31,-1
 934 1151 l 1,32,33
 951 1179 951 1179 928.5 1193 c 128,-1,34
 906 1207 906 1207 838 1217 c 1,35,-1
 844 1260 l 1,36,-1
 1204 1260 l 1,37,-1
 1198 1217 l 1,38,39
 1135 1204 1135 1204 1099.5 1190.5 c 128,-1,40
 1064 1177 1064 1177 1047 1151 c 2,41,-1
 657 542 l 1,42,-1
 598 115 l 2,43,44
 597 109 597 109 603.5 100.5 c 128,-1,45
 610 92 610 92 626.5 82 c 128,-1,46
 643 72 643 72 670.5 62 c 128,-1,47
 698 52 698 52 739 43 c 1,48,-1
 733 0 l 1,0,-1
EndSplineSet
EndChar

StartChar: Z
Encoding: 90 90 58
Width: 1022
Flags: W
LayerCount: 2
Fore
SplineSet
242 100 m 1,0,-1
 727 100 l 2,1,2
 747 100 747 100 765 109.5 c 128,-1,3
 783 119 783 119 801.5 143.5 c 128,-1,4
 820 168 820 168 840.5 210 c 128,-1,5
 861 252 861 252 887 317 c 1,6,-1
 936 303 l 1,7,8
 930 270 930 270 923 229.5 c 128,-1,9
 916 189 916 189 909 147.5 c 128,-1,10
 902 106 902 106 895 67.5 c 128,-1,11
 888 29 888 29 883 0 c 1,12,-1
 49 0 l 1,13,-1
 31 45 l 1,14,-1
 821 1167 l 1,15,-1
 399 1167 l 2,16,17
 384 1167 384 1167 364.5 1156 c 128,-1,18
 345 1145 345 1145 323.5 1121 c 128,-1,19
 302 1097 302 1097 281 1058 c 128,-1,20
 260 1019 260 1019 242 963 c 1,21,-1
 190 975 l 1,22,-1
 262 1286 l 1,23,24
 286 1276 286 1276 306 1271 c 128,-1,25
 326 1266 326 1266 346 1263.5 c 128,-1,26
 366 1261 366 1261 387 1260.5 c 128,-1,27
 408 1260 408 1260 434 1260 c 2,28,-1
 1006 1260 l 1,29,-1
 1024 1214 l 1,30,-1
 242 100 l 1,0,-1
EndSplineSet
EndChar

StartChar: bracketleft
Encoding: 91 91 59
Width: 586
Flags: W
LayerCount: 2
Fore
SplineSet
686 1573 m 1,0,1
 680 1548 680 1548 668.5 1523.5 c 128,-1,2
 657 1499 657 1499 649 1487 c 1,3,-1
 387 1487 l 1,4,-1
 147 -221 l 1,5,-1
 403 -221 l 1,6,-1
 432 -250 l 1,7,8
 426 -270 426 -270 415.5 -294.5 c 128,-1,9
 405 -319 405 -319 395 -336 c 1,10,-1
 2 -336 l 1,11,-1
 274 1599 l 1,12,-1
 659 1599 l 1,13,-1
 686 1573 l 1,14,-1
 686 1573 l 1,0,1
EndSplineSet
EndChar

StartChar: backslash
Encoding: 92 92 60
Width: 819
Flags: W
LayerCount: 2
Fore
SplineSet
647 -336 m 1,0,1
 636 -332 636 -332 620 -326 c 128,-1,2
 604 -320 604 -320 587.5 -313.5 c 128,-1,3
 571 -307 571 -307 556.5 -299.5 c 128,-1,4
 542 -292 542 -292 535 -285 c 1,5,-1
 145 1577 l 1,6,-1
 182 1599 l 1,7,8
 210 1591 210 1591 240 1579 c 128,-1,9
 270 1567 270 1567 295 1550 c 1,10,-1
 682 -311 l 1,11,-1
 647 -336 l 1,0,1
EndSplineSet
EndChar

StartChar: bracketright
Encoding: 93 93 61
Width: 586
Flags: W
LayerCount: 2
Fore
SplineSet
328 -336 m 1,0,-1
 -57 -336 l 1,1,-1
 -86 -307 l 1,2,3
 -78 -284 -78 -284 -67.5 -259 c 128,-1,4
 -57 -234 -57 -234 -49 -221 c 1,5,-1
 213 -221 l 1,6,-1
 453 1487 l 1,7,-1
 199 1487 l 1,8,-1
 170 1513 l 1,9,10
 176 1535 176 1535 187 1558.5 c 128,-1,11
 198 1582 198 1582 207 1599 c 1,12,-1
 598 1599 l 1,13,-1
 328 -336 l 1,0,-1
EndSplineSet
EndChar

StartChar: asciicircum
Encoding: 94 94 62
Width: 938
Flags: W
LayerCount: 2
Fore
SplineSet
854 635 m 1,0,1
 826 612 826 612 801.5 596.5 c 128,-1,2
 777 581 777 581 743 565 c 1,3,-1
 713 592 l 1,4,-1
 553 1315 l 1,5,-1
 223 635 l 1,6,7
 212 625 212 625 197 614.5 c 128,-1,8
 182 604 182 604 166.5 594.5 c 128,-1,9
 151 585 151 585 137 577.5 c 128,-1,10
 123 570 123 570 113 565 c 1,11,-1
 94 592 l 1,12,-1
 516 1462 l 1,13,14
 529 1474 529 1474 547 1486.5 c 128,-1,15
 565 1499 565 1499 584 1511 c 128,-1,16
 603 1523 603 1523 621 1533 c 128,-1,17
 639 1543 639 1543 653 1550 c 1,18,-1
 854 635 l 1,19,-1
 854 635 l 1,0,1
EndSplineSet
EndChar

StartChar: underscore
Encoding: 95 95 63
Width: 893
Flags: W
LayerCount: 2
Fore
SplineSet
731 -156 m 1,0,1
 725 -177 725 -177 713.5 -202 c 128,-1,2
 702 -227 702 -227 692 -246 c 1,3,-1
 -37 -246 l 1,4,-1
 -53 -219 l 1,5,6
 -47 -199 -47 -199 -36 -175 c 128,-1,7
 -25 -151 -25 -151 -12 -131 c 1,8,-1
 713 -131 l 1,9,-1
 731 -156 l 1,10,-1
 731 -156 l 1,0,1
EndSplineSet
EndChar

StartChar: a
Encoding: 97 97 64
Width: 922
Flags: W
LayerCount: 2
Fore
SplineSet
602 429 m 1,0,1
 609 475 609 475 617.5 525.5 c 128,-1,2
 626 576 626 576 634 621.5 c 128,-1,3
 642 667 642 667 649 704 c 128,-1,4
 656 741 656 741 659 760 c 1,5,-1
 659 762 l 1,6,7
 644 774 644 774 626 786 c 128,-1,8
 608 798 608 798 588 808 c 128,-1,9
 568 818 568 818 546 824.5 c 128,-1,10
 524 831 524 831 500 831 c 0,11,12
 454 831 454 831 413.5 808.5 c 128,-1,13
 373 786 373 786 338.5 749 c 128,-1,14
 304 712 304 712 276.5 664.5 c 128,-1,15
 249 617 249 617 230 566.5 c 128,-1,16
 211 516 211 516 200.5 467 c 128,-1,17
 190 418 190 418 190 379 c 0,18,19
 190 314 190 314 201 262 c 128,-1,20
 212 210 212 210 231 173 c 128,-1,21
 250 136 250 136 276 116 c 128,-1,22
 302 96 302 96 332 96 c 0,23,24
 356 96 356 96 390 126 c 128,-1,25
 424 156 424 156 461.5 204 c 128,-1,26
 499 252 499 252 536 311.5 c 128,-1,27
 573 371 573 371 602 429 c 1,0,1
821 842 m 1,28,29
 819 840 819 840 819 840 c 1,30,31
 812 826 812 826 807 807 c 128,-1,32
 802 788 802 788 797 760 c 0,33,34
 782 688 782 688 768.5 612.5 c 128,-1,35
 755 537 755 537 745.5 470 c 128,-1,36
 736 403 736 403 730.5 352 c 128,-1,37
 725 301 725 301 725 279 c 0,38,39
 725 222 725 222 728.5 183 c 128,-1,40
 732 144 732 144 738 120.5 c 128,-1,41
 744 97 744 97 753 86.5 c 128,-1,42
 762 76 762 76 774 76 c 0,43,44
 794 76 794 76 821.5 81.5 c 128,-1,45
 849 87 849 87 889 104 c 1,46,-1
 901 68 l 1,47,48
 814 11 814 11 760.5 -15 c 128,-1,49
 707 -41 707 -41 678 -41 c 0,50,51
 660 -41 660 -41 643.5 -28.5 c 128,-1,52
 627 -16 627 -16 614 18.5 c 128,-1,53
 601 53 601 53 593.5 114 c 128,-1,54
 586 175 586 175 586 272 c 1,55,56
 560 226 560 226 522.5 171.5 c 128,-1,57
 485 117 485 117 442 69.5 c 128,-1,58
 399 22 399 22 353.5 -9.5 c 128,-1,59
 308 -41 308 -41 266 -41 c 0,60,61
 233 -41 233 -41 195.5 -22 c 128,-1,62
 158 -3 158 -3 126.5 38.5 c 128,-1,63
 95 80 95 80 74 145.5 c 128,-1,64
 53 211 53 211 53 305 c 0,65,66
 53 384 53 384 71.5 459.5 c 128,-1,67
 90 535 90 535 127 604 c 128,-1,68
 164 673 164 673 217.5 733.5 c 128,-1,69
 271 794 271 794 342 842 c 0,70,71
 369 860 369 860 401.5 877 c 128,-1,72
 434 894 434 894 468.5 907 c 128,-1,73
 503 920 503 920 537 928 c 128,-1,74
 571 936 571 936 602 936 c 0,75,76
 623 936 623 936 643 930.5 c 128,-1,77
 663 925 663 925 681.5 916 c 128,-1,78
 700 907 700 907 718 896 c 128,-1,79
 736 885 736 885 752 875 c 1,80,81
 775 892 775 892 800.5 907.5 c 128,-1,82
 826 923 826 923 852 936 c 1,83,-1
 872 901 l 1,84,85
 852 885 852 885 840 872.5 c 128,-1,86
 828 860 828 860 820 842 c 1,87,-1
 821 842 l 1,88,-1
 821 842 l 1,28,29
EndSplineSet
EndChar

StartChar: b
Encoding: 98 98 65
Width: 956
Flags: W
LayerCount: 2
Fore
SplineSet
604 803 m 0,0,1
 585 803 585 803 549 778.5 c 128,-1,2
 513 754 513 754 469.5 709.5 c 128,-1,3
 426 665 426 665 380.5 604.5 c 128,-1,4
 335 544 335 544 298 472 c 1,5,6
 287 400 287 400 281.5 343.5 c 128,-1,7
 276 287 276 287 276 256 c 0,8,9
 276 230 276 230 291.5 200 c 128,-1,10
 307 170 307 170 333 144.5 c 128,-1,11
 359 119 359 119 391.5 102.5 c 128,-1,12
 424 86 424 86 459 86 c 0,13,14
 495 86 495 86 526 99 c 128,-1,15
 557 112 557 112 583.5 132.5 c 128,-1,16
 610 153 610 153 631 178.5 c 128,-1,17
 652 204 652 204 668 229 c 0,18,19
 691 265 691 265 705 304 c 128,-1,20
 719 343 719 343 727 382 c 128,-1,21
 735 421 735 421 738 458.5 c 128,-1,22
 741 496 741 496 741 530 c 0,23,24
 741 599 741 599 728.5 650.5 c 128,-1,25
 716 702 716 702 696.5 736 c 128,-1,26
 677 770 677 770 652.5 786.5 c 128,-1,27
 628 803 628 803 604 803 c 0,0,1
885 610 m 0,28,29
 883 504 883 504 853.5 396.5 c 128,-1,30
 824 289 824 289 752 188 c 1,31,32
 718 143 718 143 676.5 101.5 c 128,-1,33
 635 60 635 60 586 28.5 c 128,-1,34
 537 -3 537 -3 481 -22 c 128,-1,35
 425 -41 425 -41 362 -41 c 0,36,37
 341 -41 341 -41 315.5 -30.5 c 128,-1,38
 290 -20 290 -20 263.5 -1 c 128,-1,39
 237 18 237 18 211.5 43 c 128,-1,40
 186 68 186 68 166.5 96.5 c 128,-1,41
 147 125 147 125 135 156 c 128,-1,42
 123 187 123 187 123 217 c 0,43,44
 123 243 123 243 129.5 299 c 128,-1,45
 136 355 136 355 146.5 430 c 128,-1,46
 157 505 157 505 170.5 593 c 128,-1,47
 184 681 184 681 197.5 772.5 c 128,-1,48
 211 864 211 864 224.5 953.5 c 128,-1,49
 238 1043 238 1043 248.5 1120 c 128,-1,50
 259 1197 259 1197 265.5 1256 c 128,-1,51
 272 1315 272 1315 272 1346 c 0,52,53
 272 1369 272 1369 267 1382.5 c 128,-1,54
 262 1396 262 1396 254 1402.5 c 128,-1,55
 246 1409 246 1409 237 1411 c 128,-1,56
 228 1413 228 1413 219 1413 c 256,57,58
 210 1413 210 1413 193 1409 c 128,-1,59
 176 1405 176 1405 159.5 1399.5 c 128,-1,60
 143 1394 143 1394 131 1390 c 128,-1,61
 119 1386 119 1386 119 1386 c 1,62,-1
 106 1425 l 1,63,64
 148 1444 148 1444 192 1461 c 128,-1,65
 236 1478 236 1478 274.5 1491 c 128,-1,66
 313 1504 313 1504 342 1512 c 128,-1,67
 371 1520 371 1520 383 1520 c 0,68,69
 411 1520 411 1520 421.5 1502 c 128,-1,70
 432 1484 432 1484 432 1438 c 0,71,72
 432 1408 432 1408 427 1357 c 128,-1,73
 422 1306 422 1306 413.5 1241.5 c 128,-1,74
 405 1177 405 1177 393.5 1101.5 c 128,-1,75
 382 1026 382 1026 369.5 946 c 128,-1,76
 357 866 357 866 344 784.5 c 128,-1,77
 331 703 331 703 320 627 c 1,78,79
 371 713 371 713 425.5 772 c 128,-1,80
 480 831 480 831 531 867.5 c 128,-1,81
 582 904 582 904 626.5 920 c 128,-1,82
 671 936 671 936 702 936 c 0,83,84
 741 936 741 936 775 914.5 c 128,-1,85
 809 893 809 893 833.5 852 c 128,-1,86
 858 811 858 811 872 750 c 128,-1,87
 886 689 886 689 885 610 c 0,28,29
EndSplineSet
EndChar

StartChar: c
Encoding: 99 99 66
Width: 795
Flags: W
LayerCount: 2
Fore
SplineSet
813 815 m 1,0,1
 792 800 792 800 768.5 783 c 128,-1,2
 745 766 745 766 723 752.5 c 128,-1,3
 701 739 701 739 681.5 730 c 128,-1,4
 662 721 662 721 649 721 c 0,5,6
 638 721 638 721 622 738 c 128,-1,7
 606 755 606 755 584.5 776 c 128,-1,8
 563 797 563 797 536 814 c 128,-1,9
 509 831 509 831 477 831 c 0,10,11
 432 831 432 831 393.5 809 c 128,-1,12
 355 787 355 787 324 750 c 128,-1,13
 293 713 293 713 269.5 664.5 c 128,-1,14
 246 616 246 616 230.5 563.5 c 128,-1,15
 215 511 215 511 207 458 c 128,-1,16
 199 405 199 405 199 358 c 0,17,18
 199 293 199 293 213.5 241 c 128,-1,19
 228 189 228 189 254 152.5 c 128,-1,20
 280 116 280 116 316 96 c 128,-1,21
 352 76 352 76 395 76 c 0,22,23
 413 76 413 76 441 82 c 128,-1,24
 469 88 469 88 505.5 104.5 c 128,-1,25
 542 121 542 121 587 149 c 128,-1,26
 632 177 632 177 686 221 c 1,27,28
 694 210 694 210 703 199 c 128,-1,29
 712 188 712 188 717 180 c 1,30,31
 639 109 639 109 577 65.5 c 128,-1,32
 515 22 515 22 464.5 -1.5 c 128,-1,33
 414 -25 414 -25 373.5 -33 c 128,-1,34
 333 -41 333 -41 297 -41 c 0,35,36
 263 -41 263 -41 221 -24 c 128,-1,37
 179 -7 179 -7 141.5 35 c 128,-1,38
 104 77 104 77 78.5 147 c 128,-1,39
 53 217 53 217 53 322 c 0,40,41
 53 389 53 389 67 460.5 c 128,-1,42
 81 532 81 532 112.5 600.5 c 128,-1,43
 144 669 144 669 194.5 731 c 128,-1,44
 245 793 245 793 319 842 c 0,45,46
 347 860 347 860 381 877 c 128,-1,47
 415 894 415 894 451.5 907 c 128,-1,48
 488 920 488 920 523.5 928 c 128,-1,49
 559 936 559 936 590 936 c 0,50,51
 634 936 634 936 668.5 919 c 128,-1,52
 703 902 703 902 730 880.5 c 128,-1,53
 757 859 757 859 777.5 839.5 c 128,-1,54
 798 820 798 820 813 815 c 1,0,1
EndSplineSet
EndChar

StartChar: d
Encoding: 100 100 67
Width: 969
Flags: W
LayerCount: 2
Fore
SplineSet
621 424 m 1,0,1
 630 484 630 484 642 560.5 c 128,-1,2
 654 637 654 637 668 722 c 1,3,4
 651 740 651 740 631.5 759.5 c 128,-1,5
 612 779 612 779 589.5 795 c 128,-1,6
 567 811 567 811 542 821 c 128,-1,7
 517 831 517 831 489 831 c 0,8,9
 444 831 444 831 404 808.5 c 128,-1,10
 364 786 364 786 330.5 749 c 128,-1,11
 297 712 297 712 271 664.5 c 128,-1,12
 245 617 245 617 227 566.5 c 128,-1,13
 209 516 209 516 199.5 467 c 128,-1,14
 190 418 190 418 190 379 c 0,15,16
 190 314 190 314 203.5 262 c 128,-1,17
 217 210 217 210 239 173 c 128,-1,18
 261 136 261 136 289 116 c 128,-1,19
 317 96 317 96 346 96 c 0,20,21
 373 96 373 96 406 121 c 128,-1,22
 439 146 439 146 474.5 190.5 c 128,-1,23
 510 235 510 235 547.5 295 c 128,-1,24
 585 355 585 355 621 424 c 1,0,1
924 68 m 1,25,26
 839 11 839 11 784.5 -15 c 128,-1,27
 730 -41 730 -41 696 -41 c 0,28,29
 677 -41 677 -41 661 -25.5 c 128,-1,30
 645 -10 645 -10 633.5 27.5 c 128,-1,31
 622 65 622 65 615 127 c 128,-1,32
 608 189 608 189 608 281 c 1,33,34
 574 218 574 218 534.5 160 c 128,-1,35
 495 102 495 102 452 57 c 128,-1,36
 409 12 409 12 364 -14.5 c 128,-1,37
 319 -41 319 -41 276 -41 c 0,38,39
 242 -41 242 -41 203 -20.5 c 128,-1,40
 164 0 164 0 130.5 43.5 c 128,-1,41
 97 87 97 87 75 154.5 c 128,-1,42
 53 222 53 222 53 315 c 0,43,44
 53 394 53 394 70 468.5 c 128,-1,45
 87 543 87 543 121.5 610.5 c 128,-1,46
 156 678 156 678 208.5 736.5 c 128,-1,47
 261 795 261 795 332 842 c 0,48,49
 360 860 360 860 392.5 876.5 c 128,-1,50
 425 893 425 893 459 906.5 c 128,-1,51
 493 920 493 920 527 928 c 128,-1,52
 561 936 561 936 592 936 c 0,53,54
 617 936 617 936 643 920 c 128,-1,55
 669 904 669 904 695 883 c 1,56,57
 707 956 707 956 717.5 1026 c 128,-1,58
 728 1096 728 1096 736 1156.5 c 128,-1,59
 744 1217 744 1217 749 1266 c 128,-1,60
 754 1315 754 1315 754 1346 c 0,61,62
 754 1369 754 1369 750.5 1382.5 c 128,-1,63
 747 1396 747 1396 740.5 1402.5 c 128,-1,64
 734 1409 734 1409 726 1411 c 128,-1,65
 718 1413 718 1413 709 1413 c 256,66,67
 700 1413 700 1413 682.5 1409 c 128,-1,68
 665 1405 665 1405 647 1399.5 c 128,-1,69
 629 1394 629 1394 615.5 1390 c 128,-1,70
 602 1386 602 1386 602 1386 c 1,71,-1
 590 1425 l 1,72,73
 632 1444 632 1444 674.5 1461 c 128,-1,74
 717 1478 717 1478 753.5 1491 c 128,-1,75
 790 1504 790 1504 818 1512 c 128,-1,76
 846 1520 846 1520 858 1520 c 0,77,78
 886 1520 886 1520 899.5 1502 c 128,-1,79
 913 1484 913 1484 913 1438 c 0,80,81
 913 1399 913 1399 906 1337 c 128,-1,82
 899 1275 899 1275 887.5 1198 c 128,-1,83
 876 1121 876 1121 861.5 1034 c 128,-1,84
 847 947 847 947 831.5 858.5 c 128,-1,85
 816 770 816 770 801.5 684 c 128,-1,86
 787 598 787 598 775.5 524 c 128,-1,87
 764 450 764 450 757 391.5 c 128,-1,88
 750 333 750 333 750 299 c 0,89,90
 750 183 750 183 761 130.5 c 128,-1,91
 772 78 772 78 795 78 c 0,92,93
 821 78 821 78 848.5 83.5 c 128,-1,94
 876 89 876 89 911 104 c 1,95,-1
 924 68 l 1,96,-1
 924 68 l 1,25,26
EndSplineSet
EndChar

StartChar: e
Encoding: 101 101 68
Width: 805
Flags: W
LayerCount: 2
Fore
SplineSet
391 782 m 0,0,1
 358 752 358 752 326.5 709 c 128,-1,2
 295 666 295 666 269.5 616 c 128,-1,3
 244 566 244 566 227 511.5 c 128,-1,4
 210 457 210 457 206 404 c 1,5,6
 337 455 337 455 413.5 496.5 c 128,-1,7
 490 538 490 538 529 575 c 128,-1,8
 568 612 568 612 579 646 c 128,-1,9
 590 680 590 680 590 715 c 0,10,11
 590 746 590 746 582 768.5 c 128,-1,12
 574 791 574 791 561 804.5 c 128,-1,13
 548 818 548 818 531.5 824.5 c 128,-1,14
 515 831 515 831 498 831 c 0,15,16
 482 831 482 831 451 819.5 c 128,-1,17
 420 808 420 808 391 782 c 0,0,1
750 760 m 0,18,19
 750 732 750 732 743.5 701 c 128,-1,20
 737 670 737 670 716.5 637 c 128,-1,21
 696 604 696 604 659.5 568 c 128,-1,22
 623 532 623 532 562.5 493.5 c 128,-1,23
 502 455 502 455 415 413.5 c 128,-1,24
 328 372 328 372 207 327 c 1,25,26
 213 271 213 271 230.5 225 c 128,-1,27
 248 179 248 179 271.5 146 c 128,-1,28
 295 113 295 113 322.5 94.5 c 128,-1,29
 350 76 350 76 377 76 c 0,30,31
 398 76 398 76 428 80.5 c 128,-1,32
 458 85 458 85 497.5 100 c 128,-1,33
 537 115 537 115 586.5 144 c 128,-1,34
 636 173 636 173 696 221 c 1,35,36
 707 215 707 215 715.5 201.5 c 128,-1,37
 724 188 724 188 727 180 c 1,38,39
 645 109 645 109 582 65.5 c 128,-1,40
 519 22 519 22 469.5 -1.5 c 128,-1,41
 420 -25 420 -25 380.5 -33 c 128,-1,42
 341 -41 341 -41 305 -41 c 0,43,44
 272 -41 272 -41 230 -22.5 c 128,-1,45
 188 -4 188 -4 151 36.5 c 128,-1,46
 114 77 114 77 88.5 142.5 c 128,-1,47
 63 208 63 208 63 303 c 0,48,49
 63 381 63 381 82 456.5 c 128,-1,50
 101 532 101 532 136.5 601.5 c 128,-1,51
 172 671 172 671 224 733 c 128,-1,52
 276 795 276 795 342 846 c 0,53,54
 365 864 365 864 394 880.5 c 128,-1,55
 423 897 423 897 454.5 909.5 c 128,-1,56
 486 922 486 922 518.5 929 c 128,-1,57
 551 936 551 936 582 936 c 0,58,59
 625 936 625 936 656.5 920.5 c 128,-1,60
 688 905 688 905 709 880 c 128,-1,61
 730 855 730 855 740 823.5 c 128,-1,62
 750 792 750 792 750 760 c 0,18,19
EndSplineSet
EndChar

StartChar: f
Encoding: 102 102 69
Width: 559
Flags: W
LayerCount: 2
Fore
SplineSet
903 1403 m 1,0,1
 882 1388 882 1388 858 1370.5 c 128,-1,2
 834 1353 834 1353 811 1338.5 c 128,-1,3
 788 1324 788 1324 768.5 1314.5 c 128,-1,4
 749 1305 749 1305 737 1305 c 0,5,6
 724 1305 724 1305 711 1322.5 c 128,-1,7
 698 1340 698 1340 682 1361 c 128,-1,8
 666 1382 666 1382 645 1399.5 c 128,-1,9
 624 1417 624 1417 596 1417 c 0,10,11
 558 1417 558 1417 529 1394.5 c 128,-1,12
 500 1372 500 1372 478 1334.5 c 128,-1,13
 456 1297 456 1297 440 1248.5 c 128,-1,14
 424 1200 424 1200 413 1148 c 128,-1,15
 402 1096 402 1096 394.5 1045 c 128,-1,16
 387 994 387 994 383 952 c 1,17,-1
 377 905 l 1,18,-1
 633 905 l 1,19,-1
 653 877 l 1,20,21
 643 863 643 863 626 846.5 c 128,-1,22
 609 830 609 830 590 815 c 128,-1,23
 571 800 571 800 553.5 787.5 c 128,-1,24
 536 775 536 775 526 770 c 1,25,26
 521 784 521 784 510.5 792.5 c 128,-1,27
 500 801 500 801 482 806 c 128,-1,28
 464 811 464 811 437 813 c 128,-1,29
 410 815 410 815 373 815 c 2,30,-1
 367 815 l 1,31,-1
 295 193 l 2,32,33
 282 83 282 83 250.5 -19.5 c 128,-1,34
 219 -122 219 -122 171.5 -210.5 c 128,-1,35
 124 -299 124 -299 62 -369.5 c 128,-1,36
 0 -440 0 -440 -74 -485 c 1,37,-1
 -100 -422 l 1,38,39
 -50 -394 -50 -394 -9.5 -334 c 128,-1,40
 31 -274 31 -274 61.5 -196 c 128,-1,41
 92 -118 92 -118 112 -30.5 c 128,-1,42
 132 57 132 57 141 139 c 2,43,-1
 219 815 l 1,44,-1
 68 815 l 1,45,-1
 53 846 l 1,46,-1
 154 905 l 1,47,-1
 229 905 l 1,48,49
 239 985 239 985 252.5 1059 c 128,-1,50
 266 1133 266 1133 290.5 1199 c 128,-1,51
 315 1265 315 1265 355.5 1322.5 c 128,-1,52
 396 1380 396 1380 459 1427 c 0,53,54
 486 1446 486 1446 511 1463 c 128,-1,55
 536 1480 536 1480 562 1493 c 128,-1,56
 588 1506 588 1506 615.5 1513 c 128,-1,57
 643 1520 643 1520 674 1520 c 0,58,59
 718 1520 718 1520 753.5 1503.5 c 128,-1,60
 789 1487 789 1487 817 1466.5 c 128,-1,61
 845 1446 845 1446 866.5 1427 c 128,-1,62
 888 1408 888 1408 903 1403 c 1,0,1
EndSplineSet
EndChar

StartChar: g
Encoding: 103 103 70
Width: 911
Flags: W
LayerCount: 2
Fore
SplineSet
338 96 m 0,0,1
 359 96 359 96 395 129.5 c 128,-1,2
 431 163 431 163 472.5 219 c 128,-1,3
 514 275 514 275 556.5 349 c 128,-1,4
 599 423 599 423 632 504 c 1,5,6
 636 542 636 542 640.5 583.5 c 128,-1,7
 645 625 645 625 653 672 c 0,8,9
 656 693 656 693 661.5 712 c 128,-1,10
 667 731 667 731 674 748 c 1,11,12
 659 760 659 760 641 774 c 128,-1,13
 623 788 623 788 601.5 801 c 128,-1,14
 580 814 580 814 555 822.5 c 128,-1,15
 530 831 530 831 502 831 c 0,16,17
 456 831 456 831 415 808.5 c 128,-1,18
 374 786 374 786 339.5 749 c 128,-1,19
 305 712 305 712 277.5 664.5 c 128,-1,20
 250 617 250 617 230.5 566.5 c 128,-1,21
 211 516 211 516 200.5 467 c 128,-1,22
 190 418 190 418 190 379 c 0,23,24
 190 314 190 314 202 262 c 128,-1,25
 214 210 214 210 234 173 c 128,-1,26
 254 136 254 136 281 116 c 128,-1,27
 308 96 308 96 338 96 c 0,0,1
879 901 m 1,28,29
 845 873 845 873 825.5 832 c 128,-1,30
 806 791 806 791 797 719 c 0,31,32
 783 600 783 600 776.5 502 c 128,-1,33
 770 404 770 404 765.5 318.5 c 128,-1,34
 761 233 761 233 754.5 155.5 c 128,-1,35
 748 78 748 78 734 1 c 0,36,37
 716 -103 716 -103 670.5 -194 c 128,-1,38
 625 -285 625 -285 562.5 -353 c 128,-1,39
 500 -421 500 -421 424.5 -460.5 c 128,-1,40
 349 -500 349 -500 271 -500 c 0,41,42
 229 -500 229 -500 180.5 -487.5 c 128,-1,43
 132 -475 132 -475 91 -457 c 128,-1,44
 50 -439 50 -439 22.5 -418 c 128,-1,45
 -5 -397 -5 -397 -5 -379 c 0,46,47
 -5 -362 -5 -362 8 -340.5 c 128,-1,48
 21 -319 21 -319 38 -300.5 c 128,-1,49
 55 -282 55 -282 71.5 -269 c 128,-1,50
 88 -256 88 -256 95 -256 c 0,51,52
 103 -256 103 -256 111.5 -266 c 128,-1,53
 120 -276 120 -276 132.5 -290.5 c 128,-1,54
 145 -305 145 -305 162.5 -322.5 c 128,-1,55
 180 -340 180 -340 205 -354.5 c 128,-1,56
 230 -369 230 -369 265 -379 c 128,-1,57
 300 -389 300 -389 347 -389 c 0,58,59
 444 -389 444 -389 501 -302 c 128,-1,60
 558 -215 558 -215 587 -48 c 0,61,62
 596 8 596 8 601.5 57.5 c 128,-1,63
 607 107 607 107 610.5 153.5 c 128,-1,64
 614 200 614 200 616 244.5 c 128,-1,65
 618 289 618 289 620 336 c 1,66,67
 588 273 588 273 545.5 206.5 c 128,-1,68
 503 140 503 140 455.5 85 c 128,-1,69
 408 30 408 30 359 -5.5 c 128,-1,70
 310 -41 310 -41 266 -41 c 0,71,72
 233 -41 233 -41 195.5 -22 c 128,-1,73
 158 -3 158 -3 125.5 38.5 c 128,-1,74
 93 80 93 80 72 145.5 c 128,-1,75
 51 211 51 211 51 305 c 0,76,77
 51 384 51 384 69 459.5 c 128,-1,78
 87 535 87 535 123.5 603.5 c 128,-1,79
 160 672 160 672 215 732.5 c 128,-1,80
 270 793 270 793 344 842 c 0,81,82
 372 860 372 860 404 877 c 128,-1,83
 436 894 436 894 470 907 c 128,-1,84
 504 920 504 920 537.5 928 c 128,-1,85
 571 936 571 936 602 936 c 0,86,87
 624 936 624 936 645 929.5 c 128,-1,88
 666 923 666 923 685.5 913 c 128,-1,89
 705 903 705 903 722.5 891 c 128,-1,90
 740 879 740 879 756 869 c 1,91,92
 779 891 779 891 804.5 907 c 128,-1,93
 830 923 830 923 856 936 c 1,94,-1
 879 901 l 1,95,-1
 879 901 l 1,28,29
EndSplineSet
EndChar

StartChar: h
Encoding: 104 104 71
Width: 1012
Flags: W
LayerCount: 2
Fore
SplineSet
969 72 m 1,0,1
 876 18 876 18 815.5 -11.5 c 128,-1,2
 755 -41 755 -41 713 -41 c 0,3,4
 684 -41 684 -41 661.5 -9.5 c 128,-1,5
 639 22 639 22 639 76 c 0,6,7
 639 94 639 94 645.5 140.5 c 128,-1,8
 652 187 652 187 661.5 249 c 128,-1,9
 671 311 671 311 682 381 c 128,-1,10
 693 451 693 451 702.5 514 c 128,-1,11
 712 577 712 577 718.5 627 c 128,-1,12
 725 677 725 677 725 700 c 0,13,14
 725 738 725 738 722 763.5 c 128,-1,15
 719 789 719 789 711.5 805 c 128,-1,16
 704 821 704 821 690.5 827.5 c 128,-1,17
 677 834 677 834 655 834 c 0,18,19
 642 834 642 834 609 818.5 c 128,-1,20
 576 803 576 803 533.5 771.5 c 128,-1,21
 491 740 491 740 445.5 693 c 128,-1,22
 400 646 400 646 362 582 c 1,23,24
 335 534 335 534 317 462.5 c 128,-1,25
 299 391 299 391 285 301 c 0,26,27
 276 246 276 246 271 204 c 128,-1,28
 266 162 266 162 263.5 129.5 c 128,-1,29
 261 97 261 97 260.5 71.5 c 128,-1,30
 260 46 260 46 262 25 c 1,31,32
 249 18 249 18 229.5 9.5 c 128,-1,33
 210 1 210 1 189.5 -8 c 128,-1,34
 169 -17 169 -17 150 -25.5 c 128,-1,35
 131 -34 131 -34 119 -41 c 1,36,-1
 86 -10 l 1,37,38
 95 44 95 44 108.5 123.5 c 128,-1,39
 122 203 122 203 137.5 298.5 c 128,-1,40
 153 394 153 394 169.5 500 c 128,-1,41
 186 606 186 606 202 711.5 c 128,-1,42
 218 817 218 817 232.5 917.5 c 128,-1,43
 247 1018 247 1018 257.5 1102.5 c 128,-1,44
 268 1187 268 1187 274.5 1250.5 c 128,-1,45
 281 1314 281 1314 281 1346 c 0,46,47
 281 1369 281 1369 277.5 1382.5 c 128,-1,48
 274 1396 274 1396 268.5 1402.5 c 128,-1,49
 263 1409 263 1409 255.5 1411 c 128,-1,50
 248 1413 248 1413 240 1413 c 0,51,52
 231 1413 231 1413 211.5 1409 c 128,-1,53
 192 1405 192 1405 173 1399.5 c 128,-1,54
 154 1394 154 1394 139.5 1390 c 128,-1,55
 125 1386 125 1386 125 1386 c 1,56,-1
 113 1425 l 1,57,58
 155 1444 155 1444 197.5 1461 c 128,-1,59
 240 1478 240 1478 277 1491 c 128,-1,60
 314 1504 314 1504 342 1512 c 128,-1,61
 370 1520 370 1520 383 1520 c 0,62,63
 411 1520 411 1520 426.5 1502 c 128,-1,64
 442 1484 442 1484 442 1438 c 0,65,66
 442 1414 442 1414 436 1358.5 c 128,-1,67
 430 1303 430 1303 420.5 1231 c 128,-1,68
 411 1159 411 1159 399 1077 c 128,-1,69
 387 995 387 995 375.5 918.5 c 128,-1,70
 364 842 364 842 354 778 c 128,-1,71
 344 714 344 714 338 678 c 1,72,73
 396 750 396 750 453 799.5 c 128,-1,74
 510 849 510 849 564 879 c 128,-1,75
 618 909 618 909 667.5 922.5 c 128,-1,76
 717 936 717 936 762 936 c 0,77,78
 825 936 825 936 852 896.5 c 128,-1,79
 879 857 879 857 879 760 c 0,80,81
 879 725 879 725 872.5 673 c 128,-1,82
 866 621 866 621 856.5 561 c 128,-1,83
 847 501 847 501 836 437 c 128,-1,84
 825 373 825 373 815.5 315.5 c 128,-1,85
 806 258 806 258 799.5 210.5 c 128,-1,86
 793 163 793 163 793 135 c 0,87,88
 793 101 793 101 805 88.5 c 128,-1,89
 817 76 817 76 829 76 c 0,90,91
 857 76 857 76 887 84.5 c 128,-1,92
 917 93 917 93 954 109 c 1,93,-1
 969 72 l 1,94,-1
 969 72 l 1,0,1
EndSplineSet
EndChar

StartChar: k
Encoding: 107 107 72
Width: 899
Flags: W
LayerCount: 2
Fore
SplineSet
440 1417 m 0,0,1
 440 1379 440 1379 434 1320 c 128,-1,2
 428 1261 428 1261 418.5 1188 c 128,-1,3
 409 1115 409 1115 396 1031.5 c 128,-1,4
 383 948 383 948 369 860 c 128,-1,5
 355 772 355 772 340.5 682 c 128,-1,6
 326 592 326 592 313 507 c 1,7,-1
 528 670 l 2,8,9
 597 722 597 722 641 759 c 128,-1,10
 685 796 685 796 697.5 818.5 c 128,-1,11
 710 841 710 841 686.5 850.5 c 128,-1,12
 663 860 663 860 596 858 c 1,13,-1
 592 897 l 1,14,15
 651 905 651 905 705.5 917.5 c 128,-1,16
 760 930 760 930 823 930 c 0,17,18
 871 930 871 930 885 916 c 128,-1,19
 899 902 899 902 899 868 c 0,20,21
 899 853 899 853 877.5 826 c 128,-1,22
 856 799 856 799 814.5 762.5 c 128,-1,23
 773 726 773 726 714 683 c 128,-1,24
 655 640 655 640 580 594 c 2,25,-1
 463 523 l 1,26,27
 489 491 489 491 516 445.5 c 128,-1,28
 543 400 543 400 569 350.5 c 128,-1,29
 595 301 595 301 620.5 252 c 128,-1,30
 646 203 646 203 670 164 c 128,-1,31
 694 125 694 125 716 100.5 c 128,-1,32
 738 76 738 76 758 76 c 0,33,34
 781 76 781 76 807.5 78.5 c 128,-1,35
 834 81 834 81 872 102 c 1,36,-1
 889 68 l 1,37,38
 823 12 823 12 773.5 -13.5 c 128,-1,39
 724 -39 724 -39 686 -39 c 0,40,41
 650 -39 650 -39 616 -5 c 128,-1,42
 582 29 582 29 549.5 82 c 128,-1,43
 517 135 517 135 486 199 c 128,-1,44
 455 263 455 263 425.5 323 c 128,-1,45
 396 383 396 383 368 431 c 128,-1,46
 340 479 340 479 313 501 c 1,47,48
 300 416 300 416 289.5 339 c 128,-1,49
 279 262 279 262 272.5 199.5 c 128,-1,50
 266 137 266 137 265 92.5 c 128,-1,51
 264 48 264 48 270 27 c 1,52,53
 256 20 256 20 235.5 11 c 128,-1,54
 215 2 215 2 194 -7.5 c 128,-1,55
 173 -17 173 -17 153 -25.5 c 128,-1,56
 133 -34 133 -34 121 -41 c 1,57,-1
 86 -10 l 1,58,59
 90 19 90 19 100 84.5 c 128,-1,60
 110 150 110 150 124.5 238.5 c 128,-1,61
 139 327 139 327 156.5 433 c 128,-1,62
 174 539 174 539 191 649 c 128,-1,63
 208 759 208 759 224.5 867 c 128,-1,64
 241 975 241 975 253.5 1068 c 128,-1,65
 266 1161 266 1161 273.5 1233 c 128,-1,66
 281 1305 281 1305 281 1343 c 0,67,68
 281 1368 281 1368 278 1382 c 128,-1,69
 275 1396 275 1396 269 1403 c 128,-1,70
 263 1410 263 1410 254 1411.5 c 128,-1,71
 245 1413 245 1413 233 1413 c 0,72,73
 225 1413 225 1413 207 1409 c 128,-1,74
 189 1405 189 1405 171 1399.5 c 128,-1,75
 153 1394 153 1394 139 1390 c 128,-1,76
 125 1386 125 1386 125 1386 c 1,77,-1
 111 1425 l 1,78,79
 153 1444 153 1444 196 1461 c 128,-1,80
 239 1478 239 1478 276 1491 c 128,-1,81
 313 1504 313 1504 341 1512 c 128,-1,82
 369 1520 369 1520 381 1520 c 0,83,84
 395 1520 395 1520 406 1517 c 128,-1,85
 417 1514 417 1514 424.5 1503.5 c 128,-1,86
 432 1493 432 1493 436 1472.5 c 128,-1,87
 440 1452 440 1452 440 1417 c 0,0,1
EndSplineSet
EndChar

StartChar: l
Encoding: 108 108 73
Width: 481
Flags: W
LayerCount: 2
Fore
SplineSet
436 72 m 1,0,1
 387 41 387 41 349.5 19.5 c 128,-1,2
 312 -2 312 -2 281.5 -15.5 c 128,-1,3
 251 -29 251 -29 225 -35 c 128,-1,4
 199 -41 199 -41 174 -41 c 0,5,6
 146 -41 146 -41 124 -11 c 128,-1,7
 102 19 102 19 102 78 c 0,8,9
 102 103 102 103 109.5 163 c 128,-1,10
 117 223 117 223 129 306 c 128,-1,11
 141 389 141 389 156.5 488.5 c 128,-1,12
 172 588 172 588 188 692 c 128,-1,13
 204 796 204 796 219.5 898 c 128,-1,14
 235 1000 235 1000 247 1088 c 128,-1,15
 259 1176 259 1176 266.5 1243.5 c 128,-1,16
 274 1311 274 1311 274 1346 c 0,17,18
 274 1369 274 1369 269.5 1382.5 c 128,-1,19
 265 1396 265 1396 258 1402.5 c 128,-1,20
 251 1409 251 1409 241.5 1411 c 128,-1,21
 232 1413 232 1413 223 1413 c 0,22,23
 215 1413 215 1413 197.5 1409 c 128,-1,24
 180 1405 180 1405 162.5 1399.5 c 128,-1,25
 145 1394 145 1394 132 1390 c 128,-1,26
 119 1386 119 1386 119 1386 c 1,27,-1
 104 1425 l 1,28,29
 146 1444 146 1444 188.5 1461 c 128,-1,30
 231 1478 231 1478 267.5 1491 c 128,-1,31
 304 1504 304 1504 332 1512 c 128,-1,32
 360 1520 360 1520 373 1520 c 0,33,34
 401 1520 401 1520 417.5 1502 c 128,-1,35
 434 1484 434 1484 434 1438 c 0,36,37
 434 1399 434 1399 426.5 1330 c 128,-1,38
 419 1261 419 1261 407 1172.5 c 128,-1,39
 395 1084 395 1084 379 982.5 c 128,-1,40
 363 881 363 881 347 777 c 128,-1,41
 331 673 331 673 315 572.5 c 128,-1,42
 299 472 299 472 287 386 c 128,-1,43
 275 300 275 300 267.5 234.5 c 128,-1,44
 260 169 260 169 260 135 c 256,45,46
 260 101 260 101 269.5 88.5 c 128,-1,47
 279 76 279 76 295 76 c 0,48,49
 318 76 318 76 348.5 84 c 128,-1,50
 379 92 379 92 424 109 c 1,51,-1
 436 72 l 1,52,-1
 436 72 l 1,0,1
EndSplineSet
EndChar

StartChar: m
Encoding: 109 109 74
Width: 1477
Flags: W
LayerCount: 2
Fore
SplineSet
1413 72 m 1,0,1
 1320 18 1320 18 1259 -11.5 c 128,-1,2
 1198 -41 1198 -41 1155 -41 c 0,3,4
 1126 -41 1126 -41 1105.5 -9.5 c 128,-1,5
 1085 22 1085 22 1085 76 c 0,6,7
 1085 94 1085 94 1092 139 c 128,-1,8
 1099 184 1099 184 1109 244.5 c 128,-1,9
 1119 305 1119 305 1131.5 374 c 128,-1,10
 1144 443 1144 443 1154 508.5 c 128,-1,11
 1164 574 1164 574 1171 630 c 128,-1,12
 1178 686 1178 686 1178 719 c 0,13,14
 1178 781 1178 781 1165.5 807.5 c 128,-1,15
 1153 834 1153 834 1135 834 c 0,16,17
 1116 834 1116 834 1087 820.5 c 128,-1,18
 1058 807 1058 807 1023 778.5 c 128,-1,19
 988 750 988 750 948.5 705.5 c 128,-1,20
 909 661 909 661 870 600 c 0,21,22
 848 565 848 565 833.5 531 c 128,-1,23
 819 497 819 497 809.5 460.5 c 128,-1,24
 800 424 800 424 793 383.5 c 128,-1,25
 786 343 786 343 778 295 c 0,26,27
 764 204 764 204 760.5 139 c 128,-1,28
 757 74 757 74 760 25 c 1,29,30
 746 18 746 18 726 9.5 c 128,-1,31
 706 1 706 1 685 -8 c 128,-1,32
 664 -17 664 -17 644.5 -25.5 c 128,-1,33
 625 -34 625 -34 612 -41 c 1,34,-1
 580 -10 l 1,35,36
 602 92 602 92 622.5 202 c 128,-1,37
 643 312 643 312 659 410.5 c 128,-1,38
 675 509 675 509 684.5 586 c 128,-1,39
 694 663 694 663 694 700 c 0,40,41
 694 776 694 776 678.5 805 c 128,-1,42
 663 834 663 834 635 834 c 0,43,44
 622 834 622 834 595 821 c 128,-1,45
 568 808 568 808 533 779.5 c 128,-1,46
 498 751 498 751 458.5 707 c 128,-1,47
 419 663 419 663 381 602 c 0,48,49
 360 570 360 570 345.5 536 c 128,-1,50
 331 502 331 502 320.5 464.5 c 128,-1,51
 310 427 310 427 301.5 385 c 128,-1,52
 293 343 293 343 285 295 c 0,53,54
 269 204 269 204 264.5 138.5 c 128,-1,55
 260 73 260 73 262 25 c 1,56,57
 249 18 249 18 229.5 9.5 c 128,-1,58
 210 1 210 1 189.5 -8 c 128,-1,59
 169 -17 169 -17 150 -25.5 c 128,-1,60
 131 -34 131 -34 119 -41 c 1,61,-1
 86 -10 l 1,62,63
 100 60 100 60 113.5 136.5 c 128,-1,64
 127 213 127 213 139.5 289 c 128,-1,65
 152 365 152 365 163 437.5 c 128,-1,66
 174 510 174 510 182 572 c 128,-1,67
 190 634 190 634 194.5 682.5 c 128,-1,68
 199 731 199 731 199 760 c 0,69,70
 199 783 199 783 196 796.5 c 128,-1,71
 193 810 193 810 187.5 817.5 c 128,-1,72
 182 825 182 825 175 827 c 128,-1,73
 168 829 168 829 160 829 c 0,74,75
 151 829 151 829 133 825 c 128,-1,76
 115 821 115 821 97 816 c 128,-1,77
 79 811 79 811 66 807 c 128,-1,78
 53 803 53 803 53 803 c 1,79,-1
 41 842 l 1,80,81
 83 860 83 860 125 877 c 128,-1,82
 167 894 167 894 203 907 c 128,-1,83
 239 920 239 920 266 928 c 128,-1,84
 293 936 293 936 305 936 c 0,85,86
 320 936 320 936 329 931 c 128,-1,87
 338 926 338 926 342.5 913.5 c 128,-1,88
 347 901 347 901 348.5 878.5 c 128,-1,89
 350 856 350 856 350 821 c 0,90,91
 350 810 350 810 348.5 793.5 c 128,-1,92
 347 777 347 777 345.5 757.5 c 128,-1,93
 344 738 344 738 341.5 717 c 128,-1,94
 339 696 339 696 338 678 c 1,95,96
 397 748 397 748 448.5 797.5 c 128,-1,97
 500 847 500 847 546.5 877.5 c 128,-1,98
 593 908 593 908 635.5 922 c 128,-1,99
 678 936 678 936 719 936 c 0,100,101
 756 936 756 936 781 921 c 128,-1,102
 806 906 806 906 820 881 c 128,-1,103
 834 856 834 856 840 824.5 c 128,-1,104
 846 793 846 793 846 760 c 0,105,106
 846 741 846 741 845 725.5 c 128,-1,107
 844 710 844 710 842 688 c 1,108,109
 900 755 900 755 949 802 c 128,-1,110
 998 849 998 849 1040.5 879 c 128,-1,111
 1083 909 1083 909 1121.5 922.5 c 128,-1,112
 1160 936 1160 936 1198 936 c 0,113,114
 1227 936 1227 936 1251 926.5 c 128,-1,115
 1275 917 1275 917 1292 896 c 128,-1,116
 1309 875 1309 875 1318 841.5 c 128,-1,117
 1327 808 1327 808 1327 760 c 0,118,119
 1327 722 1327 722 1320.5 668.5 c 128,-1,120
 1314 615 1314 615 1304 555 c 128,-1,121
 1294 495 1294 495 1283 432 c 128,-1,122
 1272 369 1272 369 1262 312.5 c 128,-1,123
 1252 256 1252 256 1245.5 209.5 c 128,-1,124
 1239 163 1239 163 1239 135 c 0,125,126
 1239 101 1239 101 1249 89.5 c 128,-1,127
 1259 78 1259 78 1276 78 c 0,128,129
 1305 78 1305 78 1333.5 85.5 c 128,-1,130
 1362 93 1362 93 1403 109 c 1,131,-1
 1413 72 l 1,132,-1
 1413 72 l 1,0,1
EndSplineSet
EndChar

StartChar: n
Encoding: 110 110 75
Width: 1012
Flags: W
LayerCount: 2
Fore
SplineSet
973 72 m 1,0,1
 882 18 882 18 818.5 -11.5 c 128,-1,2
 755 -41 755 -41 717 -41 c 0,3,4
 682 -41 682 -41 662.5 -9.5 c 128,-1,5
 643 22 643 22 643 76 c 0,6,7
 643 94 643 94 649.5 140.5 c 128,-1,8
 656 187 656 187 666 249 c 128,-1,9
 676 311 676 311 688 381 c 128,-1,10
 700 451 700 451 710 514 c 128,-1,11
 720 577 720 577 726.5 627 c 128,-1,12
 733 677 733 677 733 700 c 0,13,14
 733 776 733 776 717 806 c 128,-1,15
 701 836 701 836 657 836 c 0,16,17
 644 836 644 836 611.5 820 c 128,-1,18
 579 804 579 804 538 772 c 128,-1,19
 497 740 497 740 452.5 692 c 128,-1,20
 408 644 408 644 371 580 c 0,21,22
 343 532 343 532 325.5 465 c 128,-1,23
 308 398 308 398 291 301 c 0,24,25
 275 212 275 212 270.5 148 c 128,-1,26
 266 84 266 84 268 25 c 1,27,28
 255 18 255 18 235.5 9.5 c 128,-1,29
 216 1 216 1 195.5 -8 c 128,-1,30
 175 -17 175 -17 156 -25.5 c 128,-1,31
 137 -34 137 -34 125 -41 c 1,32,-1
 92 -10 l 1,33,34
 106 56 106 56 119.5 133 c 128,-1,35
 133 210 133 210 145.5 287.5 c 128,-1,36
 158 365 158 365 169 440.5 c 128,-1,37
 180 516 180 516 188 579.5 c 128,-1,38
 196 643 196 643 200.5 690.5 c 128,-1,39
 205 738 205 738 205 762 c 0,40,41
 205 785 205 785 202.5 798.5 c 128,-1,42
 200 812 200 812 195.5 818.5 c 128,-1,43
 191 825 191 825 184 827 c 128,-1,44
 177 829 177 829 168 829 c 256,45,46
 159 829 159 829 141.5 825 c 128,-1,47
 124 821 124 821 106 816 c 128,-1,48
 88 811 88 811 74.5 807 c 128,-1,49
 61 803 61 803 61 803 c 1,50,-1
 47 842 l 1,51,52
 89 860 89 860 131.5 877 c 128,-1,53
 174 894 174 894 211 907 c 128,-1,54
 248 920 248 920 275.5 928 c 128,-1,55
 303 936 303 936 315 936 c 0,56,57
 329 936 329 936 337 931.5 c 128,-1,58
 345 927 345 927 348.5 915 c 128,-1,59
 352 903 352 903 353 881 c 128,-1,60
 354 859 354 859 354 823 c 0,61,62
 354 812 354 812 353 793 c 128,-1,63
 352 774 352 774 350.5 752.5 c 128,-1,64
 349 731 349 731 347 710.5 c 128,-1,65
 345 690 345 690 344 678 c 1,66,67
 398 746 398 746 453 795 c 128,-1,68
 508 844 508 844 561 875.5 c 128,-1,69
 614 907 614 907 663.5 921.5 c 128,-1,70
 713 936 713 936 758 936 c 0,71,72
 789 936 789 936 813.5 927 c 128,-1,73
 838 918 838 918 854 897.5 c 128,-1,74
 870 877 870 877 878.5 843.5 c 128,-1,75
 887 810 887 810 887 762 c 0,76,77
 887 727 887 727 880.5 675 c 128,-1,78
 874 623 874 623 864 562.5 c 128,-1,79
 854 502 854 502 842 438 c 128,-1,80
 830 374 830 374 820 316 c 128,-1,81
 810 258 810 258 803.5 210.5 c 128,-1,82
 797 163 797 163 797 135 c 0,83,84
 797 101 797 101 806 88.5 c 128,-1,85
 815 76 815 76 833 76 c 0,86,87
 856 76 856 76 886 84 c 128,-1,88
 916 92 916 92 958 109 c 1,89,-1
 973 72 l 1,90,-1
 973 72 l 1,0,1
EndSplineSet
EndChar

StartChar: o
Encoding: 111 111 76
Width: 864
Flags: W
LayerCount: 2
Fore
SplineSet
668 504 m 0,0,1
 668 657 668 657 612 738 c 128,-1,2
 556 819 556 819 453 819 c 0,3,4
 381 819 381 819 332 777.5 c 128,-1,5
 283 736 283 736 253 673 c 128,-1,6
 223 610 223 610 210 536.5 c 128,-1,7
 197 463 197 463 197 399 c 0,8,9
 197 332 197 332 213.5 272.5 c 128,-1,10
 230 213 230 213 259.5 168.5 c 128,-1,11
 289 124 289 124 328.5 98 c 128,-1,12
 368 72 368 72 414 72 c 256,13,14
 460 72 460 72 496.5 92.5 c 128,-1,15
 533 113 533 113 561.5 147.5 c 128,-1,16
 590 182 590 182 610 226.5 c 128,-1,17
 630 271 630 271 643 319 c 128,-1,18
 656 367 656 367 662 415 c 128,-1,19
 668 463 668 463 668 504 c 0,0,1
811 559 m 0,20,21
 811 492 811 492 796 423.5 c 128,-1,22
 781 355 781 355 752 290.5 c 128,-1,23
 723 226 723 226 680.5 167.5 c 128,-1,24
 638 109 638 109 582 63 c 0,25,26
 556 42 556 42 527 23 c 128,-1,27
 498 4 498 4 468 -10.5 c 128,-1,28
 438 -25 438 -25 407 -33 c 128,-1,29
 376 -41 376 -41 346 -41 c 0,30,31
 276 -41 276 -41 221.5 -11.5 c 128,-1,32
 167 18 167 18 129.5 69.5 c 128,-1,33
 92 121 92 121 72.5 191.5 c 128,-1,34
 53 262 53 262 53 344 c 0,35,36
 53 416 53 416 65 482.5 c 128,-1,37
 77 549 77 549 104 611 c 128,-1,38
 131 673 131 673 176 730 c 128,-1,39
 221 787 221 787 287 840 c 0,40,41
 338 880 338 880 399 908 c 128,-1,42
 460 936 460 936 522 936 c 0,43,44
 600 936 600 936 655 908 c 128,-1,45
 710 880 710 880 744.5 830 c 128,-1,46
 779 780 779 780 795 711 c 128,-1,47
 811 642 811 642 811 559 c 0,20,21
EndSplineSet
EndChar

StartChar: p
Encoding: 112 112 77
Width: 965
Flags: W
LayerCount: 2
Fore
SplineSet
610 805 m 0,0,1
 583 805 583 805 542 780 c 128,-1,2
 501 755 501 755 456 709.5 c 128,-1,3
 411 664 411 664 367 600.5 c 128,-1,4
 323 537 323 537 291 460 c 1,5,6
 285 427 285 427 279 390.5 c 128,-1,7
 273 354 273 354 266 314 c 1,8,9
 281 284 281 284 308 247.5 c 128,-1,10
 335 211 335 211 370 179.5 c 128,-1,11
 405 148 405 148 445 127 c 128,-1,12
 485 106 485 106 526 106 c 0,13,14
 580 106 580 106 621.5 135.5 c 128,-1,15
 663 165 663 165 686 219 c 1,16,17
 704 258 704 258 715 300.5 c 128,-1,18
 726 343 726 343 731 384.5 c 128,-1,19
 736 426 736 426 737.5 464 c 128,-1,20
 739 502 739 502 739 532 c 0,21,22
 739 602 739 602 728 653.5 c 128,-1,23
 717 705 717 705 698.5 738.5 c 128,-1,24
 680 772 680 772 657 788.5 c 128,-1,25
 634 805 634 805 610 805 c 0,0,1
348 870 m 0,26,27
 348 840 348 840 341.5 786 c 128,-1,28
 335 732 335 732 321 644 c 1,29,30
 385 743 385 743 441 801 c 128,-1,31
 497 859 497 859 543.5 889 c 128,-1,32
 590 919 590 919 628 927.5 c 128,-1,33
 666 936 666 936 696 936 c 0,34,35
 735 936 735 936 769 916 c 128,-1,36
 803 896 803 896 829 856.5 c 128,-1,37
 855 817 855 817 870 759.5 c 128,-1,38
 885 702 885 702 885 627 c 0,39,40
 885 527 885 527 857 415 c 128,-1,41
 829 303 829 303 766 188 c 0,42,43
 743 148 743 148 713.5 107.5 c 128,-1,44
 684 67 684 67 649 34 c 128,-1,45
 614 1 614 1 574.5 -20 c 128,-1,46
 535 -41 535 -41 492 -41 c 0,47,48
 458 -41 458 -41 425.5 -20.5 c 128,-1,49
 393 0 393 0 361.5 33 c 128,-1,50
 330 66 330 66 301 108 c 128,-1,51
 272 150 272 150 246 192 c 1,52,53
 238 149 238 149 230.5 103 c 128,-1,54
 223 57 223 57 215 6 c 0,55,56
 181 -200 181 -200 173 -309.5 c 128,-1,57
 165 -419 165 -419 176 -447 c 1,58,59
 161 -451 161 -451 141 -457.5 c 128,-1,60
 121 -464 121 -464 99.5 -471.5 c 128,-1,61
 78 -479 78 -479 58.5 -486.5 c 128,-1,62
 39 -494 39 -494 26 -500 c 1,63,-1
 -6 -471 l 1,64,65
 -2 -442 -2 -442 8.5 -381 c 128,-1,66
 19 -320 19 -320 33.5 -238 c 128,-1,67
 48 -156 48 -156 65 -59 c 128,-1,68
 82 38 82 38 99.5 138 c 128,-1,69
 117 238 117 238 133.5 336 c 128,-1,70
 150 434 150 434 162.5 517.5 c 128,-1,71
 175 601 175 601 182.5 664.5 c 128,-1,72
 190 728 190 728 190 760 c 0,73,74
 190 783 190 783 186 796.5 c 128,-1,75
 182 810 182 810 175 816.5 c 128,-1,76
 168 823 168 823 160 825 c 128,-1,77
 152 827 152 827 143 827 c 256,78,79
 134 827 134 827 117 823 c 128,-1,80
 100 819 100 819 83.5 814.5 c 128,-1,81
 67 810 67 810 55 806.5 c 128,-1,82
 43 803 43 803 43 803 c 1,83,-1
 29 840 l 1,84,85
 71 859 71 859 114 876.5 c 128,-1,86
 157 894 157 894 194.5 907 c 128,-1,87
 232 920 232 920 260.5 928 c 128,-1,88
 289 936 289 936 301 936 c 0,89,90
 321 936 321 936 334.5 922.5 c 128,-1,91
 348 909 348 909 348 870 c 0,26,27
EndSplineSet
EndChar

StartChar: q
Encoding: 113 113 78
Width: 918
Flags: W
LayerCount: 2
Fore
SplineSet
348 96 m 0,0,1
 374 96 374 96 409 126 c 128,-1,2
 444 156 444 156 482 204.5 c 128,-1,3
 520 253 520 253 559 314 c 128,-1,4
 598 375 598 375 632 437 c 1,5,6
 646 520 646 520 659.5 600.5 c 128,-1,7
 673 681 673 681 686 759 c 1,8,9
 670 771 670 771 651 783.5 c 128,-1,10
 632 796 632 796 610 806.5 c 128,-1,11
 588 817 588 817 563.5 824 c 128,-1,12
 539 831 539 831 512 831 c 0,13,14
 467 831 467 831 424.5 808.5 c 128,-1,15
 382 786 382 786 345.5 749 c 128,-1,16
 309 712 309 712 279 664.5 c 128,-1,17
 249 617 249 617 227.5 566.5 c 128,-1,18
 206 516 206 516 194 467 c 128,-1,19
 182 418 182 418 182 379 c 0,20,21
 182 314 182 314 197 262 c 128,-1,22
 212 210 212 210 236 173 c 128,-1,23
 260 136 260 136 289.5 116 c 128,-1,24
 319 96 319 96 348 96 c 0,0,1
895 901 m 1,25,26
 878 887 878 887 867 876 c 128,-1,27
 856 865 856 865 847.5 850.5 c 128,-1,28
 839 836 839 836 833 815 c 128,-1,29
 827 794 827 794 821 760 c 0,30,31
 799 627 799 627 776.5 492 c 128,-1,32
 754 357 754 357 734 230.5 c 128,-1,33
 714 104 714 104 697.5 -9.5 c 128,-1,34
 681 -123 681 -123 672 -213 c 128,-1,35
 663 -303 663 -303 662 -364 c 128,-1,36
 661 -425 661 -425 672 -447 c 1,37,38
 658 -452 658 -452 638 -458.5 c 128,-1,39
 618 -465 618 -465 596.5 -472 c 128,-1,40
 575 -479 575 -479 555 -486.5 c 128,-1,41
 535 -494 535 -494 523 -500 c 1,42,-1
 488 -471 l 1,43,44
 493 -433 493 -433 504.5 -360 c 128,-1,45
 516 -287 516 -287 531 -190 c 128,-1,46
 546 -93 546 -93 564.5 22.5 c 128,-1,47
 583 138 583 138 603 261 c 1,48,49
 568 202 568 202 527.5 147.5 c 128,-1,50
 487 93 487 93 444.5 51 c 128,-1,51
 402 9 402 9 359 -16 c 128,-1,52
 316 -41 316 -41 276 -41 c 0,53,54
 243 -41 243 -41 204 -22 c 128,-1,55
 165 -3 165 -3 131.5 38.5 c 128,-1,56
 98 80 98 80 75.5 145.5 c 128,-1,57
 53 211 53 211 53 305 c 0,58,59
 53 384 53 384 73.5 460.5 c 128,-1,60
 94 537 94 537 133 606.5 c 128,-1,61
 172 676 172 676 227.5 736 c 128,-1,62
 283 796 283 796 354 842 c 0,63,64
 382 860 382 860 414 877 c 128,-1,65
 446 894 446 894 479.5 907 c 128,-1,66
 513 920 513 920 546.5 928 c 128,-1,67
 580 936 580 936 612 936 c 0,68,69
 634 936 634 936 655.5 930 c 128,-1,70
 677 924 677 924 697.5 915 c 128,-1,71
 718 906 718 906 736.5 895 c 128,-1,72
 755 884 755 884 772 874 c 1,73,74
 795 891 795 891 820 907 c 128,-1,75
 845 923 845 923 872 936 c 1,76,-1
 895 901 l 1,77,-1
 895 901 l 1,25,26
EndSplineSet
EndChar

StartChar: r
Encoding: 114 114 79
Width: 727
Flags: W
LayerCount: 2
Fore
SplineSet
768 850 m 1,0,1
 756 834 756 834 741.5 811 c 128,-1,2
 727 788 727 788 712.5 766.5 c 128,-1,3
 698 745 698 745 685 730 c 128,-1,4
 672 715 672 715 662 715 c 0,5,6
 643 715 643 715 629.5 726 c 128,-1,7
 616 737 616 737 604.5 749.5 c 128,-1,8
 593 762 593 762 581.5 773 c 128,-1,9
 570 784 570 784 555 784 c 0,10,11
 529 784 529 784 494.5 748.5 c 128,-1,12
 460 713 460 713 425.5 655.5 c 128,-1,13
 391 598 391 598 359.5 526.5 c 128,-1,14
 328 455 328 455 307 383 c 0,15,16
 296 345 296 345 287.5 299.5 c 128,-1,17
 279 254 279 254 272.5 206 c 128,-1,18
 266 158 266 158 263 111.5 c 128,-1,19
 260 65 260 65 262 25 c 1,20,21
 249 18 249 18 229.5 9.5 c 128,-1,22
 210 1 210 1 189.5 -8 c 128,-1,23
 169 -17 169 -17 150 -25.5 c 128,-1,24
 131 -34 131 -34 119 -41 c 1,25,-1
 86 -10 l 1,26,27
 101 61 101 61 115 137 c 128,-1,28
 129 213 129 213 141.5 288.5 c 128,-1,29
 154 364 154 364 164.5 436 c 128,-1,30
 175 508 175 508 182.5 570 c 128,-1,31
 190 632 190 632 194.5 681 c 128,-1,32
 199 730 199 730 199 760 c 0,33,34
 199 783 199 783 195.5 796.5 c 128,-1,35
 192 810 192 810 186.5 816.5 c 128,-1,36
 181 823 181 823 173.5 825 c 128,-1,37
 166 827 166 827 158 827 c 0,38,39
 149 827 149 827 131.5 823 c 128,-1,40
 114 819 114 819 97 814.5 c 128,-1,41
 80 810 80 810 67.5 806.5 c 128,-1,42
 55 803 55 803 55 803 c 1,43,-1
 41 840 l 1,44,45
 83 859 83 859 125.5 876.5 c 128,-1,46
 168 894 168 894 205 907 c 128,-1,47
 242 920 242 920 269.5 928 c 128,-1,48
 297 936 297 936 309 936 c 0,49,50
 323 936 323 936 331 931 c 128,-1,51
 339 926 339 926 342.5 913.5 c 128,-1,52
 346 901 346 901 347 878.5 c 128,-1,53
 348 856 348 856 348 821 c 0,54,55
 348 810 348 810 345 784 c 128,-1,56
 342 758 342 758 338 727.5 c 128,-1,57
 334 697 334 697 329.5 667 c 128,-1,58
 325 637 325 637 322 618 c 1,59,60
 370 717 370 717 413 779 c 128,-1,61
 456 841 456 841 494.5 876 c 128,-1,62
 533 911 533 911 568 923.5 c 128,-1,63
 603 936 603 936 635 936 c 0,64,65
 653 936 653 936 667.5 926 c 128,-1,66
 682 916 682 916 697 902 c 128,-1,67
 712 888 712 888 729 873.5 c 128,-1,68
 746 859 746 859 768 850 c 1,0,1
EndSplineSet
EndChar

StartChar: s
Encoding: 115 115 80
Width: 711
Flags: W
LayerCount: 2
Fore
SplineSet
698 844 m 1,0,1
 678 821 678 821 658.5 802.5 c 128,-1,2
 639 784 639 784 622 770 c 128,-1,3
 605 756 605 756 591.5 748.5 c 128,-1,4
 578 741 578 741 571 741 c 0,5,6
 558 741 558 741 543.5 758.5 c 128,-1,7
 529 776 529 776 510.5 796.5 c 128,-1,8
 492 817 492 817 467.5 834.5 c 128,-1,9
 443 852 443 852 410 852 c 0,10,11
 382 852 382 852 355 841.5 c 128,-1,12
 328 831 328 831 306.5 812.5 c 128,-1,13
 285 794 285 794 271.5 767.5 c 128,-1,14
 258 741 258 741 258 709 c 0,15,16
 258 674 258 674 291.5 635 c 128,-1,17
 325 596 325 596 406 559 c 0,18,19
 447 540 447 540 488 515 c 128,-1,20
 529 490 529 490 561.5 457.5 c 128,-1,21
 594 425 594 425 614.5 383.5 c 128,-1,22
 635 342 635 342 635 289 c 0,23,24
 635 220 635 220 599.5 159.5 c 128,-1,25
 564 99 564 99 508.5 54.5 c 128,-1,26
 453 10 453 10 385 -15.5 c 128,-1,27
 317 -41 317 -41 252 -41 c 0,28,29
 205 -41 205 -41 159 -27.5 c 128,-1,30
 113 -14 113 -14 77 7 c 128,-1,31
 41 28 41 28 18.5 52.5 c 128,-1,32
 -4 77 -4 77 -4 98 c 0,33,34
 -4 109 -4 109 8 130 c 128,-1,35
 20 151 20 151 36.5 171.5 c 128,-1,36
 53 192 53 192 70 207.5 c 128,-1,37
 87 223 87 223 98 223 c 0,38,39
 105 223 105 223 112.5 210.5 c 128,-1,40
 120 198 120 198 131.5 179.5 c 128,-1,41
 143 161 143 161 159 139 c 128,-1,42
 175 117 175 117 199 98.5 c 128,-1,43
 223 80 223 80 255.5 67.5 c 128,-1,44
 288 55 288 55 332 55 c 0,45,46
 367 55 367 55 398.5 68.5 c 128,-1,47
 430 82 430 82 453.5 104.5 c 128,-1,48
 477 127 477 127 490.5 157.5 c 128,-1,49
 504 188 504 188 504 223 c 0,50,51
 504 262 504 262 488 293.5 c 128,-1,52
 472 325 472 325 445.5 350.5 c 128,-1,53
 419 376 419 376 384 397 c 128,-1,54
 349 418 349 418 311 436 c 0,55,56
 258 461 258 461 222 486 c 128,-1,57
 186 511 186 511 164 537 c 128,-1,58
 142 563 142 563 132.5 592 c 128,-1,59
 123 621 123 621 123 653 c 0,60,61
 123 716 123 716 154 768 c 128,-1,62
 185 820 185 820 234 857.5 c 128,-1,63
 283 895 283 895 343.5 915.5 c 128,-1,64
 404 936 404 936 463 936 c 0,65,66
 514 936 514 936 549 924 c 128,-1,67
 584 912 584 912 610.5 896 c 128,-1,68
 637 880 637 880 657 865 c 128,-1,69
 677 850 677 850 698 844 c 1,0,1
EndSplineSet
EndChar

StartChar: t
Encoding: 116 116 81
Width: 629
Flags: W
LayerCount: 2
Fore
SplineSet
580 117 m 1,0,1
 531 79 531 79 482 49.5 c 128,-1,2
 433 20 433 20 389 0 c 128,-1,3
 345 -20 345 -20 309.5 -30.5 c 128,-1,4
 274 -41 274 -41 252 -41 c 0,5,6
 227 -41 227 -41 204.5 -26 c 128,-1,7
 182 -11 182 -11 164.5 15.5 c 128,-1,8
 147 42 147 42 137 79 c 128,-1,9
 127 116 127 116 127 160 c 0,10,11
 127 179 127 179 128 198 c 128,-1,12
 129 217 129 217 130.5 237.5 c 128,-1,13
 132 258 132 258 134.5 281 c 128,-1,14
 137 304 137 304 141 332 c 2,15,-1
 218 815 l 1,16,-1
 74 815 l 1,17,-1
 59 846 l 1,18,-1
 160 905 l 1,19,-1
 232 905 l 1,20,-1
 238 940 l 1,21,22
 244 981 244 981 250.5 1008 c 128,-1,23
 257 1035 257 1035 265.5 1053 c 128,-1,24
 274 1071 274 1071 284 1082.5 c 128,-1,25
 294 1094 294 1094 307 1104 c 2,26,-1
 408 1176 l 1,27,-1
 436 1151 l 1,28,29
 436 1151 436 1151 432 1145 c 128,-1,30
 428 1139 428 1139 421 1119 c 128,-1,31
 414 1099 414 1099 404.5 1062 c 128,-1,32
 395 1025 395 1025 385 963 c 2,33,-1
 376 905 l 1,34,-1
 625 905 l 1,35,-1
 645 877 l 1,36,37
 635 863 635 863 617.5 846.5 c 128,-1,38
 600 830 600 830 581 815 c 128,-1,39
 562 800 562 800 544.5 787.5 c 128,-1,40
 527 775 527 775 518 770 c 1,41,42
 512 784 512 784 501.5 792.5 c 128,-1,43
 491 801 491 801 473 806 c 128,-1,44
 455 811 455 811 428.5 813 c 128,-1,45
 402 815 402 815 365 815 c 2,46,-1
 362 815 l 1,47,-1
 291 356 l 2,48,49
 288 337 288 337 285.5 315.5 c 128,-1,50
 283 294 283 294 281.5 274.5 c 128,-1,51
 280 255 280 255 279.5 238 c 128,-1,52
 279 221 279 221 279 211 c 0,53,54
 279 149 279 149 301.5 119.5 c 128,-1,55
 324 90 324 90 352 90 c 0,56,57
 387 90 387 90 437.5 105 c 128,-1,58
 488 120 488 120 563 154 c 1,59,-1
 580 117 l 1,60,-1
 580 117 l 1,0,1
EndSplineSet
EndChar

StartChar: u
Encoding: 117 117 82
Width: 1022
Flags: W
LayerCount: 2
Fore
SplineSet
975 68 m 1,0,1
 894 14 894 14 837.5 -13.5 c 128,-1,2
 781 -41 781 -41 743 -41 c 0,3,4
 726 -41 726 -41 710 -29 c 128,-1,5
 694 -17 694 -17 681 15 c 128,-1,6
 668 47 668 47 660.5 102.5 c 128,-1,7
 653 158 653 158 653 244 c 0,8,9
 653 255 653 255 653.5 268.5 c 128,-1,10
 654 282 654 282 655 296 c 1,11,12
 614 221 614 221 569 159 c 128,-1,13
 524 97 524 97 475 52.5 c 128,-1,14
 426 8 426 8 374 -16.5 c 128,-1,15
 322 -41 322 -41 268 -41 c 0,16,17
 248 -41 248 -41 222.5 -25.5 c 128,-1,18
 197 -10 197 -10 174.5 21 c 128,-1,19
 152 52 152 52 136.5 98 c 128,-1,20
 121 144 121 144 121 205 c 0,21,22
 121 235 121 235 126.5 281 c 128,-1,23
 132 327 132 327 140 380 c 128,-1,24
 148 433 148 433 158 490 c 128,-1,25
 168 547 168 547 176 599 c 128,-1,26
 184 651 184 651 189.5 693 c 128,-1,27
 195 735 195 735 195 760 c 0,28,29
 195 783 195 783 192 796.5 c 128,-1,30
 189 810 189 810 183.5 816.5 c 128,-1,31
 178 823 178 823 170.5 825 c 128,-1,32
 163 827 163 827 154 827 c 256,33,34
 145 827 145 827 128 823 c 128,-1,35
 111 819 111 819 94 814.5 c 128,-1,36
 77 810 77 810 64 806.5 c 128,-1,37
 51 803 51 803 51 803 c 1,38,-1
 39 840 l 1,39,40
 81 859 81 859 123.5 876.5 c 128,-1,41
 166 894 166 894 202 907 c 128,-1,42
 238 920 238 920 265.5 928 c 128,-1,43
 293 936 293 936 305 936 c 0,44,45
 334 936 334 936 344 917 c 128,-1,46
 354 898 354 898 354 852 c 0,47,48
 354 823 354 823 348 776 c 128,-1,49
 342 729 342 729 333 673 c 128,-1,50
 324 617 324 617 314 557 c 128,-1,51
 304 497 304 497 295 441 c 128,-1,52
 286 385 286 385 280 338 c 128,-1,53
 274 291 274 291 274 262 c 0,54,55
 274 166 274 166 294.5 123 c 128,-1,56
 315 80 315 80 352 80 c 0,57,58
 372 80 372 80 405 99.5 c 128,-1,59
 438 119 438 119 480 162.5 c 128,-1,60
 522 206 522 206 571.5 276 c 128,-1,61
 621 346 621 346 674 448 c 1,62,63
 681 494 681 494 689 540 c 128,-1,64
 697 586 697 586 703.5 627 c 128,-1,65
 710 668 710 668 714.5 702.5 c 128,-1,66
 719 737 719 737 719 760 c 256,67,68
 719 783 719 783 716.5 796.5 c 128,-1,69
 714 810 714 810 709 816.5 c 128,-1,70
 704 823 704 823 697.5 825 c 128,-1,71
 691 827 691 827 682 827 c 256,72,73
 673 827 673 827 657.5 823 c 128,-1,74
 642 819 642 819 626.5 814.5 c 128,-1,75
 611 810 611 810 599.5 806.5 c 128,-1,76
 588 803 588 803 588 803 c 1,77,-1
 573 840 l 1,78,79
 615 859 615 859 656 876.5 c 128,-1,80
 697 894 697 894 731.5 907 c 128,-1,81
 766 920 766 920 792 928 c 128,-1,82
 818 936 818 936 831 936 c 0,83,84
 859 936 859 936 868 917 c 128,-1,85
 877 898 877 898 877 852 c 0,86,87
 877 823 877 823 871 776.5 c 128,-1,88
 865 730 865 730 856 674.5 c 128,-1,89
 847 619 847 619 836 558.5 c 128,-1,90
 825 498 825 498 816 441.5 c 128,-1,91
 807 385 807 385 801 336 c 128,-1,92
 795 287 795 287 795 254 c 0,93,94
 795 163 795 163 808 119.5 c 128,-1,95
 821 76 821 76 846 76 c 0,96,97
 872 76 872 76 898.5 82.5 c 128,-1,98
 925 89 925 89 961 104 c 1,99,-1
 975 68 l 1,100,-1
 975 68 l 1,0,1
EndSplineSet
EndChar

StartChar: v
Encoding: 118 118 83
Width: 913
Flags: W
LayerCount: 2
Fore
SplineSet
893 852 m 0,0,1
 893 820 893 820 871 757 c 128,-1,2
 849 694 849 694 798 592 c 128,-1,3
 747 490 747 490 663.5 344.5 c 128,-1,4
 580 199 580 199 457 2 c 1,5,6
 448 -3 448 -3 436 -8.5 c 128,-1,7
 424 -14 424 -14 411 -19.5 c 128,-1,8
 398 -25 398 -25 385 -31 c 128,-1,9
 372 -37 372 -37 362 -41 c 1,10,-1
 330 -10 l 1,11,12
 323 46 323 46 313 115.5 c 128,-1,13
 303 185 303 185 291.5 258.5 c 128,-1,14
 280 332 280 332 267 406 c 128,-1,15
 254 480 254 480 242 545 c 128,-1,16
 230 610 230 610 218.5 662 c 128,-1,17
 207 714 207 714 199 745 c 0,18,19
 191 772 191 772 182 788 c 128,-1,20
 173 804 173 804 163.5 813 c 128,-1,21
 154 822 154 822 145 824.5 c 128,-1,22
 136 827 136 827 127 827 c 256,23,24
 118 827 118 827 101.5 823 c 128,-1,25
 85 819 85 819 69 814.5 c 128,-1,26
 53 810 53 810 41 806.5 c 128,-1,27
 29 803 29 803 29 803 c 1,28,-1
 16 840 l 1,29,30
 58 859 58 859 97 876.5 c 128,-1,31
 136 894 136 894 168 907 c 128,-1,32
 200 920 200 920 224 928 c 128,-1,33
 248 936 248 936 260 936 c 0,34,35
 275 936 275 936 285.5 929.5 c 128,-1,36
 296 923 296 923 304.5 908 c 128,-1,37
 313 893 313 893 321.5 868.5 c 128,-1,38
 330 844 330 844 340 809 c 0,39,40
 347 784 347 784 358.5 728.5 c 128,-1,41
 370 673 370 673 382.5 604 c 128,-1,42
 395 535 395 535 408 460.5 c 128,-1,43
 421 386 421 386 431.5 321 c 128,-1,44
 442 256 442 256 448.5 209.5 c 128,-1,45
 455 163 455 163 455 150 c 1,46,47
 529 270 529 270 585 377 c 128,-1,48
 641 484 641 484 678.5 568.5 c 128,-1,49
 716 653 716 653 735 712 c 128,-1,50
 754 771 754 771 754 797 c 0,51,52
 754 817 754 817 737 827.5 c 128,-1,53
 720 838 720 838 692 838 c 0,54,55
 675 838 675 838 654.5 834.5 c 128,-1,56
 634 831 634 831 612 823 c 1,57,-1
 594 858 l 1,58,59
 622 873 622 873 654.5 887 c 128,-1,60
 687 901 687 901 718 912 c 128,-1,61
 749 923 749 923 775.5 929.5 c 128,-1,62
 802 936 802 936 819 936 c 0,63,64
 854 936 854 936 873.5 918 c 128,-1,65
 893 900 893 900 893 852 c 0,0,1
EndSplineSet
EndChar

StartChar: w
Encoding: 119 119 84
Width: 1290
Flags: W
LayerCount: 2
Fore
SplineSet
1278 860 m 0,0,1
 1278 834 1278 834 1273 798.5 c 128,-1,2
 1268 763 1268 763 1254.5 714 c 128,-1,3
 1241 665 1241 665 1217 599.5 c 128,-1,4
 1193 534 1193 534 1154.5 447.5 c 128,-1,5
 1116 361 1116 361 1061.5 251 c 128,-1,6
 1007 141 1007 141 932 2 c 1,7,8
 923 -3 923 -3 911.5 -8.5 c 128,-1,9
 900 -14 900 -14 887 -19.5 c 128,-1,10
 874 -25 874 -25 862 -31 c 128,-1,11
 850 -37 850 -37 840 -41 c 1,12,-1
 807 -10 l 1,13,14
 800 46 800 46 791.5 111.5 c 128,-1,15
 783 177 783 177 773.5 244.5 c 128,-1,16
 764 312 764 312 754 378.5 c 128,-1,17
 744 445 744 445 734 504 c 128,-1,18
 724 563 724 563 714.5 611 c 128,-1,19
 705 659 705 659 696 690 c 1,20,21
 695 669 695 669 683 626.5 c 128,-1,22
 671 584 671 584 651 527 c 128,-1,23
 631 470 631 470 604 404 c 128,-1,24
 577 338 577 338 546 269 c 128,-1,25
 515 200 515 200 481.5 133.5 c 128,-1,26
 448 67 448 67 414 10 c 1,27,28
 405 5 405 5 392.5 -1.5 c 128,-1,29
 380 -8 380 -8 366 -15.5 c 128,-1,30
 352 -23 352 -23 338.5 -30 c 128,-1,31
 325 -37 325 -37 315 -41 c 1,32,-1
 283 -10 l 1,33,34
 276 46 276 46 268.5 114.5 c 128,-1,35
 261 183 261 183 253.5 255.5 c 128,-1,36
 246 328 246 328 238 401 c 128,-1,37
 230 474 230 474 222 539 c 128,-1,38
 214 604 214 604 205.5 657.5 c 128,-1,39
 197 711 197 711 188 745 c 1,40,41
 182 772 182 772 173.5 788 c 128,-1,42
 165 804 165 804 155.5 813 c 128,-1,43
 146 822 146 822 136 824.5 c 128,-1,44
 126 827 126 827 117 827 c 256,45,46
 108 827 108 827 91.5 823 c 128,-1,47
 75 819 75 819 58.5 814.5 c 128,-1,48
 42 810 42 810 30 806.5 c 128,-1,49
 18 803 18 803 18 803 c 1,50,-1
 4 840 l 1,51,52
 46 859 46 859 84 876.5 c 128,-1,53
 122 894 122 894 153 907 c 128,-1,54
 184 920 184 920 207.5 928 c 128,-1,55
 231 936 231 936 244 936 c 0,56,57
 272 936 272 936 286 903.5 c 128,-1,58
 300 871 300 871 317 799 c 0,59,60
 323 771 323 771 331 720.5 c 128,-1,61
 339 670 339 670 347.5 608 c 128,-1,62
 356 546 356 546 364 478.5 c 128,-1,63
 372 411 372 411 379 350 c 128,-1,64
 386 289 386 289 390.5 240 c 128,-1,65
 395 191 395 191 397 166 c 1,66,67
 437 244 437 244 479 336.5 c 128,-1,68
 521 429 521 429 556 523 c 128,-1,69
 591 617 591 617 614.5 705.5 c 128,-1,70
 638 794 638 794 643 864 c 1,71,72
 658 877 658 877 675.5 890 c 128,-1,73
 693 903 693 903 710.5 913 c 128,-1,74
 728 923 728 923 743.5 929.5 c 128,-1,75
 759 936 759 936 770 936 c 0,76,77
 774 936 774 936 780 919.5 c 128,-1,78
 786 903 786 903 793 876 c 128,-1,79
 800 849 800 849 807.5 813.5 c 128,-1,80
 815 778 815 778 822 741 c 128,-1,81
 829 704 829 704 836 667 c 128,-1,82
 843 630 843 630 848 600 c 0,83,84
 855 553 855 553 864.5 496 c 128,-1,85
 874 439 874 439 883.5 379 c 128,-1,86
 893 319 893 319 901.5 259 c 128,-1,87
 910 199 910 199 915 147 c 1,88,89
 990 285 990 285 1037.5 390 c 128,-1,90
 1085 495 1085 495 1111.5 573.5 c 128,-1,91
 1138 652 1138 652 1147.5 706.5 c 128,-1,92
 1157 761 1157 761 1157 799 c 0,93,94
 1157 820 1157 820 1142.5 832 c 128,-1,95
 1128 844 1128 844 1102 844 c 0,96,97
 1088 844 1088 844 1068 840 c 128,-1,98
 1048 836 1048 836 1026 829 c 1,99,-1
 1008 866 l 1,100,101
 1042 886 1042 886 1073 899.5 c 128,-1,102
 1104 913 1104 913 1128.5 921 c 128,-1,103
 1153 929 1153 929 1170 932.5 c 128,-1,104
 1187 936 1187 936 1194 936 c 0,105,106
 1211 936 1211 936 1226 933.5 c 128,-1,107
 1241 931 1241 931 1252.5 923 c 128,-1,108
 1264 915 1264 915 1271 900 c 128,-1,109
 1278 885 1278 885 1278 860 c 0,0,1
EndSplineSet
EndChar

StartChar: x
Encoding: 120 120 85
Width: 901
Flags: W
LayerCount: 2
Fore
SplineSet
877 72 m 1,0,1
 834 42 834 42 801 20.5 c 128,-1,2
 768 -1 768 -1 741.5 -14.5 c 128,-1,3
 715 -28 715 -28 693.5 -34.5 c 128,-1,4
 672 -41 672 -41 653 -41 c 0,5,6
 623 -41 623 -41 592.5 -9.5 c 128,-1,7
 562 22 562 22 532.5 74.5 c 128,-1,8
 503 127 503 127 473.5 195.5 c 128,-1,9
 444 264 444 264 416 338 c 1,10,11
 393 307 393 307 363.5 268.5 c 128,-1,12
 334 230 334 230 300.5 186 c 128,-1,13
 267 142 267 142 231 92.5 c 128,-1,14
 195 43 195 43 160 -10 c 1,15,16
 123 -15 123 -15 77 -22.5 c 128,-1,17
 31 -30 31 -30 -6 -41 c 1,18,-1
 -29 -6 l 1,19,20
 17 34 17 34 70 87 c 128,-1,21
 123 140 123 140 177.5 198 c 128,-1,22
 232 256 232 256 284.5 315.5 c 128,-1,23
 337 375 337 375 382 429 c 1,24,25
 353 505 353 505 325 577 c 128,-1,26
 297 649 297 649 269.5 704.5 c 128,-1,27
 242 760 242 760 216 793.5 c 128,-1,28
 190 827 190 827 166 827 c 0,29,30
 157 827 157 827 136.5 823 c 128,-1,31
 116 819 116 819 95 814 c 128,-1,32
 74 809 74 809 57.5 805 c 128,-1,33
 41 801 41 801 41 801 c 1,34,-1
 27 840 l 1,35,36
 69 858 69 858 107.5 875.5 c 128,-1,37
 146 893 146 893 178 906.5 c 128,-1,38
 210 920 210 920 232.5 928 c 128,-1,39
 255 936 255 936 266 936 c 0,40,41
 293 936 293 936 321 902 c 128,-1,42
 349 868 349 868 378 811.5 c 128,-1,43
 407 755 407 755 437 682.5 c 128,-1,44
 467 610 467 610 497 533 c 1,45,46
 538 582 538 582 577 633 c 128,-1,47
 616 684 616 684 646 727.5 c 128,-1,48
 676 771 676 771 694.5 801 c 128,-1,49
 713 831 713 831 713 838 c 0,50,51
 713 848 713 848 710 856 c 128,-1,52
 707 864 707 864 697 868 c 128,-1,53
 687 872 687 872 667.5 872.5 c 128,-1,54
 648 873 648 873 616 870 c 1,55,-1
 614 911 l 1,56,57
 680 925 680 925 731 930.5 c 128,-1,58
 782 936 782 936 807 936 c 0,59,60
 855 936 855 936 874 920 c 128,-1,61
 893 904 893 904 893 883 c 0,62,63
 893 863 893 863 869.5 828.5 c 128,-1,64
 846 794 846 794 800.5 740.5 c 128,-1,65
 755 687 755 687 687 613.5 c 128,-1,66
 619 540 619 540 531 444 c 1,67,68
 559 372 559 372 586.5 305.5 c 128,-1,69
 614 239 614 239 640 188 c 128,-1,70
 666 137 666 137 691 106.5 c 128,-1,71
 716 76 716 76 739 76 c 256,72,73
 762 76 762 76 792.5 83 c 128,-1,74
 823 90 823 90 860 109 c 1,75,-1
 877 72 l 1,76,-1
 877 72 l 1,0,1
EndSplineSet
EndChar

StartChar: y
Encoding: 121 121 86
Width: 926
Flags: W
LayerCount: 2
Fore
SplineSet
893 860 m 0,0,1
 893 826 893 826 874.5 772.5 c 128,-1,2
 856 719 856 719 814.5 629.5 c 128,-1,3
 773 540 773 540 705.5 407 c 128,-1,4
 638 274 638 274 541 82 c 0,5,6
 474 -49 474 -49 407.5 -156 c 128,-1,7
 341 -263 341 -263 271 -339.5 c 128,-1,8
 201 -416 201 -416 125 -458 c 128,-1,9
 49 -500 49 -500 -36 -500 c 0,10,11
 -66 -500 -66 -500 -92.5 -495 c 128,-1,12
 -119 -490 -119 -490 -138.5 -482.5 c 128,-1,13
 -158 -475 -158 -475 -169.5 -466 c 128,-1,14
 -181 -457 -181 -457 -181 -449 c 0,15,16
 -181 -437 -181 -437 -171.5 -415.5 c 128,-1,17
 -162 -394 -162 -394 -148 -370.5 c 128,-1,18
 -134 -347 -134 -347 -117.5 -327.5 c 128,-1,19
 -101 -308 -101 -308 -87 -301 c 1,20,21
 -63 -317 -63 -317 -44.5 -326 c 128,-1,22
 -26 -335 -26 -335 -10 -339 c 128,-1,23
 6 -343 6 -343 22 -343.5 c 128,-1,24
 38 -344 38 -344 56 -344 c 0,25,26
 137 -344 137 -344 214.5 -265.5 c 128,-1,27
 292 -187 292 -187 376 -44 c 1,28,29
 366 14 366 14 351.5 87 c 128,-1,30
 337 160 337 160 319.5 237 c 128,-1,31
 302 314 302 314 283 391.5 c 128,-1,32
 264 469 264 469 245 537 c 128,-1,33
 226 605 226 605 208.5 659.5 c 128,-1,34
 191 714 191 714 176 745 c 0,35,36
 153 796 153 796 137 811.5 c 128,-1,37
 121 827 121 827 104 827 c 0,38,39
 95 827 95 827 78.5 823 c 128,-1,40
 62 819 62 819 46 814.5 c 128,-1,41
 30 810 30 810 18 806.5 c 128,-1,42
 6 803 6 803 6 803 c 1,43,-1
 -6 840 l 1,44,45
 36 859 36 859 74 876.5 c 128,-1,46
 112 894 112 894 142.5 907 c 128,-1,47
 173 920 173 920 196 928 c 128,-1,48
 219 936 219 936 231 936 c 0,49,50
 245 936 245 936 255.5 929 c 128,-1,51
 266 922 266 922 276 907 c 128,-1,52
 286 892 286 892 295.5 867.5 c 128,-1,53
 305 843 305 843 317 809 c 0,54,55
 336 755 336 755 358.5 681.5 c 128,-1,56
 381 608 381 608 404 523 c 128,-1,57
 427 438 427 438 449 346.5 c 128,-1,58
 471 255 471 255 489 165 c 1,59,60
 521 228 521 228 553.5 293.5 c 128,-1,61
 586 359 586 359 616 423 c 128,-1,62
 646 487 646 487 671.5 545.5 c 128,-1,63
 697 604 697 604 716.5 653 c 128,-1,64
 736 702 736 702 747 737.5 c 128,-1,65
 758 773 758 773 758 791 c 0,66,67
 758 841 758 841 705 844 c 1,68,69
 673 847 673 847 614 821 c 1,70,-1
 596 858 l 1,71,72
 668 900 668 900 722.5 918 c 128,-1,73
 777 936 777 936 811 936 c 0,74,75
 828 936 828 936 843 933.5 c 128,-1,76
 858 931 858 931 869 923 c 128,-1,77
 880 915 880 915 886.5 900 c 128,-1,78
 893 885 893 885 893 860 c 0,0,1
EndSplineSet
EndChar

StartChar: z
Encoding: 122 122 87
Width: 776
Flags: W
LayerCount: 2
Fore
SplineSet
776 885 m 1,0,1
 694 796 694 796 628 708.5 c 128,-1,2
 562 621 562 621 499.5 530.5 c 128,-1,3
 437 440 437 440 372.5 345.5 c 128,-1,4
 308 251 308 251 229 150 c 1,5,6
 232 152 232 152 256 159 c 128,-1,7
 280 166 280 166 311 166 c 0,8,9
 331 166 331 166 364.5 156.5 c 128,-1,10
 398 147 398 147 438 135 c 128,-1,11
 478 123 478 123 519.5 113.5 c 128,-1,12
 561 104 561 104 598 104 c 0,13,14
 607 104 607 104 620 106.5 c 128,-1,15
 633 109 633 109 648 120 c 128,-1,16
 663 131 663 131 681 153 c 128,-1,17
 699 175 699 175 719 213 c 1,18,-1
 754 193 l 1,19,20
 726 131 726 131 705 90 c 128,-1,21
 684 49 684 49 659.5 24.5 c 128,-1,22
 635 0 635 0 603 -10 c 128,-1,23
 571 -20 571 -20 522 -20 c 256,24,25
 473 -20 473 -20 429 -9.5 c 128,-1,26
 385 1 385 1 346 13.5 c 128,-1,27
 307 26 307 26 271.5 36.5 c 128,-1,28
 236 47 236 47 205 47 c 0,29,30
 189 47 189 47 172 42 c 128,-1,31
 155 37 155 37 133.5 27 c 128,-1,32
 112 17 112 17 84 2.5 c 128,-1,33
 56 -12 56 -12 18 -31 c 1,34,-1
 -4 2 l 1,35,36
 46 62 46 62 99.5 134.5 c 128,-1,37
 153 207 153 207 207 283.5 c 128,-1,38
 261 360 261 360 313.5 436.5 c 128,-1,39
 366 513 366 513 413 581.5 c 128,-1,40
 460 650 460 650 500 705 c 128,-1,41
 540 760 540 760 569 795 c 1,42,-1
 268 795 l 2,43,44
 244 795 244 795 227.5 790.5 c 128,-1,45
 211 786 211 786 197.5 772.5 c 128,-1,46
 184 759 184 759 172 733.5 c 128,-1,47
 160 708 160 708 145 666 c 1,48,-1
 106 674 l 1,49,50
 125 764 125 764 143.5 828.5 c 128,-1,51
 162 893 162 893 170 936 c 1,52,53
 189 931 189 931 211 923 c 128,-1,54
 233 915 233 915 268 915 c 2,55,-1
 756 915 l 1,56,-1
 776 885 l 1,57,-1
 776 885 l 1,0,1
EndSplineSet
EndChar

StartChar: braceleft
Encoding: 123 123 88
Width: 641
Flags: W
LayerCount: 2
Fore
SplineSet
741 1552 m 1,0,1
 701 1528 701 1528 665.5 1497 c 128,-1,2
 630 1466 630 1466 601.5 1428.5 c 128,-1,3
 573 1391 573 1391 553.5 1347 c 128,-1,4
 534 1303 534 1303 526 1251 c 0,5,6
 518 1193 518 1193 519.5 1156 c 128,-1,7
 521 1119 521 1119 523.5 1086.5 c 128,-1,8
 526 1054 526 1054 526.5 1017 c 128,-1,9
 527 980 527 980 518 922 c 0,10,11
 512 880 512 880 495 840 c 128,-1,12
 478 800 478 800 452 764.5 c 128,-1,13
 426 729 426 729 390.5 700 c 128,-1,14
 355 671 355 671 313 653 c 1,15,16
 358 644 358 644 387 621.5 c 128,-1,17
 416 599 416 599 431 565 c 128,-1,18
 446 531 446 531 448 485.5 c 128,-1,19
 450 440 450 440 442 385 c 0,20,21
 434 325 434 325 422 283 c 128,-1,22
 410 241 410 241 398 204 c 128,-1,23
 386 167 386 167 374.5 130 c 128,-1,24
 363 93 363 93 356 43 c 0,25,26
 348 -12 348 -12 349.5 -54.5 c 128,-1,27
 351 -97 351 -97 364.5 -131.5 c 128,-1,28
 378 -166 378 -166 405 -195.5 c 128,-1,29
 432 -225 432 -225 477 -254 c 1,30,-1
 449 -315 l 1,31,32
 376 -281 376 -281 325 -243.5 c 128,-1,33
 274 -206 274 -206 244.5 -160 c 128,-1,34
 215 -114 215 -114 206 -57 c 128,-1,35
 197 0 197 0 207 72 c 0,36,37
 215 131 215 131 226.5 169.5 c 128,-1,38
 238 208 238 208 250 243.5 c 128,-1,39
 262 279 262 279 274 319.5 c 128,-1,40
 286 360 286 360 295 422 c 0,41,42
 306 503 306 503 273.5 544.5 c 128,-1,43
 241 586 241 586 172 586 c 0,44,45
 160 586 160 586 154 586 c 256,46,47
 148 586 148 586 143 585.5 c 128,-1,48
 138 585 138 585 131 583.5 c 128,-1,49
 124 582 124 582 111 580 c 1,50,-1
 102 633 l 1,51,52
 217 664 217 664 281 725.5 c 128,-1,53
 345 787 345 787 356 862 c 0,54,55
 362 902 362 902 363 931 c 128,-1,56
 364 960 364 960 363.5 983.5 c 128,-1,57
 363 1007 363 1007 360.5 1027.5 c 128,-1,58
 358 1048 358 1048 357.5 1071 c 128,-1,59
 357 1094 357 1094 358 1123.5 c 128,-1,60
 359 1153 359 1153 365 1194 c 0,61,62
 385 1330 385 1330 479 1430.5 c 128,-1,63
 573 1531 573 1531 723 1599 c 1,64,-1
 741 1552 l 1,65,-1
 741 1552 l 1,0,1
EndSplineSet
EndChar

StartChar: bar
Encoding: 124 124 89
Width: 410
Flags: W
LayerCount: 2
Fore
SplineSet
176 -285 m 1,0,1
 156 -299 156 -299 126 -313.5 c 128,-1,2
 96 -328 96 -328 72 -336 c 1,3,-1
 43 -311 l 1,4,-1
 305 1550 l 1,5,6
 333 1567 333 1567 356 1579 c 128,-1,7
 379 1591 379 1591 408 1599 c 1,8,-1
 438 1577 l 1,9,-1
 176 -285 l 1,0,1
EndSplineSet
EndChar

StartChar: braceright
Encoding: 125 125 90
Width: 641
Flags: W
LayerCount: 2
Fore
SplineSet
557 651 m 1,0,1
 443 620 443 620 378.5 559.5 c 128,-1,2
 314 499 314 499 303 422 c 0,3,4
 297 382 297 382 296 353 c 128,-1,5
 295 324 295 324 296 301 c 128,-1,6
 297 278 297 278 299 258 c 128,-1,7
 301 238 301 238 302 214.5 c 128,-1,8
 303 191 303 191 301.5 162 c 128,-1,9
 300 133 300 133 295 92 c 1,10,11
 285 24 285 24 255.5 -35 c 128,-1,12
 226 -94 226 -94 179.5 -145 c 128,-1,13
 133 -196 133 -196 71.5 -238.5 c 128,-1,14
 10 -281 10 -281 -63 -315 c 1,15,-1
 -82 -266 l 1,16,17
 -42 -242 -42 -242 -6 -211.5 c 128,-1,18
 30 -181 30 -181 58 -143.5 c 128,-1,19
 86 -106 86 -106 105 -61.5 c 128,-1,20
 124 -17 124 -17 131 35 c 0,21,22
 137 74 137 74 138.5 102.5 c 128,-1,23
 140 131 140 131 139.5 154.5 c 128,-1,24
 139 178 139 178 137 199 c 128,-1,25
 135 220 135 220 134.5 243.5 c 128,-1,26
 134 267 134 267 135 296 c 128,-1,27
 136 325 136 325 141 365 c 0,28,29
 147 406 147 406 164 446 c 128,-1,30
 181 486 181 486 207.5 521 c 128,-1,31
 234 556 234 556 269 584.5 c 128,-1,32
 304 613 304 613 346 631 c 1,33,34
 301 641 301 641 272 663.5 c 128,-1,35
 243 686 243 686 228.5 720 c 128,-1,36
 214 754 214 754 211.5 799.5 c 128,-1,37
 209 845 209 845 217 901 c 0,38,39
 226 960 226 960 237.5 1002 c 128,-1,40
 249 1044 249 1044 261 1081 c 128,-1,41
 273 1118 273 1118 283.5 1155 c 128,-1,42
 294 1192 294 1192 301 1241 c 0,43,44
 310 1297 310 1297 309 1340 c 128,-1,45
 308 1383 308 1383 294.5 1417.5 c 128,-1,46
 281 1452 281 1452 253 1480.5 c 128,-1,47
 225 1509 225 1509 180 1538 c 1,48,-1
 211 1599 l 1,49,50
 285 1566 285 1566 335.5 1528.5 c 128,-1,51
 386 1491 386 1491 415.5 1445 c 128,-1,52
 445 1399 445 1399 454 1342.5 c 128,-1,53
 463 1286 463 1286 453 1214 c 0,54,55
 444 1155 444 1155 433 1116 c 128,-1,56
 422 1077 422 1077 410 1041.5 c 128,-1,57
 398 1006 398 1006 386.5 965.5 c 128,-1,58
 375 925 375 925 367 864 c 1,59,60
 354 783 354 783 386 741.5 c 128,-1,61
 418 700 418 700 487 700 c 0,62,63
 499 700 499 700 505 700 c 256,64,65
 511 700 511 700 516 700.5 c 128,-1,66
 521 701 521 701 527.5 702.5 c 128,-1,67
 534 704 534 704 549 707 c 1,68,-1
 557 651 l 1,69,-1
 557 651 l 1,0,1
EndSplineSet
EndChar

StartChar: asciitilde
Encoding: 126 126 91
Width: 930
Flags: W
LayerCount: 2
Fore
SplineSet
911 774 m 1,0,1
 884 725 884 725 847 672.5 c 128,-1,2
 810 620 810 620 767.5 576.5 c 128,-1,3
 725 533 725 533 679.5 505 c 128,-1,4
 634 477 634 477 590 477 c 0,5,6
 550 477 550 477 509.5 502 c 128,-1,7
 469 527 469 527 428 557 c 128,-1,8
 387 587 387 587 346.5 612 c 128,-1,9
 306 637 306 637 266 637 c 0,10,11
 220 637 220 637 175.5 598 c 128,-1,12
 131 559 131 559 82 475 c 1,13,-1
 37 502 l 1,14,15
 63 551 63 551 100 603.5 c 128,-1,16
 137 656 137 656 180 699.5 c 128,-1,17
 223 743 223 743 268.5 771 c 128,-1,18
 314 799 314 799 358 799 c 0,19,20
 401 799 401 799 442.5 774 c 128,-1,21
 484 749 484 749 524.5 719 c 128,-1,22
 565 689 565 689 603.5 664 c 128,-1,23
 642 639 642 639 680 639 c 0,24,25
 725 639 725 639 770 678 c 128,-1,26
 815 717 815 717 866 799 c 1,27,-1
 911 774 l 1,28,-1
 911 774 l 1,0,1
EndSplineSet
EndChar

StartChar: exclamdown
Encoding: 161 161 93
Width: 410
Flags: W
LayerCount: 2
Fore
SplineSet
111 748 m 0,0,1
 111 778 111 778 121.5 810.5 c 128,-1,2
 132 843 132 843 151.5 869.5 c 128,-1,3
 171 896 171 896 198 913 c 128,-1,4
 225 930 225 930 258 930 c 0,5,6
 298 930 298 930 321 903 c 128,-1,7
 344 876 344 876 344 831 c 0,8,9
 344 802 344 802 332.5 770.5 c 128,-1,10
 321 739 321 739 301 713 c 128,-1,11
 281 687 281 687 253.5 670 c 128,-1,12
 226 653 226 653 195 653 c 0,13,14
 156 653 156 653 133.5 679.5 c 128,-1,15
 111 706 111 706 111 748 c 0,0,1
158 -442 m 1,16,17
 143 -452 143 -452 121.5 -466 c 128,-1,18
 100 -480 100 -480 76.5 -494 c 128,-1,19
 53 -508 53 -508 29.5 -519.5 c 128,-1,20
 6 -531 6 -531 -14 -537 c 1,21,-1
 -51 -512 l 1,22,-1
 143 510 l 1,23,24
 163 524 163 524 178.5 532.5 c 128,-1,25
 194 541 194 541 217 549 c 1,26,-1
 242 528 l 1,27,-1
 158 -442 l 1,16,17
EndSplineSet
EndChar

StartChar: cent
Encoding: 162 162 94
Width: 823
Flags: W
LayerCount: 2
Fore
SplineSet
250 510 m 0,0,1
 250 459 250 459 261 415 c 128,-1,2
 272 371 272 371 291.5 336.5 c 128,-1,3
 311 302 311 302 338 277 c 128,-1,4
 365 252 365 252 396 239 c 1,5,-1
 493 946 l 1,6,7
 435 932 435 932 389.5 885.5 c 128,-1,8
 344 839 344 839 313 776.5 c 128,-1,9
 282 714 282 714 266 643.5 c 128,-1,10
 250 573 250 573 250 510 c 0,0,1
586 1050 m 1,11,12
 600 1052 600 1052 614 1053.5 c 128,-1,13
 628 1055 628 1055 641 1055 c 0,14,15
 685 1055 685 1055 719.5 1038.5 c 128,-1,16
 754 1022 754 1022 781 1001 c 128,-1,17
 808 980 808 980 828.5 960.5 c 128,-1,18
 849 941 849 941 864 936 c 1,19,20
 843 921 843 921 822.5 902.5 c 128,-1,21
 802 884 802 884 783.5 868 c 128,-1,22
 765 852 765 852 749 841.5 c 128,-1,23
 733 831 733 831 721 831 c 0,24,25
 711 831 711 831 700.5 846.5 c 128,-1,26
 690 862 690 862 673.5 882.5 c 128,-1,27
 657 903 657 903 632.5 922 c 128,-1,28
 608 941 608 941 572 948 c 1,29,-1
 473 225 l 1,30,31
 491 226 491 226 515.5 233 c 128,-1,32
 540 240 540 240 572 257 c 128,-1,33
 604 274 604 274 644.5 302 c 128,-1,34
 685 330 685 330 737 373 c 1,35,36
 745 360 745 360 754 349.5 c 128,-1,37
 763 339 763 339 768 330 c 1,38,39
 713 280 713 280 668.5 244.5 c 128,-1,40
 624 209 624 209 586.5 184 c 128,-1,41
 549 159 549 159 518 144.5 c 128,-1,42
 487 130 487 130 459 122 c 1,43,-1
 440 -18 l 1,44,45
 431 -26 431 -26 424.5 -30.5 c 128,-1,46
 418 -35 418 -35 412 -38 c 128,-1,47
 406 -41 406 -41 398.5 -43 c 128,-1,48
 391 -45 391 -45 379 -49 c 1,49,-1
 360 -27 l 1,50,-1
 379 111 l 1,51,-1
 367 111 l 2,52,53
 344 111 344 111 316 118 c 128,-1,54
 288 125 288 125 258.5 141.5 c 128,-1,55
 229 158 229 158 201.5 185.5 c 128,-1,56
 174 213 174 213 152 253 c 128,-1,57
 130 293 130 293 117 347 c 128,-1,58
 104 401 104 401 104 471 c 0,59,60
 104 538 104 538 118 606.5 c 128,-1,61
 132 675 132 675 163.5 740 c 128,-1,62
 195 805 195 805 246 864.5 c 128,-1,63
 297 924 297 924 371 973 c 0,64,65
 399 991 399 991 433.5 1006 c 128,-1,66
 468 1021 468 1021 505 1032 c 1,67,-1
 526 1186 l 1,68,69
 539 1195 539 1195 545 1199.5 c 128,-1,70
 551 1204 551 1204 555.5 1206.5 c 128,-1,71
 560 1209 560 1209 566 1211 c 128,-1,72
 572 1213 572 1213 586 1217 c 1,73,-1
 606 1194 l 1,74,-1
 586 1050 l 1,11,12
EndSplineSet
EndChar

StartChar: sterling
Encoding: 163 163 95
Width: 823
Flags: W
LayerCount: 2
Fore
SplineSet
523 537 m 1,0,-1
 305 537 l 1,1,2
 298 468 298 468 282.5 405 c 128,-1,3
 267 342 267 342 245 286.5 c 128,-1,4
 223 231 223 231 196.5 184 c 128,-1,5
 170 137 170 137 142 101 c 1,6,7
 204 107 204 107 245 107 c 256,8,9
 286 107 286 107 320.5 105 c 128,-1,10
 355 103 355 103 390.5 101 c 128,-1,11
 426 99 426 99 476 101 c 0,12,13
 518 102 518 102 548 107 c 128,-1,14
 578 112 578 112 603.5 129 c 128,-1,15
 629 146 629 146 652 179.5 c 128,-1,16
 675 213 675 213 702 272 c 1,17,-1
 739 254 l 1,18,19
 730 211 730 211 719.5 171.5 c 128,-1,20
 709 132 709 132 699 98.5 c 128,-1,21
 689 65 689 65 680.5 40 c 128,-1,22
 672 15 672 15 667 0 c 1,23,24
 623 -25 623 -25 568 -28 c 128,-1,25
 513 -31 513 -31 451.5 -24 c 128,-1,26
 390 -17 390 -17 325.5 -5.5 c 128,-1,27
 261 6 261 6 198 11 c 128,-1,28
 135 16 135 16 76.5 8.5 c 128,-1,29
 18 1 18 1 -31 -30 c 1,30,-1
 -44 19 l 1,31,32
 -13 44 -13 44 11.5 66 c 128,-1,33
 36 88 36 88 55 113.5 c 128,-1,34
 74 139 74 139 88.5 173 c 128,-1,35
 103 207 103 207 114 256 c 128,-1,36
 125 305 125 305 133.5 373.5 c 128,-1,37
 142 442 142 442 150 537 c 1,38,-1
 47 537 l 1,39,-1
 32 562 l 1,40,41
 37 577 37 577 44.5 594 c 128,-1,42
 52 611 52 611 60 627 c 1,43,-1
 157 627 l 1,44,45
 171 769 171 769 206.5 882 c 128,-1,46
 242 995 242 995 299.5 1073.5 c 128,-1,47
 357 1152 357 1152 437 1193.5 c 128,-1,48
 517 1235 517 1235 620 1235 c 0,49,50
 644 1235 644 1235 665.5 1233 c 128,-1,51
 687 1231 687 1231 711 1223.5 c 128,-1,52
 735 1216 735 1216 764.5 1202.5 c 128,-1,53
 794 1189 794 1189 833 1165 c 1,54,55
 828 1139 828 1139 819.5 1102 c 128,-1,56
 811 1065 811 1065 800.5 1026.5 c 128,-1,57
 790 988 790 988 779.5 953.5 c 128,-1,58
 769 919 769 919 761 900 c 1,59,-1
 718 900 l 1,60,61
 722 1024 722 1024 676.5 1080 c 128,-1,62
 631 1136 631 1136 540 1136 c 0,63,64
 516 1136 516 1136 491.5 1130.5 c 128,-1,65
 467 1125 467 1125 443 1107.5 c 128,-1,66
 419 1090 419 1090 397 1056.5 c 128,-1,67
 375 1023 375 1023 357.5 966.5 c 128,-1,68
 340 910 340 910 327.5 826.5 c 128,-1,69
 315 743 315 743 310 627 c 1,70,-1
 536 627 l 1,71,-1
 556 604 l 1,72,-1
 523 537 l 1,0,-1
EndSplineSet
EndChar

StartChar: currency
Encoding: 164 164 96
Width: 865
Flags: W
LayerCount: 2
Fore
SplineSet
501 770 m 0,0,1
 466 770 466 770 435.5 757 c 128,-1,2
 405 744 405 744 382 721 c 128,-1,3
 359 698 359 698 344 667 c 128,-1,4
 329 636 329 636 325 601 c 0,5,6
 321 569 321 569 328.5 539 c 128,-1,7
 336 509 336 509 353 486 c 128,-1,8
 370 463 370 463 395.5 448.5 c 128,-1,9
 421 434 421 434 454 434 c 0,10,11
 489 434 489 434 518.5 447.5 c 128,-1,12
 548 461 548 461 571 484 c 128,-1,13
 594 507 594 507 608.5 537.5 c 128,-1,14
 623 568 623 568 628 602 c 0,15,16
 632 633 632 633 625 663 c 128,-1,17
 618 693 618 693 601.5 717 c 128,-1,18
 585 741 585 741 559.5 755.5 c 128,-1,19
 534 770 534 770 501 770 c 0,0,1
662 280 m 1,20,-1
 583 384 l 1,21,22
 518 339 518 339 441 339 c 0,23,24
 401 339 401 339 368.5 351.5 c 128,-1,25
 336 364 336 364 311 387 c 1,26,-1
 200 281 l 1,27,-1
 171 283 l 1,28,29
 166 297 166 297 160.5 313 c 128,-1,30
 155 329 155 329 151 345 c 1,31,-1
 262 451 l 1,32,33
 228 519 228 519 239 600 c 1,34,35
 244 648 244 648 260.5 686.5 c 128,-1,36
 277 725 277 725 300 755 c 1,37,-1
 214 867 l 1,38,-1
 221 900 l 1,39,40
 234 908 234 908 254 912.5 c 128,-1,41
 274 917 274 917 289 924 c 1,42,-1
 369 818 l 1,43,44
 406 843 406 843 444 854.5 c 128,-1,45
 482 866 482 866 514 866 c 0,46,47
 552 866 552 866 584 852.5 c 128,-1,48
 616 839 616 839 641 816 c 1,49,-1
 750 921 l 1,50,-1
 781 922 l 1,51,-1
 799 856 l 1,52,-1
 689 751 l 1,53,54
 706 717 706 717 712 678 c 128,-1,55
 718 639 718 639 713 600 c 0,56,57
 701 514 701 514 650 448 c 1,58,-1
 737 335 l 1,59,-1
 734 301 l 1,60,-1
 662 280 l 1,20,-1
EndSplineSet
EndChar

StartChar: yen
Encoding: 165 165 97
Width: 823
Flags: W
LayerCount: 2
Fore
SplineSet
972 1179 m 1,0,1
 917 1167 917 1167 886 1154 c 128,-1,2
 855 1141 855 1141 841 1115 c 2,3,-1
 502 524 l 1,4,-1
 501 511 l 1,5,-1
 711 511 l 1,6,-1
 728 488 l 1,7,-1
 700 422 l 1,8,-1
 490 422 l 1,9,-1
 452 111 l 2,10,11
 450 99 450 99 476.5 79.5 c 128,-1,12
 503 60 503 60 574 42 c 1,13,-1
 569 0 l 1,14,-1
 182 0 l 1,15,-1
 188 42 l 1,16,17
 263 60 263 60 294 78.5 c 128,-1,18
 325 97 325 97 326 111 c 2,19,-1
 364 422 l 1,20,-1
 151 422 l 1,21,-1
 137 447 l 1,22,23
 142 461 142 461 149 478 c 128,-1,24
 156 495 156 495 162 511 c 1,25,-1
 375 511 l 1,26,-1
 378 534 l 1,27,28
 362 605 362 605 336.5 687 c 128,-1,29
 311 769 311 769 281.5 848.5 c 128,-1,30
 252 928 252 928 220 999 c 128,-1,31
 188 1070 188 1070 159 1119 c 0,32,33
 150 1133 150 1133 140.5 1142 c 128,-1,34
 131 1151 131 1151 116.5 1155.5 c 128,-1,35
 102 1160 102 1160 81 1159.5 c 128,-1,36
 60 1159 60 1159 30 1155 c 1,37,-1
 22 1197 l 1,38,39
 45 1203 45 1203 73 1210 c 128,-1,40
 101 1217 101 1217 129 1223 c 128,-1,41
 157 1229 157 1229 181.5 1232.5 c 128,-1,42
 206 1236 206 1236 223 1236 c 0,43,44
 245 1236 245 1236 267 1199 c 0,45,46
 286 1167 286 1167 307 1123 c 128,-1,47
 328 1079 328 1079 349 1029.5 c 128,-1,48
 370 980 370 980 390 928 c 128,-1,49
 410 876 410 876 426.5 826.5 c 128,-1,50
 443 777 443 777 455.5 733 c 128,-1,51
 468 689 468 689 475 657 c 1,52,-1
 743 1115 l 1,53,54
 757 1142 757 1142 738 1156 c 128,-1,55
 719 1170 719 1170 660 1179 c 1,56,-1
 665 1221 l 1,57,-1
 977 1221 l 1,58,-1
 972 1179 l 1,0,1
EndSplineSet
EndChar

StartChar: section
Encoding: 167 167 98
Width: 865
Flags: W
LayerCount: 2
Fore
SplineSet
517 529 m 1,0,1
 539 515 539 515 561 501.5 c 128,-1,2
 583 488 583 488 604 473 c 1,3,4
 636 493 636 493 656.5 524.5 c 128,-1,5
 677 556 677 556 682 594 c 0,6,7
 688 640 688 640 677 677.5 c 128,-1,8
 666 715 666 715 636.5 750.5 c 128,-1,9
 607 786 607 786 560 821.5 c 128,-1,10
 513 857 513 857 449 899 c 1,11,12
 411 922 411 922 380 952 c 1,13,14
 363 946 363 946 349.5 931 c 128,-1,15
 336 916 336 916 325.5 897 c 128,-1,16
 315 878 315 878 308 858 c 128,-1,17
 301 838 301 838 299 822 c 0,18,19
 293 776 293 776 303 740.5 c 128,-1,20
 313 705 313 705 340 672.5 c 128,-1,21
 367 640 367 640 411 606 c 128,-1,22
 455 572 455 572 517 529 c 1,0,1
809 656 m 1,23,24
 796 567 796 567 756 504.5 c 128,-1,25
 716 442 716 442 670 408 c 1,26,27
 690 380 690 380 698.5 345 c 128,-1,28
 707 310 707 310 701 263 c 0,29,30
 691 192 691 192 666 143 c 128,-1,31
 641 94 641 94 608 61.5 c 128,-1,32
 575 29 575 29 537 10.5 c 128,-1,33
 499 -8 499 -8 463.5 -17 c 128,-1,34
 428 -26 428 -26 397.5 -28 c 128,-1,35
 367 -30 367 -30 350 -30 c 0,36,37
 307 -30 307 -30 249.5 -7 c 128,-1,38
 192 16 192 16 137 53 c 0,39,40
 131 56 131 56 133 85.5 c 128,-1,41
 135 115 135 115 141.5 153.5 c 128,-1,42
 148 192 148 192 157.5 231 c 128,-1,43
 167 270 167 270 176 293 c 1,44,-1
 214 282 l 1,45,46
 210 240 210 240 222.5 201.5 c 128,-1,47
 235 163 235 163 261 133 c 128,-1,48
 287 103 287 103 324.5 85.5 c 128,-1,49
 362 68 362 68 409 68 c 0,50,51
 474 68 474 68 520 102 c 128,-1,52
 566 136 566 136 576 207 c 0,53,54
 582 247 582 247 566.5 276 c 128,-1,55
 551 305 551 305 522.5 328.5 c 128,-1,56
 494 352 494 352 456.5 373 c 128,-1,57
 419 394 419 394 382 419 c 0,58,59
 327 455 327 455 284.5 491.5 c 128,-1,60
 242 528 242 528 214.5 569.5 c 128,-1,61
 187 611 187 611 176 661 c 128,-1,62
 165 711 165 711 174 775 c 0,63,64
 179 812 179 812 194.5 846.5 c 128,-1,65
 210 881 210 881 231.5 911 c 128,-1,66
 253 941 253 941 279.5 966 c 128,-1,67
 306 991 306 991 334 1008 c 1,68,69
 308 1048 308 1048 297.5 1095.5 c 128,-1,70
 287 1143 287 1143 295 1200 c 0,71,72
 304 1262 304 1262 333 1307.5 c 128,-1,73
 362 1353 362 1353 403.5 1382.5 c 128,-1,74
 445 1412 445 1412 495 1426 c 128,-1,75
 545 1440 545 1440 596 1440 c 0,76,77
 624 1440 624 1440 656.5 1433 c 128,-1,78
 689 1426 689 1426 720 1414 c 128,-1,79
 751 1402 751 1402 777.5 1386.5 c 128,-1,80
 804 1371 804 1371 820 1353 c 0,81,82
 825 1347 825 1347 818 1326 c 128,-1,83
 811 1305 811 1305 799 1280 c 128,-1,84
 787 1255 787 1255 774 1233 c 128,-1,85
 761 1211 761 1211 754 1203 c 1,86,-1
 720 1211 l 1,87,88
 687 1283 687 1283 645.5 1316.5 c 128,-1,89
 604 1350 604 1350 559 1350 c 0,90,91
 499 1350 499 1350 462 1321.5 c 128,-1,92
 425 1293 425 1293 417 1240 c 0,93,94
 412 1205 412 1205 420.5 1176.5 c 128,-1,95
 429 1148 429 1148 450.5 1121 c 128,-1,96
 472 1094 472 1094 505.5 1067 c 128,-1,97
 539 1040 539 1040 584 1009 c 0,98,99
 639 971 639 971 684.5 936.5 c 128,-1,100
 730 902 730 902 760.5 862.5 c 128,-1,101
 791 823 791 823 804.5 774 c 128,-1,102
 818 725 818 725 809 656 c 1,23,24
EndSplineSet
EndChar

StartChar: copyright
Encoding: 169 169 99
Width: 1360
Flags: W
LayerCount: 2
Fore
SplineSet
1014 942 m 1,0,1
 976 917 976 917 942 894.5 c 128,-1,2
 908 872 908 872 885 872 c 0,3,4
 875 872 875 872 861.5 886 c 128,-1,5
 848 900 848 900 829 917.5 c 128,-1,6
 810 935 810 935 784.5 949 c 128,-1,7
 759 963 759 963 725 963 c 0,8,9
 683 963 683 963 647 944 c 128,-1,10
 611 925 611 925 582 893 c 128,-1,11
 553 861 553 861 530 819.5 c 128,-1,12
 507 778 507 778 492 733 c 128,-1,13
 477 688 477 688 469 643 c 128,-1,14
 461 598 461 598 461 559 c 0,15,16
 461 505 461 505 478 460 c 128,-1,17
 495 415 495 415 524 382.5 c 128,-1,18
 553 350 553 350 591.5 332.5 c 128,-1,19
 630 315 630 315 672 315 c 0,20,21
 688 315 688 315 709.5 321 c 128,-1,22
 731 327 731 327 760.5 342 c 128,-1,23
 790 357 790 357 829 381.5 c 128,-1,24
 868 406 868 406 918 444 c 1,25,26
 926 433 926 433 933.5 424.5 c 128,-1,27
 941 416 941 416 946 408 c 1,28,29
 874 348 874 348 820.5 311.5 c 128,-1,30
 767 275 767 275 725 255.5 c 128,-1,31
 683 236 683 236 648.5 229.5 c 128,-1,32
 614 223 614 223 580 223 c 0,33,34
 549 223 549 223 507 237.5 c 128,-1,35
 465 252 465 252 427 286.5 c 128,-1,36
 389 321 389 321 362.5 379.5 c 128,-1,37
 336 438 336 438 336 526 c 0,38,39
 336 583 336 583 347 640.5 c 128,-1,40
 358 698 358 698 384 753.5 c 128,-1,41
 410 809 410 809 453 862.5 c 128,-1,42
 496 916 496 916 561 965 c 0,43,44
 584 983 584 983 615 998 c 128,-1,45
 646 1013 646 1013 679.5 1023 c 128,-1,46
 713 1033 713 1033 746.5 1038.5 c 128,-1,47
 780 1044 780 1044 809 1044 c 0,48,49
 850 1044 850 1044 882 1029.5 c 128,-1,50
 914 1015 914 1015 938.5 997 c 128,-1,51
 963 979 963 979 981.5 962.5 c 128,-1,52
 1000 946 1000 946 1014 942 c 1,0,1
1200 719 m 0,53,54
 1200 820 1200 820 1170 908.5 c 128,-1,55
 1140 997 1140 997 1084 1062.5 c 128,-1,56
 1028 1128 1028 1128 948 1166 c 128,-1,57
 868 1204 868 1204 768 1204 c 0,58,59
 683 1204 683 1204 605.5 1177.5 c 128,-1,60
 528 1151 528 1151 461.5 1104.5 c 128,-1,61
 395 1058 395 1058 341.5 995 c 128,-1,62
 288 932 288 932 250.5 858.5 c 128,-1,63
 213 785 213 785 192.5 705 c 128,-1,64
 172 625 172 625 172 545 c 0,65,66
 172 443 172 443 202 354 c 128,-1,67
 232 265 232 265 288.5 198.5 c 128,-1,68
 345 132 345 132 425 93.5 c 128,-1,69
 505 55 505 55 606 55 c 0,70,71
 692 55 692 55 769.5 81.5 c 128,-1,72
 847 108 847 108 913 155 c 128,-1,73
 979 202 979 202 1032 265.5 c 128,-1,74
 1085 329 1085 329 1122.5 403 c 128,-1,75
 1160 477 1160 477 1180 557.5 c 128,-1,76
 1200 638 1200 638 1200 719 c 0,53,54
1280 752 m 0,77,78
 1280 657 1280 657 1258 562 c 128,-1,79
 1236 467 1236 467 1194 380 c 128,-1,80
 1152 293 1152 293 1091.5 218 c 128,-1,81
 1031 143 1031 143 955 87.5 c 128,-1,82
 879 32 879 32 788 0.5 c 128,-1,83
 697 -31 697 -31 594 -31 c 0,84,85
 480 -31 480 -31 387.5 12 c 128,-1,86
 295 55 295 55 229.5 130 c 128,-1,87
 164 205 164 205 129 307 c 128,-1,88
 94 409 94 409 94 526 c 0,89,90
 94 619 94 619 117 712 c 128,-1,91
 140 805 140 805 183 890 c 128,-1,92
 226 975 226 975 287 1048 c 128,-1,93
 348 1121 348 1121 424 1175 c 128,-1,94
 500 1229 500 1229 589.5 1259.5 c 128,-1,95
 679 1290 679 1290 778 1290 c 0,96,97
 891 1290 891 1290 983.5 1249 c 128,-1,98
 1076 1208 1076 1208 1142 1136 c 128,-1,99
 1208 1064 1208 1064 1244 965.5 c 128,-1,100
 1280 867 1280 867 1280 752 c 0,77,78
EndSplineSet
EndChar

StartChar: ordfeminine
Encoding: 170 170 100
Width: 586
Flags: W
LayerCount: 2
Fore
SplineSet
549 635 m 1,0,1
 544 619 544 619 537.5 609.5 c 128,-1,2
 531 600 531 600 526 586 c 1,3,-1
 76 586 l 1,4,-1
 59 606 l 1,5,6
 64 622 64 622 70 633 c 128,-1,7
 76 644 76 644 82 659 c 1,8,-1
 530 659 l 1,9,-1
 549 635 l 1,10,-1
 549 635 l 1,0,1
401 962 m 1,11,12
 405 987 405 987 409.5 1014.5 c 128,-1,13
 414 1042 414 1042 418 1067 c 128,-1,14
 422 1092 422 1092 426 1112 c 128,-1,15
 430 1132 430 1132 432 1143 c 1,16,17
 415 1156 415 1156 393.5 1168 c 128,-1,18
 372 1180 372 1180 346 1180 c 0,19,20
 309 1180 309 1180 278.5 1154 c 128,-1,21
 248 1128 248 1128 226 1090.5 c 128,-1,22
 204 1053 204 1053 192 1011 c 128,-1,23
 180 969 180 969 180 938 c 0,24,25
 180 867 180 867 202 825.5 c 128,-1,26
 224 784 224 784 256 784 c 0,27,28
 269 784 269 784 287 800 c 128,-1,29
 305 816 305 816 325.5 841.5 c 128,-1,30
 346 867 346 867 365.5 899 c 128,-1,31
 385 931 385 931 401 962 c 1,11,12
563 768 m 1,32,33
 517 739 517 739 487.5 726 c 128,-1,34
 458 713 458 713 442 713 c 0,35,36
 432 713 432 713 423 719.5 c 128,-1,37
 414 726 414 726 407.5 744 c 128,-1,38
 401 762 401 762 397 794.5 c 128,-1,39
 393 827 393 827 393 879 c 1,40,41
 379 854 379 854 359.5 825 c 128,-1,42
 340 796 340 796 316.5 771 c 128,-1,43
 293 746 293 746 268.5 729.5 c 128,-1,44
 244 713 244 713 221 713 c 0,45,46
 203 713 203 713 183 723 c 128,-1,47
 163 733 163 733 146 755 c 128,-1,48
 129 777 129 777 117.5 812 c 128,-1,49
 106 847 106 847 106 897 c 0,50,51
 106 984 106 984 145.5 1058.5 c 128,-1,52
 185 1133 185 1133 262 1186 c 0,53,54
 277 1196 277 1196 294.5 1205 c 128,-1,55
 312 1214 312 1214 330 1221 c 128,-1,56
 348 1228 348 1228 366.5 1232.5 c 128,-1,57
 385 1237 385 1237 401 1237 c 0,58,59
 424 1237 424 1237 444.5 1226 c 128,-1,60
 465 1215 465 1215 482 1204 c 1,61,62
 505 1222 505 1222 537 1237 c 1,63,-1
 547 1217 l 1,64,65
 538 1210 538 1210 531.5 1204 c 128,-1,66
 525 1198 525 1198 520.5 1190.5 c 128,-1,67
 516 1183 516 1183 513 1172 c 128,-1,68
 510 1161 510 1161 506 1143 c 0,69,70
 497 1104 497 1104 490.5 1063 c 128,-1,71
 484 1022 484 1022 479 986 c 128,-1,72
 474 950 474 950 471.5 922.5 c 128,-1,73
 469 895 469 895 469 883 c 0,74,75
 469 821 469 821 475 797.5 c 128,-1,76
 481 774 481 774 494 774 c 0,77,78
 505 774 505 774 519 776.5 c 128,-1,79
 533 779 533 779 555 788 c 1,80,-1
 563 768 l 1,81,-1
 563 768 l 1,32,33
EndSplineSet
EndChar

StartChar: guillemotleft
Encoding: 171 171 101
Width: 882
Flags: W
LayerCount: 2
Fore
SplineSet
58 414 m 1,0,1
 58 414 58 414 59.5 424.5 c 128,-1,2
 61 435 61 435 63 448 c 128,-1,3
 65 461 65 461 67 472.5 c 128,-1,4
 69 484 69 484 70 485 c 2,5,-1
 442 889 l 1,6,-1
 476 860 l 1,7,8
 476 860 476 860 465 842.5 c 128,-1,9
 454 825 454 825 435.5 796 c 128,-1,10
 417 767 417 767 393.5 730 c 128,-1,11
 370 693 370 693 345.5 654.5 c 128,-1,12
 321 616 321 616 298 579 c 128,-1,13
 275 542 275 542 256.5 513 c 128,-1,14
 238 484 238 484 227 467 c 128,-1,15
 216 450 216 450 217 450 c 2,16,-1
 365 36 l 1,17,-1
 323 7 l 1,18,-1
 58 414 l 1,0,1
386 414 m 1,19,20
 386 414 386 414 387.5 424.5 c 128,-1,21
 389 435 389 435 391 448 c 128,-1,22
 393 461 393 461 395 472.5 c 128,-1,23
 397 484 397 484 398 485 c 2,24,-1
 770 889 l 1,25,-1
 804 860 l 1,26,27
 804 860 804 860 793 842.5 c 128,-1,28
 782 825 782 825 763.5 796 c 128,-1,29
 745 767 745 767 721.5 730 c 128,-1,30
 698 693 698 693 673.5 654.5 c 128,-1,31
 649 616 649 616 626 579 c 128,-1,32
 603 542 603 542 584.5 513 c 128,-1,33
 566 484 566 484 555 467 c 128,-1,34
 544 450 544 450 545 450 c 2,35,-1
 693 36 l 1,36,-1
 651 7 l 1,37,-1
 386 414 l 1,19,20
EndSplineSet
EndChar

StartChar: logicalnot
Encoding: 172 172 102
Width: 823
Flags: W
LayerCount: 2
Fore
SplineSet
725 324 m 1,0,1
 705 308 705 308 678 294 c 128,-1,2
 651 280 651 280 627 272 c 1,3,-1
 606 297 l 1,4,-1
 637 506 l 1,5,-1
 70 506 l 1,6,-1
 51 530 l 1,7,8
 59 550 59 550 70 574 c 128,-1,9
 81 598 81 598 92 618 c 1,10,-1
 739 618 l 1,11,-1
 762 596 l 1,12,-1
 725 324 l 1,0,1
EndSplineSet
EndChar

StartChar: registered
Encoding: 174 174 103
Width: 704
Flags: W
LayerCount: 2
Fore
SplineSet
436 1256 m 0,0,1
 431 1256 431 1256 426 1256 c 256,2,3
 421 1256 421 1256 416 1255 c 1,4,-1
 396 1109 l 1,5,6
 402 1107 402 1107 407 1107 c 0,7,8
 413 1107 413 1107 420 1107 c 0,9,10
 465 1107 465 1107 489.5 1123 c 128,-1,11
 514 1139 514 1139 519 1177 c 0,12,13
 521 1192 521 1192 518 1206 c 128,-1,14
 515 1220 515 1220 505.5 1231 c 128,-1,15
 496 1242 496 1242 479 1249 c 128,-1,16
 462 1256 462 1256 436 1256 c 0,0,1
276 887 m 1,17,-1
 278 905 l 1,18,19
 318 914 318 914 320 924 c 2,20,-1
 365 1250 l 1,21,-1
 326 1244 l 1,22,-1
 328 1273 l 1,23,24
 355 1280 355 1280 384.5 1285.5 c 128,-1,25
 414 1291 414 1291 451 1291 c 0,26,27
 485 1291 485 1291 509.5 1282 c 128,-1,28
 534 1273 534 1273 549.5 1258.5 c 128,-1,29
 565 1244 565 1244 571.5 1225 c 128,-1,30
 578 1206 578 1206 575 1186 c 0,31,32
 568 1139 568 1139 539 1112.5 c 128,-1,33
 510 1086 510 1086 469 1076 c 1,34,-1
 541 934 l 2,35,36
 546 923 546 923 556 921.5 c 128,-1,37
 566 920 566 920 586 928 c 1,38,-1
 589 910 l 1,39,-1
 586 908 l 1,40,41
 569 899 569 899 547.5 890 c 128,-1,42
 526 881 526 881 516 881 c 0,43,44
 508 881 508 881 500.5 887 c 128,-1,45
 493 893 493 893 491 899 c 2,46,-1
 420 1070 l 1,47,-1
 418 1070 l 2,48,49
 404 1070 404 1070 391 1073 c 1,50,-1
 370 924 l 2,51,52
 368 914 368 914 405 905 c 1,53,-1
 403 887 l 1,54,-1
 276 887 l 1,17,-1
683 1084 m 0,55,56
 691 1143 691 1143 679.5 1196 c 128,-1,57
 668 1249 668 1249 640.5 1288.5 c 128,-1,58
 613 1328 613 1328 570.5 1351.5 c 128,-1,59
 528 1375 528 1375 474 1375 c 0,60,61
 421 1375 421 1375 373.5 1351.5 c 128,-1,62
 326 1328 326 1328 289 1288.5 c 128,-1,63
 252 1249 252 1249 227 1196 c 128,-1,64
 202 1143 202 1143 194 1084 c 0,65,66
 186 1024 186 1024 197 971.5 c 128,-1,67
 208 919 208 919 236 879 c 128,-1,68
 264 839 264 839 306 816 c 128,-1,69
 348 793 348 793 401 793 c 0,70,71
 455 793 455 793 502.5 816 c 128,-1,72
 550 839 550 839 587.5 879 c 128,-1,73
 625 919 625 919 650 971.5 c 128,-1,74
 675 1024 675 1024 683 1084 c 0,55,56
736 1084 m 256,75,76
 726 1012 726 1012 695 949 c 128,-1,77
 664 886 664 886 617.5 839 c 128,-1,78
 571 792 571 792 512.5 765 c 128,-1,79
 454 738 454 738 390 738 c 0,80,81
 325 738 325 738 274.5 765 c 128,-1,82
 224 792 224 792 191 839 c 128,-1,83
 158 886 158 886 144.5 949 c 128,-1,84
 131 1012 131 1012 141 1084 c 256,85,86
 151 1156 151 1156 182 1219 c 128,-1,87
 213 1282 213 1282 259.5 1329 c 128,-1,88
 306 1376 306 1376 364 1403 c 128,-1,89
 422 1430 422 1430 487 1430 c 0,90,91
 551 1430 551 1430 602 1403 c 128,-1,92
 653 1376 653 1376 686 1329 c 128,-1,93
 719 1282 719 1282 732.5 1219 c 128,-1,94
 746 1156 746 1156 736 1084 c 256,75,76
EndSplineSet
EndChar

StartChar: degree
Encoding: 176 176 104
Width: 628
Flags: W
LayerCount: 2
Fore
SplineSet
362 851 m 0,0,1
 397 851 397 851 424.5 868 c 128,-1,2
 452 885 452 885 470.5 911.5 c 128,-1,3
 489 938 489 938 499 969 c 128,-1,4
 509 1000 509 1000 509 1028 c 0,5,6
 509 1076 509 1076 488 1109 c 128,-1,7
 467 1142 467 1142 429 1142 c 0,8,9
 402 1142 402 1142 376 1128 c 128,-1,10
 350 1114 350 1114 329.5 1090 c 128,-1,11
 309 1066 309 1066 296.5 1034 c 128,-1,12
 284 1002 284 1002 284 966 c 0,13,14
 284 943 284 943 289 922 c 128,-1,15
 294 901 294 901 304 885 c 128,-1,16
 314 869 314 869 328.5 860 c 128,-1,17
 343 851 343 851 362 851 c 0,0,1
614 1073 m 0,18,19
 614 1026 614 1026 599.5 984.5 c 128,-1,20
 585 943 585 943 561.5 908 c 128,-1,21
 538 873 538 873 507.5 845.5 c 128,-1,22
 477 818 477 818 445 798.5 c 128,-1,23
 413 779 413 779 382 769 c 128,-1,24
 351 759 351 759 326 759 c 0,25,26
 293 759 293 759 265.5 771.5 c 128,-1,27
 238 784 238 784 218.5 805.5 c 128,-1,28
 199 827 199 827 188.5 856 c 128,-1,29
 178 885 178 885 178 918 c 0,30,31
 178 984 178 984 206.5 1041.5 c 128,-1,32
 235 1099 235 1099 278.5 1142 c 128,-1,33
 322 1185 322 1185 372 1210 c 128,-1,34
 422 1235 422 1235 466 1235 c 0,35,36
 498 1235 498 1235 525 1222.5 c 128,-1,37
 552 1210 552 1210 572 1188 c 128,-1,38
 592 1166 592 1166 603 1136.5 c 128,-1,39
 614 1107 614 1107 614 1073 c 0,18,19
EndSplineSet
EndChar

StartChar: plusminus
Encoding: 177 177 105
Width: 780
Flags: W
LayerCount: 2
Fore
SplineSet
690 217 m 1,0,1
 683 197 683 197 671.5 171.5 c 128,-1,2
 660 146 660 146 650 129 c 1,3,-1
 54 129 l 1,4,-1
 36 153 l 1,5,6
 44 173 44 173 54.5 197 c 128,-1,7
 65 221 65 221 76 241 c 1,8,-1
 672 241 l 1,9,-1
 690 217 l 1,10,-1
 690 217 l 1,0,1
439 366 m 1,11,12
 421 356 421 356 397.5 348 c 128,-1,13
 374 340 374 340 354 335 c 1,14,-1
 335 357 l 1,15,-1
 374 636 l 1,16,-1
 125 636 l 1,17,-1
 106 660 l 1,18,19
 114 680 114 680 125 704 c 128,-1,20
 136 728 136 728 147 748 c 1,21,-1
 389 748 l 1,22,-1
 428 1021 l 1,23,24
 445 1027 445 1027 469.5 1036 c 128,-1,25
 494 1045 494 1045 514 1050 c 1,26,-1
 531 1027 l 1,27,-1
 492 748 l 1,28,-1
 743 748 l 1,29,-1
 760 724 l 1,30,31
 754 704 754 704 742 678.5 c 128,-1,32
 730 653 730 653 721 636 c 1,33,-1
 476 636 l 1,34,-1
 439 366 l 1,35,-1
 439 366 l 1,11,12
EndSplineSet
EndChar

StartChar: mu
Encoding: 181 181 106
Width: 1051
Flags: W
LayerCount: 2
Fore
SplineSet
1022 215 m 1,0,1
 980 138 980 138 947 88.5 c 128,-1,2
 914 39 914 39 885 10 c 128,-1,3
 856 -19 856 -19 827.5 -30 c 128,-1,4
 799 -41 799 -41 768 -41 c 0,5,6
 747 -41 747 -41 730.5 -20.5 c 128,-1,7
 714 0 714 0 702.5 33.5 c 128,-1,8
 691 67 691 67 685.5 111 c 128,-1,9
 680 155 680 155 680 203 c 0,10,11
 680 213 680 213 680.5 224 c 128,-1,12
 681 235 681 235 682 247 c 1,13,14
 647 183 647 183 611 130 c 128,-1,15
 575 77 575 77 537.5 39 c 128,-1,16
 500 1 500 1 461 -20 c 128,-1,17
 422 -41 422 -41 381 -41 c 0,18,19
 348 -41 348 -41 318 -26.5 c 128,-1,20
 288 -12 288 -12 263 14.5 c 128,-1,21
 238 41 238 41 218 78.5 c 128,-1,22
 198 116 198 116 184 162 c 1,23,24
 182 148 182 148 180 134 c 128,-1,25
 178 120 178 120 176 104 c 0,26,27
 162 1 162 1 165 -88.5 c 128,-1,28
 168 -178 168 -178 178.5 -247 c 128,-1,29
 189 -316 189 -316 201.5 -361.5 c 128,-1,30
 214 -407 214 -407 219 -420 c 1,31,32
 204 -426 204 -426 179 -436.5 c 128,-1,33
 154 -447 154 -447 127 -459 c 128,-1,34
 100 -471 100 -471 76 -482.5 c 128,-1,35
 52 -494 52 -494 40 -500 c 1,36,-1
 7 -471 l 1,37,38
 14 -414 14 -414 25.5 -341 c 128,-1,39
 37 -268 37 -268 50.5 -186 c 128,-1,40
 64 -104 64 -104 79.5 -17 c 128,-1,41
 95 70 95 70 109.5 155.5 c 128,-1,42
 124 241 124 241 137.5 320.5 c 128,-1,43
 151 400 151 400 162 467 c 1,44,45
 166 506 166 506 172.5 546.5 c 128,-1,46
 179 587 179 587 184 625 c 128,-1,47
 189 663 189 663 193 698 c 128,-1,48
 197 733 197 733 197 760 c 0,49,50
 197 783 197 783 194 796.5 c 128,-1,51
 191 810 191 810 185.5 816.5 c 128,-1,52
 180 823 180 823 173 825 c 128,-1,53
 166 827 166 827 158 827 c 0,54,55
 149 827 149 827 131.5 823 c 128,-1,56
 114 819 114 819 97 814.5 c 128,-1,57
 80 810 80 810 67.5 806.5 c 128,-1,58
 55 803 55 803 55 803 c 1,59,-1
 41 840 l 1,60,61
 83 859 83 859 125.5 876.5 c 128,-1,62
 168 894 168 894 205 907 c 128,-1,63
 242 920 242 920 269.5 928 c 128,-1,64
 297 936 297 936 309 936 c 0,65,66
 337 936 337 936 346.5 917 c 128,-1,67
 356 898 356 898 356 852 c 0,68,69
 356 823 356 823 351.5 783 c 128,-1,70
 347 743 347 743 340 698.5 c 128,-1,71
 333 654 333 654 325 607 c 128,-1,72
 317 560 317 560 310 516 c 128,-1,73
 303 472 303 472 298.5 434 c 128,-1,74
 294 396 294 396 294 369 c 0,75,76
 294 314 294 314 303 268 c 128,-1,77
 312 222 312 222 328 189 c 128,-1,78
 344 156 344 156 366 137.5 c 128,-1,79
 388 119 388 119 414 119 c 0,80,81
 475 119 475 119 548.5 193 c 128,-1,82
 622 267 622 267 705 428 c 1,83,84
 713 478 713 478 721.5 527.5 c 128,-1,85
 730 577 730 577 736.5 621.5 c 128,-1,86
 743 666 743 666 747.5 702 c 128,-1,87
 752 738 752 738 752 760 c 0,88,89
 752 792 752 792 748.5 825 c 128,-1,90
 745 858 745 858 735 877 c 1,91,92
 753 884 753 884 774.5 892 c 128,-1,93
 796 900 796 900 819 908 c 128,-1,94
 842 916 842 916 865 923.5 c 128,-1,95
 888 931 888 931 909 936 c 1,96,97
 917 925 917 925 922 915.5 c 128,-1,98
 927 906 927 906 930 897 c 1,99,100
 924 868 924 868 914 818 c 128,-1,101
 904 768 904 768 892.5 707.5 c 128,-1,102
 881 647 881 647 869.5 581 c 128,-1,103
 858 515 858 515 848.5 453 c 128,-1,104
 839 391 839 391 833 339 c 128,-1,105
 827 287 827 287 827 254 c 0,106,107
 827 209 827 209 830 182 c 128,-1,108
 833 155 833 155 838 141 c 128,-1,109
 843 127 843 127 849.5 123 c 128,-1,110
 856 119 856 119 864 119 c 0,111,112
 874 119 874 119 883.5 121.5 c 128,-1,113
 893 124 893 124 906.5 136 c 128,-1,114
 920 148 920 148 939 173.5 c 128,-1,115
 958 199 958 199 987 244 c 1,116,-1
 1022 215 l 1,117,-1
 1022 215 l 1,0,1
EndSplineSet
EndChar

StartChar: paragraph
Encoding: 182 182 107
Width: 1020
Flags: W
LayerCount: 2
Fore
SplineSet
799 1160 m 1,0,1
 781 1167 781 1167 762.5 1172 c 128,-1,2
 744 1177 744 1177 727 1182 c 1,3,-1
 543 -145 l 2,4,5
 541 -156 541 -156 552.5 -164.5 c 128,-1,6
 564 -173 564 -173 573 -176 c 1,7,8
 584 -173 584 -173 598 -164.5 c 128,-1,9
 612 -156 612 -156 614 -145 c 2,10,-1
 799 1160 l 1,11,-1
 799 1160 l 1,0,1
555 610 m 1,12,-1
 638 1200 l 1,13,14
 582 1206 582 1206 543 1206 c 0,15,16
 487 1206 487 1206 437 1185 c 128,-1,17
 387 1164 387 1164 348.5 1128 c 128,-1,18
 310 1092 310 1092 284.5 1043 c 128,-1,19
 259 994 259 994 252 938 c 1,20,21
 243 884 243 884 252.5 826 c 128,-1,22
 262 768 262 768 292.5 720 c 128,-1,23
 323 672 323 672 377 641 c 128,-1,24
 431 610 431 610 512 610 c 2,25,-1
 555 610 l 1,12,-1
1034 1217 m 1,26,27
 969 1203 969 1203 931 1186 c 128,-1,28
 893 1169 893 1169 891 1155 c 2,29,-1
 709 -145 l 2,30,31
 707 -158 707 -158 738.5 -175.5 c 128,-1,32
 770 -193 770 -193 836 -207 c 1,33,-1
 829 -250 l 1,34,-1
 299 -250 l 1,35,-1
 305 -207 l 1,36,37
 370 -193 370 -193 407.5 -176 c 128,-1,38
 445 -159 445 -159 449 -145 c 1,39,-1
 544 532 l 1,40,41
 527 529 527 529 507 527.5 c 128,-1,42
 487 526 487 526 461 526 c 0,43,44
 374 526 374 526 300.5 549.5 c 128,-1,45
 227 573 227 573 176.5 620.5 c 128,-1,46
 126 668 126 668 102.5 738.5 c 128,-1,47
 79 809 79 809 92 903 c 0,48,49
 104 988 104 988 145.5 1059 c 128,-1,50
 187 1130 187 1130 250.5 1181.5 c 128,-1,51
 314 1233 314 1233 396 1261.5 c 128,-1,52
 478 1290 478 1290 571 1290 c 0,53,54
 598 1290 598 1290 638.5 1288 c 128,-1,55
 679 1286 679 1286 724 1282.5 c 128,-1,56
 769 1279 769 1279 814 1275 c 128,-1,57
 859 1271 859 1271 894.5 1267.5 c 128,-1,58
 930 1264 930 1264 952.5 1262 c 128,-1,59
 975 1260 975 1260 975 1260 c 1,60,-1
 1040 1260 l 1,61,-1
 1034 1217 l 1,26,27
EndSplineSet
EndChar

StartChar: periodcentered
Encoding: 183 183 108
Width: 410
Flags: W
LayerCount: 2
Fore
SplineSet
336 678 m 0,0,1
 336 648 336 648 325.5 616 c 128,-1,2
 315 584 315 584 296 558 c 128,-1,3
 277 532 277 532 250 515 c 128,-1,4
 223 498 223 498 189 498 c 0,5,6
 149 498 149 498 127 524.5 c 128,-1,7
 105 551 105 551 105 596 c 0,8,9
 105 624 105 624 116.5 655.5 c 128,-1,10
 128 687 128 687 148 712.5 c 128,-1,11
 168 738 168 738 195 755 c 128,-1,12
 222 772 222 772 254 772 c 0,13,14
 292 772 292 772 314 746 c 128,-1,15
 336 720 336 720 336 678 c 0,0,1
EndSplineSet
EndChar

StartChar: cedilla
Encoding: 184 184 109
Width: 324
Flags: W
LayerCount: 2
Fore
SplineSet
220 -221 m 0,0,1
 220 -274 220 -274 189 -318 c 128,-1,2
 158 -362 158 -362 108.5 -386.5 c 128,-1,3
 59 -411 59 -411 -2.5 -410.5 c 128,-1,4
 -64 -410 -64 -410 -124 -375 c 1,5,-1
 -126 -336 l 1,6,7
 -74 -360 -74 -360 -33 -361.5 c 128,-1,8
 8 -363 8 -363 36 -350.5 c 128,-1,9
 64 -338 64 -338 78.5 -315 c 128,-1,10
 93 -292 93 -292 93 -268 c 0,11,12
 93 -242 93 -242 70 -227.5 c 128,-1,13
 47 -213 47 -213 0 -215 c 1,14,15
 14 -178 14 -178 23.5 -149.5 c 128,-1,16
 33 -121 33 -121 40 -96 c 128,-1,17
 47 -71 47 -71 52.5 -47.5 c 128,-1,18
 58 -24 58 -24 64 4 c 1,19,-1
 132 2 l 1,20,21
 124 -39 124 -39 118 -63.5 c 128,-1,22
 112 -88 112 -88 105 -113 c 1,23,24
 156 -115 156 -115 188 -143.5 c 128,-1,25
 220 -172 220 -172 220 -221 c 0,0,1
EndSplineSet
EndChar

StartChar: ordmasculine
Encoding: 186 186 110
Width: 508
Flags: W
LayerCount: 2
Fore
SplineSet
469 635 m 1,0,1
 464 619 464 619 457.5 609.5 c 128,-1,2
 451 600 451 600 446 586 c 1,3,-1
 76 586 l 1,4,-1
 59 606 l 1,5,6
 64 622 64 622 70 633 c 128,-1,7
 76 644 76 644 82 659 c 1,8,-1
 451 659 l 1,9,-1
 469 635 l 1,10,-1
 469 635 l 1,0,1
440 1006 m 0,11,12
 440 1087 440 1087 410 1131.5 c 128,-1,13
 380 1176 380 1176 326 1176 c 0,14,15
 287 1176 287 1176 260 1153.5 c 128,-1,16
 233 1131 233 1131 216.5 1096.5 c 128,-1,17
 200 1062 200 1062 193 1022 c 128,-1,18
 186 982 186 982 186 948 c 0,19,20
 186 913 186 913 195 881 c 128,-1,21
 204 849 204 849 220 825 c 128,-1,22
 236 801 236 801 257.5 786.5 c 128,-1,23
 279 772 279 772 303 772 c 0,24,25
 340 772 340 772 366.5 796 c 128,-1,26
 393 820 393 820 409 856 c 128,-1,27
 425 892 425 892 432.5 932.5 c 128,-1,28
 440 973 440 973 440 1006 c 0,11,12
518 1034 m 0,29,30
 518 998 518 998 510 961 c 128,-1,31
 502 924 502 924 486.5 889.5 c 128,-1,32
 471 855 471 855 448 824 c 128,-1,33
 425 793 425 793 395 768 c 0,34,35
 366 745 366 745 333 729 c 128,-1,36
 300 713 300 713 268 713 c 0,37,38
 230 713 230 713 201 728.5 c 128,-1,39
 172 744 172 744 152 772 c 128,-1,40
 132 800 132 800 121.5 837.5 c 128,-1,41
 111 875 111 875 111 920 c 0,42,43
 111 996 111 996 138 1063 c 128,-1,44
 165 1130 165 1130 236 1186 c 0,45,46
 263 1207 263 1207 296.5 1222 c 128,-1,47
 330 1237 330 1237 362 1237 c 0,48,49
 405 1237 405 1237 435 1222 c 128,-1,50
 465 1207 465 1207 483.5 1180 c 128,-1,51
 502 1153 502 1153 510 1116 c 128,-1,52
 518 1079 518 1079 518 1034 c 0,29,30
EndSplineSet
EndChar

StartChar: guillemotright
Encoding: 187 187 111
Width: 882
Flags: W
LayerCount: 2
Fore
SplineSet
94 7 m 1,0,-1
 60 36 l 1,1,-1
 321 450 l 1,2,3
 322 449 322 449 311 479.5 c 128,-1,4
 300 510 300 510 283.5 555.5 c 128,-1,5
 267 601 267 601 247.5 654.5 c 128,-1,6
 228 708 228 708 211 753.5 c 128,-1,7
 194 799 194 799 183 829.5 c 128,-1,8
 172 860 172 860 172 860 c 1,9,-1
 214 889 l 1,10,-1
 478 485 l 2,11,12
 478 484 478 484 477 472.5 c 128,-1,13
 476 461 476 461 474.5 448 c 128,-1,14
 473 435 473 435 471.5 424.5 c 128,-1,15
 470 414 470 414 470 414 c 1,16,-1
 94 7 l 1,0,-1
422 7 m 1,17,-1
 388 36 l 1,18,-1
 649 450 l 1,19,20
 650 449 650 449 639 479.5 c 128,-1,21
 628 510 628 510 611.5 555.5 c 128,-1,22
 595 601 595 601 575.5 654.5 c 128,-1,23
 556 708 556 708 539 753.5 c 128,-1,24
 522 799 522 799 511 829.5 c 128,-1,25
 500 860 500 860 500 860 c 1,26,-1
 542 889 l 1,27,-1
 806 485 l 2,28,29
 806 484 806 484 805 472.5 c 128,-1,30
 804 461 804 461 802.5 448 c 128,-1,31
 801 435 801 435 799.5 424.5 c 128,-1,32
 798 414 798 414 798 414 c 1,33,-1
 422 7 l 1,17,-1
EndSplineSet
EndChar

StartChar: questiondown
Encoding: 191 191 112
Width: 813
Flags: W
LayerCount: 2
Fore
SplineSet
352 750 m 0,0,1
 352 780 352 780 362.5 811.5 c 128,-1,2
 373 843 373 843 392.5 869.5 c 128,-1,3
 412 896 412 896 439 913 c 128,-1,4
 466 930 466 930 500 930 c 0,5,6
 540 930 540 930 562 903 c 128,-1,7
 584 876 584 876 584 831 c 0,8,9
 584 803 584 803 572.5 772 c 128,-1,10
 561 741 561 741 540.5 715 c 128,-1,11
 520 689 520 689 492.5 672 c 128,-1,12
 465 655 465 655 434 655 c 0,13,14
 397 655 397 655 374.5 680.5 c 128,-1,15
 352 706 352 706 352 750 c 0,0,1
631 -190 m 1,16,17
 631 -254 631 -254 603 -315 c 128,-1,18
 575 -376 575 -376 523 -424 c 128,-1,19
 471 -472 471 -472 397 -501 c 128,-1,20
 323 -530 323 -530 231 -530 c 0,21,22
 168 -530 168 -530 121.5 -510.5 c 128,-1,23
 75 -491 75 -491 44.5 -458 c 128,-1,24
 14 -425 14 -425 -1 -380.5 c 128,-1,25
 -16 -336 -16 -336 -16 -285 c 0,26,27
 -16 -197 -16 -197 9.5 -130.5 c 128,-1,28
 35 -64 35 -64 74 -10.5 c 128,-1,29
 113 43 113 43 159.5 89 c 128,-1,30
 206 135 206 135 248.5 183.5 c 128,-1,31
 291 232 291 232 323.5 287 c 128,-1,32
 356 342 356 342 367 414 c 2,33,-1
 381 510 l 1,34,35
 400 525 400 525 414.5 535 c 128,-1,36
 429 545 429 545 455 553 c 1,37,-1
 475 530 l 1,38,-1
 473 414 l 2,39,40
 471 347 471 347 446 291 c 128,-1,41
 421 235 421 235 384 184 c 128,-1,42
 347 133 347 133 305 85.5 c 128,-1,43
 263 38 263 38 227 -11 c 128,-1,44
 191 -60 191 -60 167 -113.5 c 128,-1,45
 143 -167 143 -167 143 -229 c 0,46,47
 143 -328 143 -328 187 -381 c 128,-1,48
 231 -434 231 -434 317 -434 c 0,49,50
 359 -434 359 -434 391 -415 c 128,-1,51
 423 -396 423 -396 442.5 -363.5 c 128,-1,52
 462 -331 462 -331 468.5 -288.5 c 128,-1,53
 475 -246 475 -246 467 -199 c 1,54,55
 488 -189 488 -189 504.5 -182.5 c 128,-1,56
 521 -176 521 -176 537.5 -171.5 c 128,-1,57
 554 -167 554 -167 571.5 -164.5 c 128,-1,58
 589 -162 589 -162 610 -160 c 1,59,-1
 631 -190 l 1,60,-1
 631 -190 l 1,16,17
EndSplineSet
EndChar

StartChar: AE
Encoding: 198 198 119
Width: 1464
Flags: W
LayerCount: 2
Fore
SplineSet
819 1147 m 1,0,1
 820 1158 820 1158 812 1163.5 c 128,-1,2
 804 1169 804 1169 792 1167.5 c 128,-1,3
 780 1166 780 1166 767 1157 c 128,-1,4
 754 1148 754 1148 745 1130 c 2,5,-1
 551 735 l 1,6,-1
 764 735 l 1,7,-1
 819 1147 l 1,8,-1
 819 1147 l 1,0,1
1454 1235 m 1,9,10
 1449 1209 1449 1209 1441.5 1178 c 128,-1,11
 1434 1147 1434 1147 1425 1116 c 128,-1,12
 1416 1085 1416 1085 1406.5 1057 c 128,-1,13
 1397 1029 1397 1029 1389 1010 c 1,14,-1
 1348 1010 l 1,15,16
 1352 1056 1352 1056 1350.5 1086.5 c 128,-1,17
 1349 1117 1349 1117 1342.5 1135.5 c 128,-1,18
 1336 1154 1336 1154 1324 1161.5 c 128,-1,19
 1312 1169 1312 1169 1294 1169 c 2,20,-1
 967 1169 l 1,21,-1
 907 735 l 1,22,-1
 1272 735 l 1,23,-1
 1292 707 l 1,24,25
 1282 693 1282 693 1269.5 677.5 c 128,-1,26
 1257 662 1257 662 1244 647.5 c 128,-1,27
 1231 633 1231 633 1218 620.5 c 128,-1,28
 1205 608 1205 608 1194 600 c 1,29,30
 1182 615 1182 615 1168 625 c 128,-1,31
 1154 635 1154 635 1134.5 642 c 128,-1,32
 1115 649 1115 649 1088 652 c 128,-1,33
 1061 655 1061 655 1024 655 c 2,34,-1
 897 655 l 1,35,-1
 827 154 l 2,36,37
 825 139 825 139 830 127.5 c 128,-1,38
 835 116 835 116 854 107.5 c 128,-1,39
 873 99 873 99 908.5 94.5 c 128,-1,40
 944 90 944 90 1004 90 c 2,41,-1
 1118 90 l 2,42,43
 1160 90 1160 90 1190 95 c 128,-1,44
 1220 100 1220 100 1245 117.5 c 128,-1,45
 1270 135 1270 135 1293 169 c 128,-1,46
 1316 203 1316 203 1343 262 c 1,47,-1
 1380 244 l 1,48,49
 1360 157 1360 157 1340.5 93 c 128,-1,50
 1321 29 1321 29 1309 0 c 1,51,-1
 532 0 l 1,52,-1
 539 43 l 1,53,54
 602 57 602 57 638.5 73.5 c 128,-1,55
 675 90 675 90 678 104 c 1,56,-1
 752 655 l 1,57,-1
 510 655 l 1,58,-1
 238 111 l 1,59,60
 222 82 222 82 247.5 67 c 128,-1,61
 273 52 273 52 344 43 c 1,62,-1
 340 0 l 1,63,-1
 -35 0 l 1,64,-1
 -29 43 l 1,65,66
 33 55 33 55 70 68.5 c 128,-1,67
 107 82 107 82 121 111 c 2,68,-1
 635 1133 l 2,69,70
 643 1150 643 1150 635 1161.5 c 128,-1,71
 627 1173 627 1173 605.5 1182.5 c 128,-1,72
 584 1192 584 1192 550 1200 c 128,-1,73
 516 1208 516 1208 473 1217 c 1,74,-1
 479 1260 l 1,75,-1
 1432 1260 l 1,76,-1
 1454 1235 l 1,77,-1
 1454 1235 l 1,9,10
EndSplineSet
EndChar

StartChar: Oslash
Encoding: 216 216 135
Width: 1116
Flags: W
LayerCount: 2
Fore
SplineSet
936 756 m 0,0,1
 936 811 936 811 928 861.5 c 128,-1,2
 920 912 920 912 905 957 c 1,3,-1
 329 205 l 1,4,5
 364 155 364 155 411.5 127.5 c 128,-1,6
 459 100 459 100 516 100 c 0,7,8
 593 100 593 100 654.5 131 c 128,-1,9
 716 162 716 162 762.5 213.5 c 128,-1,10
 809 265 809 265 842 332.5 c 128,-1,11
 875 400 875 400 896 473 c 128,-1,12
 917 546 917 546 926.5 619 c 128,-1,13
 936 692 936 692 936 756 c 0,0,1
242 532 m 0,14,15
 242 404 242 404 277 307 c 1,16,-1
 854 1061 l 1,17,18
 819 1109 819 1109 771 1137 c 128,-1,19
 723 1165 723 1165 662 1165 c 0,20,21
 586 1165 586 1165 525.5 1135.5 c 128,-1,22
 465 1106 465 1106 418 1057 c 128,-1,23
 371 1008 371 1008 338 943 c 128,-1,24
 305 878 305 878 283.5 808 c 128,-1,25
 262 738 262 738 252 666.5 c 128,-1,26
 242 595 242 595 242 532 c 0,14,15
1085 774 m 0,27,28
 1085 703 1085 703 1073.5 630 c 128,-1,29
 1062 557 1062 557 1038.5 486 c 128,-1,30
 1015 415 1015 415 980.5 348.5 c 128,-1,31
 946 282 946 282 901 225 c 0,32,33
 859 171 859 171 811.5 124.5 c 128,-1,34
 764 78 764 78 710.5 43.5 c 128,-1,35
 657 9 657 9 597.5 -11 c 128,-1,36
 538 -31 538 -31 471 -31 c 0,37,38
 393 -31 393 -31 332.5 -4.5 c 128,-1,39
 272 22 272 22 226 70 c 1,40,-1
 170 -2 l 1,41,42
 160 -10 160 -10 144 -17.5 c 128,-1,43
 128 -25 128 -25 110 -31.5 c 128,-1,44
 92 -38 92 -38 75.5 -43.5 c 128,-1,45
 59 -49 59 -49 47 -53 c 1,46,-1
 27 -20 l 1,47,-1
 163 157 l 1,48,49
 126 225 126 225 108 308.5 c 128,-1,50
 90 392 90 392 90 485 c 0,51,52
 90 548 90 548 101.5 618.5 c 128,-1,53
 113 689 113 689 134.5 759.5 c 128,-1,54
 156 830 156 830 187 896.5 c 128,-1,55
 218 963 218 963 258 1018 c 1,56,57
 300 1074 300 1074 348.5 1123.5 c 128,-1,58
 397 1173 397 1173 452.5 1210 c 128,-1,59
 508 1247 508 1247 571 1268.5 c 128,-1,60
 634 1290 634 1290 705 1290 c 0,61,62
 784 1290 784 1290 845.5 1263.5 c 128,-1,63
 907 1237 907 1237 952 1189 c 1,64,-1
 1010 1264 l 1,65,66
 1038 1281 1038 1281 1070.5 1293 c 128,-1,67
 1103 1305 1103 1305 1130 1313 c 1,68,-1
 1153 1280 l 1,69,-1
 1015 1100 l 1,70,71
 1050 1032 1050 1032 1067.5 949.5 c 128,-1,72
 1085 867 1085 867 1085 774 c 0,27,28
EndSplineSet
EndChar

StartChar: germandbls
Encoding: 223 223 140
Width: 999
Flags: W
LayerCount: 2
Fore
SplineSet
940 1225 m 0,0,1
 940 1136 940 1136 914 1077.5 c 128,-1,2
 888 1019 888 1019 848.5 979.5 c 128,-1,3
 809 940 809 940 763 913.5 c 128,-1,4
 717 887 717 887 677.5 861.5 c 128,-1,5
 638 836 638 836 612 806.5 c 128,-1,6
 586 777 586 777 586 731 c 0,7,8
 586 695 586 695 611 667 c 128,-1,9
 636 639 636 639 673.5 613 c 128,-1,10
 711 587 711 587 755 559.5 c 128,-1,11
 799 532 799 532 836.5 497.5 c 128,-1,12
 874 463 874 463 899 418 c 128,-1,13
 924 373 924 373 924 311 c 256,14,15
 924 249 924 249 900.5 186.5 c 128,-1,16
 877 124 877 124 832.5 73.5 c 128,-1,17
 788 23 788 23 722.5 -9 c 128,-1,18
 657 -41 657 -41 573 -41 c 0,19,20
 531 -41 531 -41 489.5 -26.5 c 128,-1,21
 448 -12 448 -12 415.5 9.5 c 128,-1,22
 383 31 383 31 362.5 56.5 c 128,-1,23
 342 82 342 82 342 104 c 0,24,25
 342 114 342 114 353.5 134 c 128,-1,26
 365 154 365 154 381 173.5 c 128,-1,27
 397 193 397 193 414 208 c 128,-1,28
 431 223 431 223 442 223 c 0,29,30
 448 223 448 223 454.5 210.5 c 128,-1,31
 461 198 461 198 470 180 c 128,-1,32
 479 162 479 162 491.5 140 c 128,-1,33
 504 118 504 118 521.5 100 c 128,-1,34
 539 82 539 82 563.5 69.5 c 128,-1,35
 588 57 588 57 621 57 c 0,36,37
 701 57 701 57 744.5 102.5 c 128,-1,38
 788 148 788 148 788 233 c 0,39,40
 788 294 788 294 763.5 335 c 128,-1,41
 739 376 739 376 702 406.5 c 128,-1,42
 665 437 665 437 621.5 462 c 128,-1,43
 578 487 578 487 541 515 c 128,-1,44
 504 543 504 543 479.5 579 c 128,-1,45
 455 615 455 615 455 668 c 0,46,47
 455 727 455 727 470 768 c 128,-1,48
 485 809 485 809 509 838.5 c 128,-1,49
 533 868 533 868 564 889 c 128,-1,50
 595 910 595 910 627 928.5 c 128,-1,51
 659 947 659 947 690 966 c 128,-1,52
 721 985 721 985 745 1010 c 128,-1,53
 769 1035 769 1035 784 1069 c 128,-1,54
 799 1103 799 1103 799 1153 c 0,55,56
 799 1198 799 1198 788 1241.5 c 128,-1,57
 777 1285 777 1285 753.5 1319.5 c 128,-1,58
 730 1354 730 1354 693 1375.5 c 128,-1,59
 656 1397 656 1397 604 1397 c 0,60,61
 548 1397 548 1397 502.5 1358.5 c 128,-1,62
 457 1320 457 1320 422.5 1257.5 c 128,-1,63
 388 1195 388 1195 365.5 1115 c 128,-1,64
 343 1035 343 1035 334 952 c 2,65,-1
 246 193 l 2,66,67
 233 82 233 82 201.5 -20.5 c 128,-1,68
 170 -123 170 -123 122.5 -211.5 c 128,-1,69
 75 -300 75 -300 13 -370 c 128,-1,70
 -49 -440 -49 -440 -123 -485 c 1,71,-1
 -150 -422 l 1,72,73
 -100 -394 -100 -394 -59 -334 c 128,-1,74
 -18 -274 -18 -274 12.5 -196 c 128,-1,75
 43 -118 43 -118 63 -30.5 c 128,-1,76
 83 57 83 57 92 139 c 2,77,-1
 180 899 l 2,78,79
 190 981 190 981 210 1056 c 128,-1,80
 230 1131 230 1131 263 1197.5 c 128,-1,81
 296 1264 296 1264 342.5 1321 c 128,-1,82
 389 1378 389 1378 453 1425 c 1,83,84
 480 1447 480 1447 508.5 1464 c 128,-1,85
 537 1481 537 1481 565.5 1493 c 128,-1,86
 594 1505 594 1505 620.5 1511.5 c 128,-1,87
 647 1518 647 1518 670 1518 c 0,88,89
 734 1518 734 1518 784.5 1492 c 128,-1,90
 835 1466 835 1466 869.5 1424 c 128,-1,91
 904 1382 904 1382 922 1329.5 c 128,-1,92
 940 1277 940 1277 940 1225 c 0,0,1
EndSplineSet
EndChar

StartChar: ae
Encoding: 230 230 142
Width: 1325
Flags: W
LayerCount: 2
Fore
SplineSet
911 782 m 0,0,1
 878 752 878 752 846.5 709 c 128,-1,2
 815 666 815 666 789.5 616 c 128,-1,3
 764 566 764 566 747 511.5 c 128,-1,4
 730 457 730 457 726 404 c 1,5,6
 857 455 857 455 933.5 496.5 c 128,-1,7
 1010 538 1010 538 1049 575 c 128,-1,8
 1088 612 1088 612 1099 646 c 128,-1,9
 1110 680 1110 680 1110 715 c 0,10,11
 1110 746 1110 746 1102 768.5 c 128,-1,12
 1094 791 1094 791 1081 804.5 c 128,-1,13
 1068 818 1068 818 1051.5 824.5 c 128,-1,14
 1035 831 1035 831 1018 831 c 0,15,16
 1002 831 1002 831 971 819.5 c 128,-1,17
 940 808 940 808 911 782 c 0,0,1
599 443 m 1,18,19
 606 488 606 488 613.5 537 c 128,-1,20
 621 586 621 586 628 630 c 128,-1,21
 635 674 635 674 640.5 708.5 c 128,-1,22
 646 743 646 743 649 760 c 1,23,-1
 649 762 l 1,24,25
 634 774 634 774 616 786 c 128,-1,26
 598 798 598 798 578 808 c 128,-1,27
 558 818 558 818 535.5 824.5 c 128,-1,28
 513 831 513 831 489 831 c 0,29,30
 444 831 444 831 404 808.5 c 128,-1,31
 364 786 364 786 330.5 749 c 128,-1,32
 297 712 297 712 271 664.5 c 128,-1,33
 245 617 245 617 227 566.5 c 128,-1,34
 209 516 209 516 199.5 467 c 128,-1,35
 190 418 190 418 190 379 c 0,36,37
 190 314 190 314 200.5 262 c 128,-1,38
 211 210 211 210 229 173 c 128,-1,39
 247 136 247 136 272 116 c 128,-1,40
 297 96 297 96 326 96 c 0,41,42
 350 96 350 96 385 128 c 128,-1,43
 420 160 420 160 458 210.5 c 128,-1,44
 496 261 496 261 533 322.5 c 128,-1,45
 570 384 570 384 599 443 c 1,18,19
862 901 m 1,46,47
 847 889 847 889 836.5 878.5 c 128,-1,48
 826 868 826 868 818.5 856 c 128,-1,49
 811 844 811 844 804.5 828 c 128,-1,50
 798 812 798 812 792 787 c 1,51,52
 824 818 824 818 860 846 c 0,53,54
 884 864 884 864 913.5 880.5 c 128,-1,55
 943 897 943 897 974.5 909.5 c 128,-1,56
 1006 922 1006 922 1038.5 929 c 128,-1,57
 1071 936 1071 936 1102 936 c 0,58,59
 1145 936 1145 936 1176.5 920.5 c 128,-1,60
 1208 905 1208 905 1229 880 c 128,-1,61
 1250 855 1250 855 1260 823.5 c 128,-1,62
 1270 792 1270 792 1270 760 c 0,63,64
 1270 732 1270 732 1263.5 701 c 128,-1,65
 1257 670 1257 670 1236.5 637 c 128,-1,66
 1216 604 1216 604 1179.5 568 c 128,-1,67
 1143 532 1143 532 1082.5 493.5 c 128,-1,68
 1022 455 1022 455 935 413.5 c 128,-1,69
 848 372 848 372 727 327 c 1,70,71
 733 271 733 271 750.5 225 c 128,-1,72
 768 179 768 179 791.5 146 c 128,-1,73
 815 113 815 113 842.5 94.5 c 128,-1,74
 870 76 870 76 897 76 c 0,75,76
 918 76 918 76 948 80.5 c 128,-1,77
 978 85 978 85 1017.5 100 c 128,-1,78
 1057 115 1057 115 1106.5 144 c 128,-1,79
 1156 173 1156 173 1217 221 c 1,80,81
 1228 215 1228 215 1235 201.5 c 128,-1,82
 1242 188 1242 188 1247 180 c 1,83,84
 1164 109 1164 109 1101.5 65.5 c 128,-1,85
 1039 22 1039 22 989.5 -1.5 c 128,-1,86
 940 -25 940 -25 900.5 -33 c 128,-1,87
 861 -41 861 -41 825 -41 c 0,88,89
 793 -41 793 -41 753.5 -24.5 c 128,-1,90
 714 -8 714 -8 678 29 c 128,-1,91
 642 66 642 66 616 125.5 c 128,-1,92
 590 185 590 185 585 270 c 1,93,94
 559 224 559 224 520.5 170 c 128,-1,95
 482 116 482 116 438 69 c 128,-1,96
 394 22 394 22 348 -9.5 c 128,-1,97
 302 -41 302 -41 262 -41 c 0,98,99
 228 -41 228 -41 191 -22 c 128,-1,100
 154 -3 154 -3 123.5 38.5 c 128,-1,101
 93 80 93 80 73 145.5 c 128,-1,102
 53 211 53 211 53 305 c 0,103,104
 53 384 53 384 70.5 459.5 c 128,-1,105
 88 535 88 535 123.5 604 c 128,-1,106
 159 673 159 673 212.5 733.5 c 128,-1,107
 266 794 266 794 338 842 c 0,108,109
 365 860 365 860 396.5 877 c 128,-1,110
 428 894 428 894 461 907 c 128,-1,111
 494 920 494 920 527.5 928 c 128,-1,112
 561 936 561 936 592 936 c 0,113,114
 613 936 613 936 633 930.5 c 128,-1,115
 653 925 653 925 672 916 c 128,-1,116
 691 907 691 907 709 896 c 128,-1,117
 727 885 727 885 743 875 c 1,118,119
 766 892 766 892 791 907.5 c 128,-1,120
 816 923 816 923 842 936 c 1,121,-1
 862 901 l 1,122,-1
 862 901 l 1,46,47
EndSplineSet
EndChar

StartChar: divide
Encoding: 247 247 144
Width: 780
Flags: W
LayerCount: 2
Fore
SplineSet
523 820 m 0,0,1
 520 798 520 798 510.5 778 c 128,-1,2
 501 758 501 758 487.5 743 c 128,-1,3
 474 728 474 728 458 719.5 c 128,-1,4
 442 711 442 711 424 711 c 0,5,6
 392 711 392 711 381 731 c 128,-1,7
 370 751 370 751 375 788 c 0,8,9
 378 810 378 810 387.5 830 c 128,-1,10
 397 850 397 850 410 864.5 c 128,-1,11
 423 879 423 879 439.5 887.5 c 128,-1,12
 456 896 456 896 473 896 c 0,13,14
 534 896 534 896 523 820 c 0,0,1
456 340 m 0,15,16
 453 318 453 318 444 298 c 128,-1,17
 435 278 435 278 421.5 263 c 128,-1,18
 408 248 408 248 392 239.5 c 128,-1,19
 376 231 376 231 358 231 c 0,20,21
 326 231 326 231 314.5 251 c 128,-1,22
 303 271 303 271 308 308 c 0,23,24
 311 330 311 330 320.5 350 c 128,-1,25
 330 370 330 370 343 384.5 c 128,-1,26
 356 399 356 399 372.5 407.5 c 128,-1,27
 389 416 389 416 406 416 c 0,28,29
 467 416 467 416 456 340 c 0,15,16
742 594 m 1,30,31
 735 574 735 574 723.5 548.5 c 128,-1,32
 712 523 712 523 703 506 c 1,33,-1
 107 506 l 1,34,-1
 88 530 l 1,35,36
 96 550 96 550 107 574 c 128,-1,37
 118 598 118 598 129 618 c 1,38,-1
 725 618 l 1,39,-1
 742 594 l 1,40,-1
 742 594 l 1,30,31
EndSplineSet
EndChar

